<svg width="462" height="462" viewBox="0 0 462 462" fill="none" xmlns="http://www.w3.org/2000/svg">
<path d="M414.855 339.427C440.893 339.427 462 318.319 462 292.282C462 266.244 440.893 245.137 414.855 245.137C388.818 245.137 367.71 266.244 367.71 292.282C367.71 318.319 388.818 339.427 414.855 339.427Z" fill="#F7CCDB"/>
<path d="M414.855 216.863C440.893 216.863 462 195.756 462 169.718C462 143.681 440.893 122.573 414.855 122.573C388.818 122.573 367.71 143.681 367.71 169.718C367.71 195.756 388.818 216.863 414.855 216.863Z" fill="#F9EB72"/>
<path d="M47.1451 216.863C73.1826 216.863 94.2902 195.756 94.2902 169.718C94.2902 143.681 73.1826 122.573 47.1451 122.573C21.1076 122.573 0 143.681 0 169.718C0 195.756 21.1076 216.863 47.1451 216.863Z" fill="#AECAF2"/>
<path d="M292.282 94.2902C318.319 94.2902 339.427 73.1826 339.427 47.1451C339.427 21.1076 318.319 0 292.282 0C266.244 0 245.137 21.1076 245.137 47.1451C245.137 73.1826 266.244 94.2902 292.282 94.2902Z" fill="#F7CCDB"/>
<path d="M169.718 94.2902C195.756 94.2902 216.863 73.1826 216.863 47.1451C216.863 21.1076 195.756 0 169.718 0C143.681 0 122.573 21.1076 122.573 47.1451C122.573 73.1826 143.681 94.2902 169.718 94.2902Z" fill="#F9EB72"/>
<path d="M186.639 90.7747C204.147 84.0226 216.575 67.0328 216.575 47.1351C216.575 37.5846 213.707 28.7112 208.797 21.3019C203.439 22.0488 199.247 23.0148 197.076 23.8912C191.32 26.2016 186.31 28.9303 182.725 31.0814C178.811 29.3486 171.203 26.4108 164.899 26.7394L166.612 30.8922C163.893 30.1652 160.985 29.6573 158.356 29.7968C158.356 29.7968 165.476 41.1897 164.271 44.1574C163.375 46.3583 155.398 53.8772 152.022 54.2955C148.646 54.7137 144.842 54.2955 144.842 54.2955C144.842 54.2955 143.029 63.9356 144.842 68.2378C146.186 71.4247 160.467 76.6829 186.659 82.1802V90.7647L186.639 90.7747Z" fill="#DF4425"/>
<path d="M293.497 18.2147C293.497 18.2147 291.057 23.2937 290.867 26.6797C290.867 26.6797 288.238 26.4905 283.717 21.4115C283.717 21.4115 284.544 27.1378 286.854 28.8806C286.854 28.8806 282.193 36.9971 282.213 39.3075C282.273 45.3724 274.684 63.6469 272.075 69.7317C269.466 75.8166 274.107 79.8698 277.294 80.7462C280.48 81.6126 286.316 79.9196 286.854 79.0034C287.571 77.7984 288.537 73.4464 289.921 72.1816C293.307 69.0645 298.317 68.208 301.583 62.5913C305.019 56.6757 309.102 63.1589 310.417 68.0487C311.582 72.3708 316.412 81.6724 319.459 85.8551C331.49 77.3702 339.347 63.368 339.347 47.5236C339.347 45.7509 339.247 43.9981 339.048 42.2653C328.592 35.2144 312.1 25.9627 297.251 25.7336C297.251 25.7336 295.558 19.3401 293.487 18.2147H293.497Z" fill="#DF4425"/>
<path d="M72.6798 148.307C72.6798 148.307 66.5153 145.568 59.6536 145.837C52.8019 146.116 44.1676 148.715 39.9152 156.393C35.6628 164.072 30.3249 171.332 22.0989 174.489C13.8729 177.646 10.0387 180.384 8.94327 181.749C7.8478 183.123 8.53496 185.453 12.2297 185.862C15.9344 186.27 24.7081 184.906 28.5422 183.123C32.3764 181.34 41.429 179.01 43.7593 177.914C43.7593 177.914 50.0533 180.524 55.2717 180.105C58.8868 179.817 60.2113 181.818 58.0104 187.266C58.0104 187.266 48.2607 205.311 46.0698 216.843C46.4283 216.843 46.7868 216.853 47.1453 216.853C60.1018 216.853 71.8233 211.595 80.3082 203.1C82.3299 196.597 84.4312 189.965 85.4271 187.266C85.4271 187.266 94.3402 158.724 72.6798 148.307Z" fill="#DF4425"/>
<path d="M461.024 169.718C461.024 160.805 458.494 152.48 454.113 145.419L442.331 146.903C435.768 147.112 430.779 146.285 427.283 145.787C425.093 145.479 420.233 145.17 410.802 148.257C410.373 148.536 398.961 156.035 395.415 158.574C393.284 159.371 392.577 160.208 385.845 158.574C385.845 158.574 381.652 166.541 402.845 169.44C402.845 169.44 404.109 172.158 405.563 173.423C405.563 173.423 405.384 181.211 407.007 183.93C408.641 186.648 408.093 192.624 406.828 193.171C405.563 193.719 403.382 196.428 403.203 198.061C403.024 199.694 401.749 204.943 406.828 208.747C411.897 212.551 418.779 213.458 421.677 212.193C424.575 210.928 428.249 204.584 431.665 204.763C433.856 204.883 435.699 207.612 437.591 209.882C451.573 201.945 461.014 186.937 461.014 169.708L461.024 169.718Z" fill="#DF4425"/>
<path d="M460.078 305.955C458.046 303.306 456.164 300.408 454.501 297.291C448.456 285.968 442.401 277.433 430.61 278.06C428.229 278.19 425.371 279.046 422.324 280.331C427.054 275.212 426.337 266.299 426.297 265.931C426.277 265.652 426.088 265.413 425.819 265.333C425.56 265.243 425.262 265.323 425.082 265.532C424.764 265.891 423.638 266.917 422.692 266.917C422.413 266.917 422.164 266.827 421.935 266.638C421.039 265.891 422.294 262.694 423.419 260.762C423.549 260.543 423.549 260.274 423.419 260.055C423.29 259.836 423.071 259.716 422.792 259.716C417.613 259.935 413.779 263.72 411.897 266.05V263.351C411.897 263.102 411.758 262.863 411.538 262.744C411.319 262.624 411.05 262.624 410.831 262.764C406.479 265.463 403.263 270.601 402.008 272.842L400.912 271.079C400.773 270.85 400.504 270.721 400.245 270.751C399.976 270.781 399.747 270.96 399.668 271.219C395.774 282.622 403.024 289.394 404.278 290.459C404.278 290.459 404.498 290.579 404.647 290.489C399 293.945 395.714 299.452 395.714 299.452C400.614 297.888 403.701 298.297 403.701 298.297L406.27 298.596C406.27 298.596 403.97 305.587 406.37 308.714C407.336 309.978 408.77 310.616 410.612 310.616C410.612 310.616 410.632 310.616 410.642 310.616C410.702 310.616 411.997 310.546 413.062 309.391C413.212 309.391 413.361 309.411 413.52 309.411C413.52 309.411 413.54 309.411 413.55 309.411C413.61 309.411 415.144 309.331 416.239 307.867C416.807 307.11 417.135 306.134 417.265 304.969C416.169 303.535 417.354 304.74 418.928 307.459C424.704 317.497 420.013 330.105 417.255 339.247C421.208 339.068 425.043 338.401 428.688 337.296C428.697 337.256 428.707 337.236 428.707 337.236C428.707 337.236 428.707 337.256 428.707 337.286C443.705 332.754 455.537 320.943 460.108 305.965L460.078 305.955Z" fill="#DF4425"/>
<path d="M292.282 462C318.319 462 339.427 440.892 339.427 414.855C339.427 388.817 318.319 367.71 292.282 367.71C266.244 367.71 245.137 388.817 245.137 414.855C245.137 440.892 266.244 462 292.282 462Z" fill="#F9EB72"/>
<path d="M292.282 216.863C318.319 216.863 339.427 195.756 339.427 169.718C339.427 143.681 318.319 122.573 292.282 122.573C266.244 122.573 245.137 143.681 245.137 169.718C245.137 195.756 266.244 216.863 292.282 216.863Z" fill="#D8DCD9"/>
<path d="M169.718 462C195.756 462 216.863 440.892 216.863 414.855C216.863 388.817 195.756 367.71 169.718 367.71C143.681 367.71 122.573 388.817 122.573 414.855C122.573 440.892 143.681 462 169.718 462Z" fill="#AECAF2"/>
<path d="M47.1451 339.427C73.1826 339.427 94.2902 318.319 94.2902 292.282C94.2902 266.244 73.1826 245.137 47.1451 245.137C21.1076 245.137 0 266.244 0 292.282C0 318.319 21.1076 339.427 47.1451 339.427Z" fill="#D8DCD9"/>
<path d="M169.718 339.427C195.756 339.427 216.863 318.319 216.863 292.282C216.863 266.244 195.756 245.137 169.718 245.137C143.681 245.137 122.573 266.244 122.573 292.282C122.573 318.319 143.681 339.427 169.718 339.427Z" fill="#F9EB72"/>
<path d="M292.282 339.427C318.319 339.427 339.427 318.319 339.427 292.282C339.427 266.244 318.319 245.137 292.282 245.137C266.244 245.137 245.137 266.244 245.137 292.282C245.137 318.319 266.244 339.427 292.282 339.427Z" fill="#D8DCD9"/>
<path d="M47.1451 462C73.1826 462 94.2902 440.892 94.2902 414.855C94.2902 388.817 73.1826 367.71 47.1451 367.71C21.1076 367.71 0 388.817 0 414.855C0 440.892 21.1076 462 47.1451 462Z" fill="#D8DCD9"/>
<path d="M47.1452 94.1507C73.1442 94.1507 94.2206 73.0744 94.2206 47.0754C94.2206 21.0764 73.1442 0 47.1452 0C21.1462 0 0.0698242 21.0764 0.0698242 47.0754C0.0698242 73.0744 21.1462 94.1507 47.1452 94.1507Z" fill="#D8DCD9"/>
<path d="M92.3683 61.0079C90.3367 58.3588 88.4545 55.4608 86.7913 52.3437C80.7463 41.0205 74.6914 32.4858 62.9001 33.1132C60.52 33.2427 57.6618 34.0991 54.6144 35.3838C59.3448 30.265 58.6278 21.3518 58.588 20.9834C58.568 20.7045 58.3788 20.4655 58.1099 20.3858C57.851 20.2962 57.5522 20.3759 57.373 20.585C57.0543 20.9435 55.9289 21.9693 54.9829 21.9693C54.704 21.9693 54.455 21.8796 54.226 21.6904C53.3297 20.9435 54.5845 17.7467 55.7098 15.8147C55.8393 15.5956 55.8393 15.3267 55.7098 15.1076C55.5804 14.8885 55.3613 14.769 55.0824 14.769C49.9039 14.9881 46.0697 18.7725 44.1875 21.1029V18.404C44.1875 18.155 44.0481 17.916 43.829 17.7965C43.6099 17.677 43.341 17.677 43.1219 17.8164C38.7699 20.5153 35.5532 25.654 34.2984 27.8948L33.2029 26.1321C33.0635 25.903 32.7946 25.7735 32.5357 25.8034C32.2668 25.8333 32.0377 26.0126 31.958 26.2715C28.0641 37.6743 35.3142 44.4463 36.569 45.5119C36.569 45.5119 36.7881 45.6314 36.9375 45.5418C31.2908 48.9975 28.0044 54.5048 28.0044 54.5048C32.9041 52.9412 35.9914 53.3495 35.9914 53.3495L38.5608 53.6483C38.5608 53.6483 36.2603 60.6394 38.6603 63.7665C39.6263 65.0312 41.0604 65.6686 42.9028 65.6686C42.9028 65.6686 42.9227 65.6686 42.9327 65.6686C42.9924 65.6686 44.2871 65.5989 45.3527 64.4437C45.5021 64.4437 45.6514 64.4636 45.8108 64.4636C45.8108 64.4636 45.8307 64.4636 45.8407 64.4636C45.9004 64.4636 47.4341 64.3839 48.5295 62.92C49.0972 62.1631 49.4258 61.1871 49.5553 60.022C48.4598 58.5879 49.6449 59.7929 51.2184 62.5117C56.9945 72.5502 52.3039 85.158 49.5453 94.3002C53.499 94.121 57.3331 93.4537 60.9781 92.3483C60.988 92.3085 60.998 92.2885 60.998 92.2885C60.998 92.2885 60.998 92.3085 60.998 92.3383C75.996 87.8071 87.8271 75.9959 92.3982 61.0178L92.3683 61.0079Z" fill="#DF4425"/>
<path d="M169.718 215.888C195.217 215.888 215.888 195.217 215.888 169.718C215.888 144.22 195.217 123.549 169.718 123.549C144.22 123.549 123.549 144.22 123.549 169.718C123.549 195.217 144.22 215.888 169.718 215.888Z" fill="#D8DCD9"/>
<path d="M215.887 169.718C215.887 160.805 213.358 152.48 208.976 145.419L197.195 146.903C190.632 147.112 185.642 146.285 182.147 145.787C179.956 145.479 175.096 145.17 165.665 148.257C165.237 148.536 153.824 156.035 150.279 158.574C148.147 159.371 147.44 160.208 140.708 158.574C140.708 158.574 136.515 166.541 157.708 169.44C157.708 169.44 158.973 172.158 160.427 173.423C160.427 173.423 160.247 181.211 161.871 183.93C163.504 186.648 162.956 192.624 161.691 193.171C160.427 193.719 158.246 196.428 158.066 198.061C157.887 199.694 156.612 204.943 161.691 208.747C166.76 212.551 173.642 213.458 176.54 212.193C179.438 210.928 183.113 204.584 186.529 204.763C188.72 204.883 190.562 207.612 192.454 209.882C206.436 201.945 215.877 186.937 215.877 169.708L215.887 169.718Z" fill="#DF4425"/>
<path d="M48.3604 263.361C48.3604 263.361 45.9205 268.44 45.7313 271.826C45.7313 271.826 43.1021 271.637 38.5808 266.558C38.5808 266.558 39.4074 272.284 41.7178 274.027C41.7178 274.027 37.0571 282.143 37.077 284.454C37.1368 290.519 29.5482 308.793 26.9389 314.878C24.3297 320.963 28.9705 325.016 32.1574 325.893C35.3442 326.759 41.1801 325.066 41.7178 324.15C42.4349 322.945 43.4009 318.593 44.7852 317.328C48.1712 314.211 53.1805 313.354 56.447 307.738C59.8827 301.822 63.9659 308.305 65.2804 313.195C66.4456 317.517 71.2756 326.819 74.323 331.001C86.3533 322.516 94.2108 308.514 94.2108 292.67C94.2108 290.897 94.1112 289.144 93.9121 287.412C83.4553 280.361 66.9635 271.109 52.1149 270.88C52.1149 270.88 50.4219 264.486 48.3504 263.361H48.3604Z" fill="#DF4425"/>
<path d="M327.865 201.019C318.045 197.414 311.761 192.584 310.407 191.488C310.397 191.468 310.377 191.439 310.357 191.419C304.601 185.035 302.261 179.807 301.305 176.49C301.952 175.873 303.505 175.574 305.009 175.295C306.832 174.957 308.714 174.598 309.55 173.602C310.945 171.949 313.255 163.544 312.628 161.433C312.528 161.104 312.359 160.905 312.12 160.835C312.06 160.815 311.99 160.805 311.911 160.805C310.258 160.805 302.46 166.88 300.428 168.484C299.99 167.03 299.024 166.263 297.6 166.263C296.046 166.263 294.632 167.269 293.537 168.384C303.605 148.984 313.126 140.848 316.89 138.169L317.239 137.94C317.547 137.731 317.866 137.531 318.175 137.322C318.324 137.233 318.364 137.034 318.284 136.884C318.195 136.735 318.005 136.685 317.846 136.765C317.826 136.775 317.358 137.034 316.522 137.631C312.996 139.951 309.58 142.481 306.344 145.19C310.068 140.997 316.512 134.912 316.591 134.833C316.721 134.713 316.731 134.514 316.611 134.385C316.502 134.255 316.303 134.235 316.163 134.335C303.017 144.493 294.572 156.513 294.333 156.842C285.769 166.502 281.098 175.036 279.335 178.243C276.716 183.033 270.382 188.331 266.608 191.498C265.921 192.066 265.323 192.574 264.845 192.992C261.818 195.621 263.58 198.669 263.929 199.197C264.148 201.617 266.1 202.951 269.446 202.951C270.552 202.951 271.617 202.802 272.205 202.672C273.35 202.413 273.948 200.86 274.147 200.242C274.276 200.242 274.446 200.242 274.665 200.242C276.178 200.242 280.271 200.093 285.56 198.719C286.466 198.479 287.312 198.36 288.069 198.36C292.033 198.36 293.557 201.656 295.489 205.839C295.728 206.347 295.967 206.865 296.216 207.393C297.45 209.982 299.771 213.219 301.952 215.997C312.19 213.936 321.222 208.538 327.865 200.989V201.019Z" fill="#DF4425"/>
<path d="M309.211 335.921C326.719 329.169 339.147 312.179 339.147 292.282C339.147 282.731 336.279 273.858 331.37 266.448C326.012 267.195 321.819 268.161 319.648 269.038C313.892 271.348 308.883 274.077 305.297 276.228C301.384 274.495 293.775 271.557 287.471 271.886L289.184 276.039C286.465 275.312 283.557 274.804 280.928 274.943C280.928 274.943 288.049 286.336 286.844 289.304C285.947 291.505 277.97 299.024 274.594 299.442C271.218 299.86 267.414 299.442 267.414 299.442C267.414 299.442 265.601 309.082 267.414 313.384C268.758 316.571 283.039 321.83 309.231 327.327V335.911L309.211 335.921Z" fill="#DF4425"/>
<path d="M414.855 94.0014C440.733 94.0014 461.711 73.0231 461.711 47.1451C461.711 21.2671 440.733 0.288818 414.855 0.288818C388.977 0.288818 367.999 21.2671 367.999 47.1451C367.999 73.0231 388.977 94.0014 414.855 94.0014Z" fill="#D8DCD9"/>
<path d="M461.134 57.9007C446.763 32.7646 445.299 35.5332 442.64 33.5414C439.971 31.5397 437.441 31.948 437.441 31.948C437.441 31.948 437.312 31.2708 436.774 30.0758C436.236 28.8807 433.179 27.1479 431.576 24.8972C429.972 22.6465 430.908 17.2787 427.712 17.8164C424.515 18.3542 423.31 31.9381 423.31 31.9381C420.91 32.0675 419.316 30.743 416.379 28.2035C413.451 25.674 410.822 24.4889 410.822 24.4889C408.093 21.1128 406.36 17.7766 405.852 17.8164C405.344 17.8563 405.135 20.1269 405.245 21.8398C405.663 28.2135 409.716 38.471 409.716 38.471C406.918 41.6678 405.055 45.9302 403.581 49.6648C402.117 53.3993 404.777 58.3787 404.777 58.3787C404.777 58.3787 403.313 61.3963 401.311 64.7225C399.309 68.0587 389.052 72.8489 389.848 75.6473C390.645 78.4458 395.575 80.3081 395.575 80.3081C399.309 84.3016 410.632 82.5687 410.632 82.5687L418.032 84.2816L425.73 93.2346C443.297 89.281 457.14 75.4581 461.104 57.8908L461.134 57.9007Z" fill="#DF4425"/>
<path d="M414.855 462C440.893 462 462 440.892 462 414.855C462 388.817 440.893 367.71 414.855 367.71C388.818 367.71 367.71 388.817 367.71 414.855C367.71 440.892 388.818 462 414.855 462Z" fill="#D8DCD9"/>
<path d="M415.721 461.9C437.073 461.602 454.969 447.022 460.297 427.274L456.084 422.961C456.084 422.961 449.044 412.674 441.465 405.265C433 396.999 428.708 399.917 425.75 396.461C422.782 393.005 411.041 384.6 412.664 389.251C412.773 389.55 412.863 389.848 412.953 390.137C412.435 389.729 411.867 389.38 411.399 389.311C410.254 389.131 413.939 395.605 412.445 400.962C410.662 401.381 398.552 404.567 398.094 413.262C397.596 422.643 392.995 426.606 391.671 427.831C389.609 429.743 399.08 439.931 402.038 440.917C405.006 441.903 410.184 438.447 410.184 438.447C418.082 437.213 416.11 442.401 416.11 442.401C413.859 451.015 414.516 457.548 415.721 461.9Z" fill="#DF4425"/>
</svg>
