<svg width="251" height="252" viewBox="0 0 251 252" fill="none" xmlns="http://www.w3.org/2000/svg">
<g clip-path="url(#clip0_421_1269)">
<path d="M225.39 185.144C239.534 185.144 251 173.632 251 159.432C251 145.232 239.534 133.72 225.39 133.72C211.246 133.72 199.781 145.232 199.781 159.432C199.781 173.632 211.246 185.144 225.39 185.144Z" fill="#F7CCDB"/>
<path d="M225.39 118.287C239.534 118.287 251 106.776 251 92.5755C251 78.3753 239.534 66.8638 225.39 66.8638C211.246 66.8638 199.781 78.3753 199.781 92.5755C199.781 106.776 211.246 118.287 225.39 118.287Z" fill="#F9EB72"/>
<path d="M25.6097 118.287C39.7536 118.287 51.2194 106.776 51.2194 92.5755C51.2194 78.3753 39.7536 66.8638 25.6097 66.8638C11.4659 66.8638 0 78.3753 0 92.5755C0 106.776 11.4659 118.287 25.6097 118.287Z" fill="#AECAF2"/>
<path d="M158.799 51.4235C172.943 51.4235 184.409 39.912 184.409 25.7117C184.409 11.5115 172.943 0 158.799 0C144.655 0 133.189 11.5115 133.189 25.7117C133.189 39.912 144.655 51.4235 158.799 51.4235Z" fill="#F7CCDB"/>
<path d="M92.2081 51.4235C106.352 51.4235 117.818 39.912 117.818 25.7117C117.818 11.5115 106.352 0 92.2081 0C78.0642 0 66.5984 11.5115 66.5984 25.7117C66.5984 39.912 78.0642 51.4235 92.2081 51.4235Z" fill="#F9EB72"/>
<path d="M101.396 49.5127C110.912 45.8302 117.657 36.5617 117.657 25.7118C117.657 20.5065 116.104 15.6599 113.428 11.626C110.519 12.036 108.243 12.5631 107.055 13.039C103.926 14.2982 101.207 15.7844 99.2596 16.9631C97.1376 16.0186 92.9957 14.4153 89.5757 14.5983L90.5018 16.8606C89.0288 16.4579 87.4464 16.187 86.0172 16.2676C86.0172 16.2676 89.882 22.4832 89.233 24.1011C88.7444 25.3018 84.4129 29.4016 82.5753 29.6286C80.7377 29.8555 78.6741 29.6286 78.6741 29.6286C78.6741 29.6286 77.6897 34.8925 78.6741 37.2352C79.4033 38.9777 87.1693 41.8402 101.396 44.8419V49.5274V49.5127Z" fill="#DF4425"/>
<path d="M159.456 9.93456C159.456 9.93456 158.128 12.7019 158.026 14.5469C158.026 14.5469 156.597 14.4444 154.147 11.677C154.147 11.677 154.592 14.7958 155.853 15.7475C155.853 15.7475 153.323 20.1695 153.338 21.436C153.374 24.7452 149.247 34.7092 147.825 38.033C146.41 41.3495 148.926 43.5678 150.661 44.0363C152.39 44.5122 155.562 43.5897 155.853 43.0846C156.24 42.4257 156.772 40.0536 157.516 39.3654C159.353 37.6669 162.081 37.1984 163.853 34.1308C165.719 30.9022 167.936 34.4383 168.651 37.1032C169.285 39.4606 171.903 44.5341 173.566 46.8183C180.099 42.1914 184.365 34.5481 184.365 25.9092C184.365 24.9428 184.307 23.9838 184.205 23.0394C178.524 19.1958 169.562 14.1442 161.497 14.0197C161.497 14.0197 160.579 10.5349 159.456 9.91992V9.93456Z" fill="#DF4425"/>
<path d="M39.4866 80.8909C39.4866 80.8909 36.1323 79.3974 32.4133 79.5438C28.6871 79.6902 23.9983 81.1105 21.6867 85.2982C19.3751 89.4859 16.4729 93.4466 12.0028 95.1671C7.5328 96.8875 5.44727 98.381 4.85661 99.1278C4.25867 99.8745 4.63056 101.148 6.64317 101.368C8.65578 101.595 13.4175 100.848 15.503 99.8745C17.5886 98.9008 22.5034 97.6343 23.7722 97.0339C23.7722 97.0339 27.1922 98.4542 30.0288 98.2273C31.9977 98.0735 32.7123 99.1571 31.5164 102.129C31.5164 102.129 26.2223 111.976 25.0265 118.265C25.2233 118.265 25.4129 118.272 25.6098 118.272C32.6467 118.272 39.0199 115.403 43.6285 110.768C44.7223 107.225 45.8672 103.601 46.4068 102.129C46.4068 102.129 51.2487 86.5574 39.4793 80.8762L39.4866 80.8909Z" fill="#DF4425"/>
<path d="M250.475 92.5754C250.475 87.7142 249.097 83.1751 246.72 79.3242L240.317 80.1369C236.751 80.2467 234.039 79.8001 232.143 79.5292C230.954 79.3608 228.314 79.1924 223.188 80.8763C222.955 81.03 216.757 85.1152 214.831 86.5062C213.672 86.9382 213.293 87.3921 209.632 86.5062C209.632 86.5062 207.35 90.855 218.864 92.4363C218.864 92.4363 219.549 93.9152 220.337 94.6107C220.337 94.6107 220.235 98.8569 221.124 100.343C222.007 101.822 221.715 105.087 221.03 105.38C220.344 105.673 219.163 107.159 219.061 108.045C218.966 108.931 218.273 111.801 221.03 113.873C223.786 115.944 227.527 116.442 229.102 115.747C230.677 115.059 232.675 111.596 234.527 111.698C235.723 111.764 236.715 113.25 237.743 114.495C245.341 110.168 250.468 101.976 250.468 92.5828L250.475 92.5754Z" fill="#DF4425"/>
<path d="M249.965 166.892C248.864 165.45 247.843 163.868 246.931 162.163C243.642 155.984 240.361 151.335 233.951 151.672C232.661 151.737 231.107 152.206 229.452 152.909C232.026 150.119 231.632 145.258 231.611 145.053C231.596 144.9 231.494 144.775 231.355 144.724C231.209 144.68 231.056 144.724 230.954 144.834C230.779 145.031 230.167 145.588 229.656 145.588C229.503 145.588 229.372 145.536 229.248 145.434C228.759 145.024 229.437 143.282 230.05 142.227C230.123 142.11 230.116 141.956 230.05 141.839C229.977 141.722 229.86 141.656 229.707 141.656C226.893 141.773 224.814 143.838 223.793 145.112V143.64C223.793 143.501 223.721 143.377 223.597 143.311C223.48 143.245 223.327 143.245 223.21 143.318C220.847 144.79 219.097 147.594 218.412 148.816L217.814 147.85C217.734 147.725 217.588 147.652 217.449 147.674C217.303 147.689 217.18 147.791 217.136 147.93C215.021 154.153 218.959 157.843 219.644 158.429C219.644 158.429 219.761 158.495 219.841 158.444C216.771 160.332 214.985 163.334 214.985 163.334C217.646 162.485 219.323 162.704 219.323 162.704L220.723 162.873C220.723 162.873 219.469 166.687 220.775 168.393C221.3 169.081 222.08 169.433 223.079 169.433C223.079 169.433 223.086 169.433 223.093 169.433C223.123 169.433 223.83 169.396 224.406 168.766C224.486 168.766 224.574 168.774 224.654 168.774C224.654 168.774 224.661 168.774 224.668 168.774C224.705 168.774 225.529 168.73 226.127 167.932C226.433 167.522 226.615 166.987 226.681 166.35C226.083 165.567 226.732 166.226 227.585 167.712C230.728 173.188 228.176 180.063 226.674 185.056C228.825 184.961 230.903 184.595 232.879 183.994C232.887 183.972 232.894 183.958 232.894 183.958C232.894 183.958 232.894 183.965 232.894 183.987C241.039 181.512 247.471 175.07 249.95 166.899L249.965 166.892Z" fill="#DF4425"/>
<path d="M158.799 252C172.943 252 184.409 240.489 184.409 226.288C184.409 212.088 172.943 200.577 158.799 200.577C144.655 200.577 133.189 212.088 133.189 226.288C133.189 240.489 144.655 252 158.799 252Z" fill="#F9EB72"/>
<path d="M158.799 118.287C172.943 118.287 184.409 106.776 184.409 92.5755C184.409 78.3753 172.943 66.8638 158.799 66.8638C144.655 66.8638 133.189 78.3753 133.189 92.5755C133.189 106.776 144.655 118.287 158.799 118.287Z" fill="#EEEEEF"/>
<path d="M92.2081 252C106.352 252 117.818 240.489 117.818 226.288C117.818 212.088 106.352 200.577 92.2081 200.577C78.0642 200.577 66.5984 212.088 66.5984 226.288C66.5984 240.489 78.0642 252 92.2081 252Z" fill="#AECAF2"/>
<path d="M25.6097 185.144C39.7536 185.144 51.2194 173.632 51.2194 159.432C51.2194 145.232 39.7536 133.72 25.6097 133.72C11.4659 133.72 0 145.232 0 159.432C0 173.632 11.4659 185.144 25.6097 185.144Z" fill="#EEEEEF"/>
<path d="M92.2081 185.144C106.352 185.144 117.818 173.632 117.818 159.432C117.818 145.232 106.352 133.72 92.2081 133.72C78.0642 133.72 66.5984 145.232 66.5984 159.432C66.5984 173.632 78.0642 185.144 92.2081 185.144Z" fill="#F9EB72"/>
<path d="M158.799 185.144C172.943 185.144 184.409 173.632 184.409 159.432C184.409 145.232 172.943 133.72 158.799 133.72C144.655 133.72 133.189 145.232 133.189 159.432C133.189 173.632 144.655 185.144 158.799 185.144Z" fill="#EEEEEF"/>
<path d="M25.6097 252C39.7536 252 51.2194 240.489 51.2194 226.288C51.2194 212.088 39.7536 200.577 25.6097 200.577C11.4659 200.577 0 212.088 0 226.288C0 240.489 11.4659 252 25.6097 252Z" fill="#EEEEEF"/>
<path d="M25.6096 51.3503C39.7333 51.3503 51.1829 39.8551 51.1829 25.6751C51.1829 11.4952 39.7333 0 25.6096 0C11.4859 0 0.036377 11.4952 0.036377 25.6751C0.036377 39.8551 11.4859 51.3503 25.6096 51.3503Z" fill="#EEEEEF"/>
<path d="M50.1839 33.2744C49.0828 31.8322 48.0619 30.2508 47.1504 28.545C43.8617 22.366 40.5802 17.7171 34.1705 18.0539C32.8798 18.1197 31.3266 18.5883 29.6713 19.2911C32.2454 16.5018 31.8516 11.6406 31.8298 11.4356C31.8152 11.2818 31.7131 11.1574 31.5745 11.1061C31.4287 11.0622 31.2756 11.1061 31.1735 11.2159C30.9985 11.4136 30.3859 11.97 29.8755 11.97C29.7224 11.97 29.5911 11.9188 29.4671 11.8163C28.9786 11.4063 29.6567 9.66386 30.2693 8.60962C30.3422 8.49248 30.3349 8.33874 30.2693 8.2216C30.1963 8.10446 30.0797 8.03857 29.9265 8.03857C27.1118 8.15571 25.0336 10.2203 24.0127 11.4941V10.0226C24.0127 9.88349 23.9397 9.75904 23.8158 9.69315C23.6991 9.62726 23.546 9.62726 23.4293 9.70047C21.0667 11.172 19.3166 13.976 18.6311 15.1986L18.0332 14.2322C17.953 14.1078 17.8071 14.0346 17.6686 14.0565C17.5227 14.0712 17.3988 14.1737 17.355 14.3128C15.2403 20.5357 19.178 24.2256 19.8635 24.8112C19.8635 24.8112 19.9802 24.8771 20.0604 24.8259C16.9904 26.7147 15.2039 29.7164 15.2039 29.7164C17.8655 28.8671 19.5426 29.0868 19.5426 29.0868L20.9427 29.2552C20.9427 29.2552 19.6885 33.0695 20.9938 34.7753C21.5188 35.4635 22.299 35.8149 23.298 35.8149C23.298 35.8149 23.3053 35.8149 23.3126 35.8149C23.3418 35.8149 24.0491 35.7783 24.6252 35.1487C24.7054 35.1487 24.7929 35.156 24.8731 35.156C24.8731 35.156 24.8804 35.156 24.8877 35.156C24.9242 35.156 25.7482 35.112 26.3461 34.314C26.6524 33.9041 26.8347 33.3696 26.9003 32.7327C26.3024 31.9493 26.9514 32.6082 27.8045 34.0944C30.9474 39.5706 28.3952 46.4451 26.893 51.4381C29.0442 51.343 31.1224 50.9769 33.0986 50.3766C33.1059 50.3546 33.1132 50.34 33.1132 50.34C33.1132 50.34 33.1132 50.3473 33.1132 50.3692C41.2584 47.8947 47.69 41.4521 50.1693 33.2818L50.1839 33.2744Z" fill="#DF4425"/>
<path d="M92.2082 117.76C106.062 117.76 117.293 106.484 117.293 92.5752C117.293 78.6662 106.062 67.3906 92.2082 67.3906C78.3543 67.3906 67.1235 78.6662 67.1235 92.5752C67.1235 106.484 78.3543 117.76 92.2082 117.76Z" fill="#EEEEEF"/>
<path d="M117.293 92.5754C117.293 87.7142 115.915 83.1751 113.537 79.3242L107.135 80.1369C103.569 80.2467 100.857 79.8001 98.9607 79.5292C97.7721 79.3608 95.1323 79.1924 90.006 80.8763C89.7727 81.03 83.5744 85.1152 81.6493 86.5062C80.4899 86.9382 80.1107 87.3921 76.4501 86.5062C76.4501 86.5062 74.1677 90.855 85.6818 92.4363C85.6818 92.4363 86.3673 93.9152 87.1548 94.6107C87.1548 94.6107 87.0527 98.8569 87.9424 100.343C88.8247 101.822 88.533 105.087 87.8476 105.38C87.1621 105.673 85.9808 107.159 85.8787 108.045C85.7839 108.931 85.0912 111.801 87.8476 113.873C90.604 115.944 94.3448 116.442 95.9199 115.747C97.495 115.059 99.493 111.596 101.345 111.698C102.541 111.764 103.533 113.25 104.561 114.495C112.159 110.168 117.286 101.976 117.286 92.5828L117.293 92.5754Z" fill="#DF4425"/>
<path d="M26.2732 143.655C26.2732 143.655 24.946 146.422 24.844 148.267C24.844 148.267 23.4147 148.165 20.9646 145.397C20.9646 145.397 21.4094 148.516 22.6709 149.468C22.6709 149.468 20.1406 153.89 20.1552 155.156C20.1916 158.465 16.0643 168.429 14.6424 171.753C13.2277 175.07 15.7435 177.288 17.479 177.757C19.2072 178.232 22.3792 177.31 22.6709 176.805C23.0574 176.146 23.5897 173.774 24.3335 173.086C26.1711 171.387 28.8983 170.919 30.6703 167.851C32.5371 164.622 34.7539 168.159 35.4685 170.823C36.1029 173.181 38.7207 178.254 40.3833 180.539C46.917 175.912 51.1829 168.268 51.1829 159.629C51.1829 158.663 51.1245 157.704 51.0225 156.76C45.3419 152.916 36.38 147.864 28.315 147.74C28.315 147.74 27.3962 144.255 26.2732 143.64V143.655Z" fill="#DF4425"/>
<path d="M178.13 109.648C172.8 107.679 169.38 105.05 168.643 104.45C168.643 104.435 168.629 104.428 168.622 104.414C165.493 100.929 164.224 98.0808 163.707 96.2725C164.057 95.9357 164.903 95.7746 165.719 95.6209C166.711 95.4305 167.732 95.2402 168.184 94.6984C168.942 93.7979 170.197 89.2076 169.854 88.0655C169.803 87.8898 169.708 87.78 169.577 87.736C169.54 87.7287 169.504 87.7214 169.467 87.7214C168.563 87.7214 164.334 91.0305 163.225 91.9091C162.992 91.1111 162.46 90.6938 161.694 90.6938C160.848 90.6938 160.083 91.2428 159.485 91.8505C164.954 81.2715 170.131 76.8276 172.173 75.3707L172.362 75.2462C172.53 75.1364 172.698 75.0193 172.873 74.9094C172.953 74.8582 172.975 74.7557 172.931 74.6678C172.88 74.5873 172.778 74.558 172.698 74.602C172.69 74.602 172.435 74.7484 171.976 75.0705C170.058 76.3371 168.206 77.7134 166.441 79.1923C168.461 76.9081 171.969 73.5843 172.012 73.5404C172.078 73.4745 172.085 73.372 172.027 73.2988C171.969 73.2256 171.859 73.2183 171.786 73.2768C164.647 78.8189 160.053 85.3786 159.929 85.5543C155.277 90.8255 152.739 95.4744 151.777 97.2315C150.355 99.8452 146.913 102.737 144.864 104.457C144.492 104.772 144.164 105.043 143.909 105.27C142.261 106.705 143.223 108.367 143.406 108.652C143.522 109.97 144.587 110.702 146.403 110.702C147.001 110.702 147.584 110.622 147.905 110.549C148.525 110.41 148.853 109.56 148.962 109.224C149.028 109.224 149.123 109.224 149.239 109.224C150.063 109.224 152.287 109.143 155.16 108.396C155.656 108.264 156.116 108.199 156.524 108.199C158.675 108.199 159.506 110 160.556 112.276C160.68 112.555 160.812 112.833 160.95 113.126C161.621 114.539 162.883 116.303 164.064 117.818C169.628 116.698 174.535 113.748 178.138 109.633L178.13 109.648Z" fill="#DF4425"/>
<path d="M167.995 183.233C177.511 179.55 184.256 170.282 184.256 159.432C184.256 154.227 182.703 149.38 180.026 145.346C177.117 145.756 174.842 146.283 173.653 146.759C170.525 148.018 167.805 149.505 165.858 150.683C163.736 149.739 159.594 148.136 156.174 148.319L157.1 150.581C155.627 150.178 154.045 149.907 152.616 149.988C152.616 149.988 156.48 156.203 155.831 157.821C155.343 159.022 151.011 163.122 149.174 163.349C147.336 163.576 145.272 163.349 145.272 163.349C145.272 163.349 144.288 168.613 145.272 170.955C146.002 172.698 153.768 175.56 167.995 178.562V183.248V183.233Z" fill="#DF4425"/>
<path d="M225.39 51.2698C239.449 51.2698 250.847 39.8271 250.847 25.7118C250.847 11.5965 239.449 0.153809 225.39 0.153809C211.331 0.153809 199.934 11.5965 199.934 25.7118C199.934 39.8271 211.331 51.2698 225.39 51.2698Z" fill="#EEEEEF"/>
<path d="M250.533 31.5834C242.731 17.871 241.929 19.3791 240.485 18.2956C239.034 17.2048 237.663 17.4317 237.663 17.4317C237.663 17.4317 237.59 17.0657 237.298 16.4068C237.007 15.7552 235.344 14.8108 234.476 13.5808C233.608 12.3582 234.112 9.42976 232.376 9.71528C230.641 10.0081 229.984 17.4171 229.984 17.4171C228.679 17.4903 227.811 16.7655 226.222 15.3818C224.632 13.9981 223.203 13.3539 223.203 13.3539C221.715 11.5163 220.774 9.69332 220.505 9.71528C220.235 9.73724 220.118 10.9745 220.176 11.9116C220.403 15.3891 222.605 20.9825 222.605 20.9825C221.088 22.7249 220.074 25.053 219.272 27.0883C218.477 29.1235 219.921 31.8397 219.921 31.8397C219.921 31.8397 219.126 33.4869 218.04 35.3026C216.953 37.1182 211.382 39.7392 211.812 41.262C212.25 42.7847 214.926 43.8024 214.926 43.8024C216.953 45.9841 223.108 45.0396 223.108 45.0396L227.126 45.9694L231.304 50.8526C240.849 48.7002 248.368 41.1595 250.526 31.5761L250.533 31.5834Z" fill="#DF4425"/>
<path d="M225.39 252C239.534 252 251 240.489 251 226.288C251 212.088 239.534 200.577 225.39 200.577C211.246 200.577 199.781 212.088 199.781 226.288C199.781 240.489 211.246 252 225.39 252Z" fill="#EEEEEF"/>
<path d="M225.857 251.949C237.459 251.788 247.179 243.83 250.074 233.061L247.784 230.711C247.784 230.711 243.963 225.095 239.843 221.061C235.242 216.551 232.916 218.14 231.304 216.259C229.693 214.37 223.312 209.794 224.194 212.327C224.253 212.488 224.304 212.649 224.355 212.81C224.07 212.591 223.764 212.4 223.509 212.356C222.889 212.254 224.887 215.79 224.078 218.711C223.108 218.938 216.53 220.681 216.283 225.417C216.013 230.535 213.512 232.695 212.797 233.361C211.674 234.408 216.822 239.964 218.434 240.499C220.045 241.041 222.86 239.152 222.86 239.152C227.155 238.478 226.083 241.304 226.083 241.304C224.865 246.004 225.223 249.57 225.872 251.942L225.857 251.949Z" fill="#DF4425"/>
</g>
<defs>
<clipPath id="clip0_421_1269">
<rect width="251" height="252" fill="white"/>
</clipPath>
</defs>
</svg>
