<svg width="385" height="62" viewBox="0 0 385 62" fill="none" xmlns="http://www.w3.org/2000/svg">
<path d="M71.3516 0.531265L35.8699 61.9825L0.388171 0.531265H71.3516ZM120.799 9.06197C123.064 9.06197 125.077 9.62816 126.839 10.7606C128.663 11.83 130.11 13.277 131.18 15.1014C132.312 16.8629 132.878 18.8761 132.878 21.1408C132.878 23.3427 132.312 25.3559 131.18 27.1803C130.11 29.0047 128.663 30.4831 126.839 31.6155C125.077 32.685 123.064 33.2197 120.799 33.2197C118.598 33.2197 116.584 32.685 114.76 31.6155C112.936 30.4831 111.457 29.0047 110.325 27.1803C109.255 25.3559 108.721 23.3427 108.721 21.1408C108.721 18.8761 109.255 16.8629 110.325 15.1014C111.457 13.277 112.936 11.83 114.76 10.7606C116.584 9.62816 118.598 9.06197 120.799 9.06197ZM199.595 41.4296C201.797 44.3235 203.653 46.3052 205.163 47.3746C206.673 48.4441 208.057 48.9789 209.315 48.9789C210.699 48.9789 211.863 48.8845 212.806 48.6958C213.75 48.507 214.537 48.2869 215.166 48.0352V56.4338C214.474 56.8742 213.499 57.2202 212.24 57.4718C211.045 57.7864 209.755 57.9437 208.371 57.9437C206.358 57.9437 204.565 57.6606 202.992 57.0944C201.42 56.5911 199.815 55.616 198.18 54.169C196.607 52.6592 194.688 50.5516 192.423 47.8465C190.41 50.4887 188.523 52.5333 186.761 53.9803C185 55.4272 183.27 56.4338 181.571 57C179.936 57.6291 178.174 57.9437 176.287 57.9437C174.903 57.9437 173.582 57.7864 172.323 57.4718C171.128 57.2202 170.153 56.8742 169.398 56.4338V48.0352C170.027 48.2869 170.814 48.507 171.757 48.6958C172.764 48.8845 173.833 48.9789 174.966 48.9789C176.538 48.9789 178.048 48.4756 179.495 47.469C180.942 46.3995 182.798 44.4178 185.063 41.5239C182.169 38.3784 179.715 35.1385 177.702 31.8042C175.752 28.407 174.777 24.7268 174.777 20.7634C174.777 17.6807 175.5 14.9441 176.947 12.5535C178.394 10.1629 180.439 8.27558 183.081 6.89154C185.723 5.4446 188.837 4.72112 192.423 4.72112C196.009 4.72112 199.092 5.4446 201.671 6.89154C204.314 8.27558 206.358 10.1629 207.805 12.5535C209.252 14.9441 209.976 17.6807 209.976 20.7634C209.976 23.4056 209.504 25.9221 208.56 28.3127C207.616 30.7033 206.358 32.9995 204.785 35.2014C203.213 37.3404 201.483 39.4164 199.595 41.4296ZM263.731 9.06197C265.996 9.06197 268.009 9.62816 269.77 10.7606C271.595 11.83 273.042 13.277 274.111 15.1014C275.244 16.8629 275.81 18.8761 275.81 21.1408C275.81 23.3427 275.244 25.3559 274.111 27.1803C273.042 29.0047 271.595 30.4831 269.77 31.6155C268.009 32.685 265.996 33.2197 263.731 33.2197C261.529 33.2197 259.516 32.685 257.692 31.6155C255.867 30.4831 254.389 29.0047 253.256 27.1803C252.187 25.3559 251.652 23.3427 251.652 21.1408C251.652 18.8761 252.187 16.8629 253.256 15.1014C254.389 13.277 255.867 11.83 257.692 10.7606C259.516 9.62816 261.529 9.06197 263.731 9.06197ZM384.142 0.531265L348.661 61.9825L313.179 0.531265H384.142Z" fill="#424242"/>
</svg>
