<svg width="299" height="53" viewBox="0 0 299 53" fill="none" xmlns="http://www.w3.org/2000/svg">
<g clip-path="url(#clip0_421_933)">
<path d="M0 0H42.84L21.42 37.22L0 0Z" fill="black"/>
<path d="M79.1498 31.11C77.7298 29.44 77.0298 27.55 77.0298 25.42C77.0298 23.29 77.8598 21.33 79.5298 19.66C81.0998 18.04 83.0898 17.23 85.5198 17.23C87.7398 17.23 89.6398 18.04 91.2098 19.66C92.8298 21.28 93.6398 23.22 93.6398 25.5C93.6398 28.03 92.7298 30.1 90.9098 31.72C89.2398 33.14 87.3998 33.84 85.3698 33.84C82.9898 33.84 80.9198 32.93 79.1498 31.11Z" fill="black"/>
<path d="M154.79 50.9C152.57 49.94 150.75 48.63 149.33 46.96C149.18 46.76 149 46.64 148.8 46.62C148.6 46.6 148.42 46.68 148.27 46.89C146.65 48.51 144.74 49.81 142.55 50.8C140.35 51.79 138.11 52.28 135.84 52.28C134.83 52.28 133.36 52.18 131.44 51.98C129.77 51.83 128.94 50.94 128.94 49.33C128.94 48.02 129.24 47.11 129.85 46.6C130.46 46.1 131.27 45.89 132.28 45.99L132.96 46.07C133.97 46.22 134.93 46.3 135.84 46.3C140.89 46.3 144.03 45.42 145.24 43.65C143.77 42.44 142.57 40.87 141.64 38.95C140.7 37.03 140.24 35.36 140.24 33.95C140.24 31.73 141.07 29.84 142.74 28.3C144.41 26.76 146.4 25.99 148.73 25.99C151.06 25.99 153.04 26.76 154.68 28.3C156.32 29.84 157.14 31.72 157.14 33.95C157.14 35.37 156.68 37 155.78 38.84C154.87 40.69 153.73 42.24 152.37 43.5C153.48 45.37 156.49 46.31 161.39 46.31C162.4 46.31 163.82 46.21 165.64 46.01C166.65 45.91 167.45 46.15 168.03 46.73C168.61 47.31 168.9 48.18 168.9 49.35C168.9 50.16 168.67 50.8 168.22 51.28C167.77 51.76 167.11 52.05 166.25 52.15C165.04 52.3 163.57 52.38 161.85 52.38C159.37 52.38 157.02 51.9 154.8 50.94L154.79 50.9Z" fill="black"/>
<path d="M206.17 31.11C204.75 29.44 204.05 27.55 204.05 25.42C204.05 23.29 204.88 21.33 206.55 19.66C208.12 18.04 210.11 17.23 212.54 17.23C214.76 17.23 216.66 18.04 218.23 19.66C219.85 21.28 220.66 23.22 220.66 25.5C220.66 28.03 219.75 30.1 217.93 31.72C216.26 33.14 214.42 33.84 212.39 33.84C210.01 33.84 207.94 32.93 206.17 31.11Z" fill="black"/>
<path d="M255.81 0H298.65L277.23 37.22L255.81 0Z" fill="black"/>
</g>
<defs>
<clipPath id="clip0_421_933">
<rect width="298.65" height="52.34" fill="white"/>
</clipPath>
</defs>
</svg>
