<svg width="526" height="175" viewBox="0 0 526 175" fill="none" xmlns="http://www.w3.org/2000/svg">
<path d="M165.514 21V50.0188H66.1032V21H25.7437V154H66.1032V124.981H165.514V154H205.874V21H165.514ZM153.301 121.272H78.3474L56.4628 87.4844L78.3474 53.6967H153.301L175.185 87.4844L153.301 121.272Z" fill="white"/>
<path d="M64.295 86.6379L61.671 88.3552L79.9845 116.647L82.6085 114.929L64.295 86.6379Z" fill="white"/>
<path d="M167.321 86.6479L149.007 114.939L151.631 116.657L169.945 88.3652L167.321 86.6479Z" fill="white"/>
<path d="M141.863 57.624H89.7238V60.7721H141.863V57.624Z" fill="white"/>
<path d="M131.912 95.4325C129.68 96.991 127.417 98.7988 125.496 97.552C124.969 97.0533 125.465 95.0273 123.791 94.0611C122.117 93.0948 120.443 92.3468 117.064 92.3468C113.685 92.3468 110.493 94.3728 108.85 95.152C107.548 95.7442 106.742 96.2118 105.688 96.6793C104.603 96.0559 104.944 90.8194 104.975 89.0116C104.975 87.2038 105.099 84.4921 105.099 83.2764C107.517 81.6868 110.307 78.4764 110.307 75.3594C110.307 73.0529 108.912 71.0269 107.3 69.7801C103.983 67.2242 97.2873 67.0683 94.4665 70.4035C93.2266 71.8996 92.8546 73.6763 93.3195 76.6374C93.3195 76.949 93.5675 79.2244 93.5985 79.5361C91.7076 81.4998 89.5998 82.4972 89.7548 83.0583C89.9098 83.6193 90.8087 83.4635 91.7387 83.3076C93.0096 83.3076 94.5905 82.1855 95.7684 83.4946L96.0164 98.0196C93.1956 101.666 92.4516 107.464 95.5824 110.768C98.7132 114.072 100.821 115.1 104.417 115.1H129.432C132.935 115.1 134.578 114.134 137.089 109.957C139.631 105.781 140.437 100.825 141.181 95.9001C141.925 90.9753 142.142 85.5518 141.522 85.1154C140.871 84.6791 134.671 93.5312 131.943 95.4637L131.912 95.4325ZM99.3022 78.5387C98.3412 78.5387 97.5973 77.7595 97.5973 76.8244C97.5973 75.8893 98.3722 75.1101 99.3022 75.1101C100.232 75.1101 101.007 75.8893 101.007 76.8244C101.007 77.7595 100.232 78.5387 99.3022 78.5387Z" fill="white"/>
<path d="M256.773 96.1495L257.113 100.669C252.588 101.511 247.938 102.383 244.125 103.069L243.102 98.2378C246.636 97.7703 251.751 96.991 256.773 96.1495ZM259.314 72.8036H243.815V67.8788H259.314V72.8036ZM249.891 99.3911H245.489V70.497H249.891V99.3911ZM256.494 82.1856H248.589V77.6972H256.494V82.1856ZM256.494 91.5364H248.589V87.048H256.494V91.5364ZM257.919 109.365H253.332V70.497H257.919V109.365ZM258.322 83.9934C259.128 83.8375 259.996 83.0583 261.019 81.8739C262.104 80.7206 265.545 76.3257 267.777 71.8061L271.404 73.7698C268.49 78.6011 264.956 83.2453 261.794 86.2064V86.3311C261.794 86.3311 259.469 87.7961 259.469 88.7935C259.283 87.7337 258.725 85.3648 258.322 84.0246V83.9934ZM258.477 75.2659C259.097 75.0789 259.717 74.5179 260.368 73.6451C261.019 72.8036 263.158 69.6243 264.398 66.3203L268.273 67.9723C266.506 71.6503 264.057 75.3283 262.011 77.479V77.6037C262.011 77.6037 259.748 79.131 259.748 80.2219C259.562 79.0998 258.942 76.6374 258.508 75.2971L258.477 75.2659ZM260.988 84.3986L270.567 83.4947C270.567 84.5544 270.722 86.0194 270.846 86.8921C261.639 87.9831 260.244 88.2948 259.469 88.7623V85.6765L260.988 84.3986ZM261.174 76.1075L267.25 75.827C267.033 76.8244 266.723 78.3205 266.63 79.131C261.422 79.5673 260.306 79.8478 259.686 80.1907V77.2608L261.143 76.1075H261.174ZM262.693 109.583C262.166 108.555 260.647 106.56 259.841 105.812C265.948 103.194 266.723 99.5158 266.723 96.056V89.261H271.28V96.1806C271.28 100.95 269.792 106.435 262.724 109.583H262.693ZM264.522 100.544H260.151V89.3234H264.522V100.544ZM269.637 100.544H261.298V95.9313H269.637V100.544ZM272.613 88.1701L269.358 89.1987C268.955 87.2038 268.056 83.8064 267.281 81.3128L270.412 80.5336C271.28 82.9648 272.21 86.2688 272.644 88.1701H272.613ZM271.652 75.4218C272.272 75.2659 272.861 74.7361 273.48 73.9257C274.131 73.1152 276.301 69.9983 277.51 66.7255L280.951 68.5333C279.246 71.9308 276.983 75.3283 275.092 77.3543V77.4478C275.092 77.4478 272.799 78.8816 272.799 79.9102C272.613 78.9128 272.055 76.6374 271.652 75.4218ZM272.303 84.1804C273.078 83.9934 273.883 83.2141 274.813 81.9985C275.774 80.8453 278.874 76.3257 280.827 71.7438L284.33 73.5828C281.85 78.3829 278.812 83.1206 275.991 86.1752V86.2688C275.991 86.2688 273.449 87.7337 273.449 88.7623C273.264 87.7337 272.706 85.396 272.303 84.1492V84.1804ZM274.286 75.827L280.269 75.5465C279.99 76.5127 279.742 78.04 279.649 78.8504C274.534 79.2868 273.387 79.5673 272.768 79.9102V76.9803L274.255 75.827H274.286ZM277.82 109.334H273.139V89.261H277.82V109.334ZM274.906 84.3986L284.392 83.0583C284.423 84.1181 284.609 85.6142 284.733 86.3934C275.588 87.9207 274.224 88.2948 273.449 88.7935L273.387 85.6454L274.937 84.3674L274.906 84.3986ZM282.625 100.513H275.712V95.8066H282.625V100.513ZM284.516 102.103H280.083V89.6039H284.516V102.103ZM286.655 87.6714L283.462 88.9805C282.966 86.9545 281.85 83.557 280.92 81.0635L283.958 80.066C284.95 82.4973 286.128 85.77 286.686 87.7025L286.655 87.6714Z" fill="white"/>
<path d="M339.19 96.9287H297.467V92.191H339.19V96.9287ZM317.43 73.5828H297.715V68.7827H317.43V73.5828ZM313.586 89.1987H298.552V84.5544H313.586V89.1987ZM337.92 81.7492H298.614V77.2296H337.92V81.7492ZM336.153 103.817H300.133V99.2976H336.153V103.817ZM309.37 91.4117H304.287V82.5596H309.37V91.4117ZM312.842 76.201H307.479V66.1333H312.842V76.201ZM320.778 109.334H315.322V79.0063H320.778V109.334ZM338.695 73.5828H318.98V68.7827H338.695V73.5828ZM337.641 88.9493H322.607V84.3051H337.641V88.9493ZM328.713 76.201H323.35V66.1333H328.713V76.201ZM332.154 91.4117H327.07V82.5596H332.154V91.4117Z" fill="white"/>
<path d="M352.377 103.256C351.757 102.103 350.456 100.295 349.464 99.2976C356.717 98.3313 364.219 95.9625 368 92.7208L372.216 94.5598C367.659 98.7989 360.003 101.916 352.377 103.256ZM353.679 74.9231C352.873 74.2685 351.106 73.3334 350.115 72.8347C351.664 71.0581 352.935 68.5645 353.679 66.2268L357.709 67.2242C356.748 70.0295 355.167 73.0217 353.679 74.9231ZM373.084 78.1647H350.115V74.4555H373.084V78.1647ZM391.528 95.3702H350.208V91.0377H391.528V95.3702ZM369.736 83.1206H356.097V88.8558H351.943V79.7855H369.736V83.1206ZM371.875 72.6477H353.741L355.136 69.1256H371.844V72.6477H371.875ZM357.306 105.812C358.174 105.189 359.383 104.035 359.383 101.604V98.082H364.312V104.316C364.312 104.316 359.104 107.62 359.104 109.552C358.825 108.43 357.957 106.529 357.337 105.812H357.306ZM360.685 104.441L372.929 101.885C372.712 103.131 372.588 105.002 372.588 105.999C361.615 108.524 360.034 108.96 359.073 109.552L358.856 105.906L360.685 104.441ZM364.312 89.9156H359.631V66.1333H364.312V89.9156ZM370.945 88.1389C369.829 88.6688 368.341 88.6688 366.358 88.6688C366.141 87.609 365.49 86.3623 365.056 85.4895C366.11 85.5207 367.163 85.5207 367.504 85.5207C367.876 85.5207 368.031 85.396 368.031 85.0532V79.7855H372.433V85.022C372.433 86.7986 372.123 87.609 370.945 88.1701V88.1389ZM375.099 92.2845L369.674 93.9053C369.395 92.5338 368.589 90.3208 367.783 88.6688L372.898 87.235C373.797 88.7623 374.727 90.8818 375.099 92.3156V92.2845ZM392.365 104.409C391.342 105.438 390.04 107.464 389.389 108.773C379.005 106.809 373.115 101.791 369.767 93.0949L374.262 92.1286C376.928 98.9236 382.849 103.007 392.396 104.409H392.365ZM380.648 83.6817H375.75V68.4398H380.648V83.6817ZM380.772 102.726L377.455 100.014C380.183 98.7677 383.902 96.4923 386.103 94.8092L390.009 97.7079C387.126 99.6405 383.53 101.511 380.772 102.726ZM387.529 89.1675C385.886 89.8532 383.623 89.8844 380.462 89.8844C380.214 88.5753 379.501 86.7363 378.881 85.5207C380.927 85.6142 383.159 85.6142 383.809 85.5519C384.46 85.5519 384.677 85.3648 384.677 84.8038V66.4762H389.637V84.8973C389.637 87.2662 389.172 88.4195 387.529 89.1364V89.1675Z" fill="white"/>
<path d="M406.423 109.719C405.71 108.441 404.222 106.477 403.137 105.418C410.143 103.953 417.675 100.773 421.581 97.033L425.58 98.872C421.116 103.766 413.553 107.755 406.423 109.719ZM404.315 83.1626C404.935 83.038 405.586 82.4769 406.175 81.6977C406.826 80.9184 408.872 77.9573 410.019 74.9962L413.894 76.43C412.22 79.547 409.833 82.7886 407.787 84.7834V84.8769C407.787 84.8769 405.617 86.0614 405.617 86.8406C405.431 86.0614 404.811 84.1912 404.346 83.1938L404.315 83.1626ZM423.968 73.2196H404.315V68.6377H423.968V73.2196ZM445.264 99.7448H404.439V95.5681H445.264V99.7448ZM405.028 90.6433C405.865 90.4874 406.64 89.7082 407.632 88.6173C408.624 87.4952 411.879 83.225 413.863 79.0794L417.644 80.8561C415.072 85.1263 411.631 89.4589 408.438 92.3888V92.5135C408.438 92.5135 406.361 93.7291 406.361 94.4771C406.175 93.6979 405.555 91.7342 405.09 90.6745L405.028 90.6433ZM407.26 82.8198L413.491 82.4769C412.995 83.4432 412.344 84.9393 412.096 85.7809C407.415 86.2172 406.268 86.4978 405.586 86.8095L405.524 83.9419L407.291 82.8198H407.26ZM407.911 90.4563L415.227 89.8017C415.382 90.8303 415.722 92.1706 415.97 92.9498C408.469 93.7914 407.105 94.0719 406.33 94.446L406.237 91.5784L407.942 90.4563H407.911ZM418.078 75.5261H412.623V66.4558H418.078V75.5261ZM417.768 93.9784L414.297 94.9135C414.266 92.7628 413.584 89.4277 412.716 86.903L415.97 86.0614C416.931 88.5549 417.613 91.8589 417.768 94.0096V93.9784ZM432.027 93.2927H417.954V77.1158H432.027V93.2927ZM425.487 79.9522L421.333 78.9548C421.86 77.4898 422.449 75.4638 422.697 74.0612L428.029 74.9962C427.068 76.9287 426.2 78.6742 425.518 79.9522H425.487ZM427.502 109.688H422.046V92.4823H427.502V109.688ZM427.564 83.4743V80.7938H422.201V83.4743H427.564ZM427.564 89.6147V86.8718H422.201V89.6147H427.564ZM446.38 105.449C445.264 106.446 443.776 108.441 443.032 109.719C436.367 107.662 428.525 103.485 423.875 98.9344L427.409 97.1265C431.594 100.618 439.591 103.89 446.38 105.418V105.449ZM445.419 73.2196H425.611V68.6377H445.419V73.2196ZM437.297 75.5261H431.842V66.4558H437.297V75.5261ZM432.027 83.0691C432.616 82.9444 433.205 82.4146 433.732 81.6042C434.29 80.8249 436.057 77.895 437.018 74.9962L440.831 76.3365C439.436 79.4223 437.297 82.6327 435.468 84.6588V84.7523C435.468 84.7523 433.298 85.9367 433.298 86.7159C433.081 85.9367 432.461 84.0665 432.027 83.0691ZM432.616 90.581C433.422 90.4251 434.228 89.677 435.251 88.5238C436.243 87.4328 439.591 83.1003 441.575 78.8924L445.419 80.6379C442.784 84.9705 439.25 89.3965 435.995 92.3264V92.4511C435.995 92.4511 433.887 93.6667 433.887 94.4148C433.701 93.6356 433.05 91.6719 432.616 90.581ZM434.972 82.7263L441.327 82.3522C440.769 83.3496 440.149 84.8769 439.87 85.6874C435.096 86.1237 433.918 86.4042 433.267 86.7159L433.205 83.8172L434.972 82.7263ZM435.468 90.3939L443.094 89.7082C443.249 90.7056 443.559 92.0771 443.807 92.8563C436.026 93.7602 434.693 94.0408 433.887 94.4148L433.794 91.516L435.499 90.4251L435.468 90.3939ZM445.977 93.8849L442.505 94.9447C442.35 92.6693 441.513 89.2718 440.49 86.6536L443.683 85.7185C444.83 88.2744 445.729 91.6719 445.977 93.8849Z" fill="white"/>
<path d="M460.965 109.241C460.097 108.274 457.927 106.623 456.811 106.093C459.756 99.7964 459.973 90.6949 459.973 84.1493V70.1854H464.933V84.1493C464.933 91.3806 464.344 102.29 460.965 109.241ZM499.557 74.8297H463.259V70.2166H499.557V74.8297ZM471.628 82.7467L468.032 84.4922C467.629 82.8402 466.327 80.2843 465.026 78.4453L468.373 76.8869C469.737 78.6635 471.132 81.0947 471.597 82.7779L471.628 82.7467ZM481.207 89.0741H469.644V108.742H465.924V85.0844H481.207V89.0741ZM473.488 103.474H471.194V91.1936H473.488V103.474ZM478.138 102.072H472.31V98.6743H475.844V94.5599H472.31V91.1625H478.138V102.041V102.072ZM476.898 87.6715H472.31V75.7959H476.898V87.6715ZM482.074 107.932C480.773 108.555 478.944 108.649 476.309 108.586C476.154 107.464 475.658 105.781 475.162 104.69C476.867 104.721 478.572 104.721 479.068 104.721C479.626 104.721 479.781 104.565 479.781 104.067V85.0844H483.686V104.16C483.686 106.093 483.407 107.246 482.105 107.932H482.074ZM483.965 69.6867L478.82 71.8374C478.51 70.5595 477.58 68.5958 476.712 67.1932L481.61 65.323C482.57 66.6633 483.531 68.4711 483.965 69.6867ZM480.246 84.4922L476.836 83.2766C477.952 81.5311 479.347 78.7259 480.06 76.7934L484.213 78.1025C482.88 80.409 481.424 82.8714 480.246 84.4922ZM485.391 93.9989C484.647 93.1261 482.849 91.443 481.795 90.6949C484.461 87.0793 486.197 81.4064 487.096 75.6401L491.777 76.5128C490.568 83.2143 488.398 89.7598 485.391 93.9677V93.9989ZM484.833 109.646C484.244 108.649 483.004 106.934 482.136 106.093C489.979 101.667 492.769 92.8144 493.668 84.1182L498.348 84.6169C496.892 94.6846 493.575 104.596 484.802 109.646H484.833ZM500.487 105.469C499.464 106.342 498.007 108.119 497.295 109.397C490.661 105.064 487.313 96.4301 485.515 86.1442L489.111 85.4585C490.754 94.2794 494.226 102.041 500.487 105.5V105.469ZM499.743 86.3624H487.809V81.874H499.743V86.3624Z" fill="white"/>
</svg>
