<svg width="334" height="244" viewBox="0 0 334 244" fill="none" xmlns="http://www.w3.org/2000/svg">
<g clip-path="url(#clip0_231_591)">
<path d="M259.203 0V53.2056H74.7975V0H0V244H74.7975V190.794H259.134V244H333.932V0H259.134H259.203ZM236.518 184.017H97.4819L56.9496 122L97.4819 59.9833H236.45L276.982 122L236.45 184.017H236.518Z" fill="white"/>
<path d="M71.4787 120.418L66.6259 123.561L100.591 175.48L105.444 172.337L71.4787 120.418Z" fill="white"/>
<path d="M262.565 120.459L228.599 172.378L233.452 175.521L267.418 123.601L262.565 120.459Z" fill="white"/>
<path d="M215.332 67.1677H118.668V72.9288H215.332V67.1677Z" fill="white"/>
<path d="M196.871 136.572C192.784 139.419 188.56 142.74 185.018 140.436C183.996 139.555 185.018 135.759 181.816 133.997C178.683 132.235 175.617 130.879 169.35 130.879C163.083 130.879 157.156 134.607 154.091 136.03C151.707 137.115 150.208 137.996 148.233 138.809C146.189 137.657 146.87 128.032 146.87 124.711C146.87 121.39 147.143 116.442 147.074 114.206C151.57 111.291 156.748 105.395 156.748 99.7012C156.748 95.499 154.159 91.7712 151.162 89.4667C145.031 84.7901 132.565 84.4512 127.387 90.619C125.071 93.3301 124.39 96.6512 125.276 102.073C125.276 102.616 125.752 106.818 125.821 107.36C122.346 110.952 118.395 112.782 118.668 113.799C118.94 114.816 120.643 114.545 122.346 114.273C124.731 114.273 127.66 112.172 129.772 114.612L130.248 141.249C125.003 147.891 123.641 158.6 129.431 164.632C135.221 170.732 139.104 172.562 145.848 172.562H192.239C198.711 172.562 201.776 170.8 206.476 163.141C211.177 155.482 212.676 146.332 214.038 137.318C215.4 128.303 215.809 118.34 214.651 117.527C213.493 116.713 201.912 132.98 196.871 136.505V136.572ZM136.447 105.598C134.676 105.598 133.246 104.175 133.246 102.412C133.246 100.65 134.676 99.2268 136.447 99.2268C138.219 99.2268 139.649 100.65 139.649 102.412C139.649 104.175 138.219 105.598 136.447 105.598Z" fill="white"/>
</g>
<defs>
<clipPath id="clip0_231_591">
<rect width="334" height="244" fill="white"/>
</clipPath>
</defs>
</svg>
