<svg width="271" height="60" viewBox="0 0 271 60" fill="none" xmlns="http://www.w3.org/2000/svg">
<path d="M63.451 0V13.0912H18.3218V0H0V60H18.3218V46.9088H63.451V60H81.7728V0H63.451ZM57.9066 45.2355H23.8803L13.9454 29.993L23.8803 14.7504H57.9066L67.8415 29.993L57.9066 45.2355Z" fill="white"/>
<path d="M17.501 29.611L16.3098 30.3857L24.6235 43.1487L25.8147 42.374L17.501 29.611Z" fill="white"/>
<path d="M64.2712 29.6154L55.9575 42.3784L57.1487 43.1532L65.4624 30.3902L64.2712 29.6154Z" fill="white"/>
<path d="M52.7139 16.522H29.0447V17.9422H52.7139V16.522Z" fill="white"/>
<path d="M48.1969 33.5785C47.1837 34.2816 46.1564 35.0972 45.2839 34.5347C45.0447 34.3097 45.2699 33.3957 44.51 32.9598C43.7501 32.5239 42.9902 32.1865 41.4563 32.1865C39.9225 32.1865 38.4731 33.1004 37.7272 33.452C37.1362 33.7191 36.7703 33.9301 36.2919 34.141C35.7994 33.8598 35.9542 31.4974 35.9682 30.6819C35.9682 29.8663 36.0245 28.643 36.0245 28.0946C37.1221 27.3775 38.3886 25.9291 38.3886 24.523C38.3886 23.4824 37.7554 22.5685 37.0236 22.006C35.5179 20.853 32.4784 20.7827 31.1978 22.2872C30.6349 22.9622 30.466 23.7637 30.6771 25.0995C30.6771 25.2401 30.7897 26.2666 30.8038 26.4072C29.9454 27.2931 28.9885 27.7431 29.0588 27.9962C29.1292 28.2493 29.5373 28.179 29.9595 28.1086C30.5364 28.1086 31.2541 27.6024 31.7888 28.193L31.9014 34.7456C30.6208 36.3908 30.2831 39.0062 31.7044 40.4967C33.1257 41.9872 34.0826 42.4513 35.7149 42.4513H47.0711C48.6612 42.4513 49.4071 42.0154 50.5469 40.1311C51.7008 38.2469 52.0667 36.0112 52.4044 33.7895C52.7421 31.5678 52.8406 29.1211 52.5592 28.9242C52.2637 28.7273 49.4493 32.7208 48.2109 33.5926L48.1969 33.5785ZM33.393 25.9573C32.9568 25.9573 32.6191 25.6057 32.6191 25.1839C32.6191 24.762 32.9709 24.4105 33.393 24.4105C33.8152 24.4105 34.167 24.762 34.167 25.1839C34.167 25.6057 33.8152 25.9573 33.393 25.9573Z" fill="white"/>
<path d="M96.7734 23H102.728V37.0103H111.244V41H96.7734V23.0115V23Z" fill="white"/>
<path d="M114.257 23H120.211V40.9885H114.257V23Z" fill="white"/>
<path d="M142.713 23H148.806L153.792 31.0256L155.938 35.0615H156.076C155.8 33.1243 155.315 30.4145 155.315 28.2005V23H160.992V40.9885H154.899L149.914 32.9398L147.768 28.927H147.629C147.906 30.9795 148.391 33.574 148.391 35.788V40.9885H142.713V23Z" fill="white"/>
<path d="M171.171 23H177.125V29.6996H183.841V23H189.796V40.9885H183.841V33.8507H177.125V40.9885H171.171V23Z" fill="white"/>
<path d="M191.769 23H197.862L199.108 30.8642C199.351 32.7438 199.628 34.6233 199.87 36.5144H200.008C200.424 34.6349 200.839 32.7207 201.255 30.8642L203.401 23H208.386L210.533 30.8642C210.948 32.663 211.364 34.6003 211.779 36.5144H211.918C212.16 34.6003 212.437 32.6976 212.679 30.8642L213.925 23H219.603L215.864 40.9885H208.317L206.586 33.8507C206.24 32.467 205.963 30.968 205.755 29.6419H205.617C205.374 30.968 205.132 32.467 204.786 33.8507L203.124 40.9885H195.716L191.769 23Z" fill="white"/>
<path d="M225.592 23H232.793L239.648 40.9885H233.347L230.785 32.2479C230.231 30.5298 229.678 28.3504 229.124 26.5516H228.985C228.5 28.3735 227.947 30.5413 227.393 32.2479L224.831 40.9885H218.738L225.592 23ZM223.654 33.4933H234.663V37.1717H223.654V33.4933Z" fill="white"/>
<path d="M127.855 23H135.055L141.91 40.9885H135.609L133.048 32.2479C132.494 30.5298 131.94 28.3504 131.386 26.5516H131.247C130.763 28.3735 130.209 30.5413 129.655 32.2479L127.093 40.9885H121L127.855 23ZM125.916 33.4933H136.925V37.1717H125.916V33.4933Z" fill="white"/>
</svg>
