<svg width="214" height="60" viewBox="0 0 214 60" fill="none" xmlns="http://www.w3.org/2000/svg">
<g clip-path="url(#clip0_484_162)">
<path d="M63.2365 0.0249023V13.1052H18.2599V0.0249023H0V59.9753H18.2599V46.8949H63.2365V59.9753H81.4964V0.0249023H63.2365ZM57.7109 45.223H23.7996L13.8983 29.9931L23.7996 14.7631H57.7109L67.6122 29.9931L57.7109 45.223Z" fill="white"/>
<path d="M17.4418 29.6114L16.2546 30.3855L24.5403 43.1379L25.7274 42.3638L17.4418 29.6114Z" fill="white"/>
<path d="M64.054 29.616L55.7684 42.3684L56.9556 43.1425L65.2412 30.3901L64.054 29.616Z" fill="white"/>
<path d="M52.5358 16.5334H28.9465V17.9525H52.5358V16.5334Z" fill="white"/>
<path d="M48.0339 33.5758C47.0241 34.2783 46.0003 35.0932 45.1308 34.5312C44.8924 34.3064 45.1168 33.3932 44.3595 32.9576C43.6021 32.5221 42.8448 32.1849 41.3162 32.1849C39.7875 32.1849 38.343 33.0981 37.5997 33.4494C37.0106 33.7163 36.646 33.9271 36.1692 34.1378C35.6783 33.8568 35.8326 31.4964 35.8466 30.6816C35.8466 29.8667 35.9027 28.6443 35.9027 28.0964C36.9966 27.3799 38.2588 25.9327 38.2588 24.5278C38.2588 23.4881 37.6277 22.5748 36.8984 22.0129C35.3978 20.8608 32.3685 20.7905 31.0923 22.2939C30.5313 22.9682 30.363 23.7691 30.5734 25.1038C30.5734 25.2443 30.6856 26.2699 30.6996 26.4104C29.8441 27.2956 28.8904 27.7452 28.9606 27.9981C29.0307 28.251 29.4374 28.1807 29.8581 28.1105C30.4331 28.1105 31.1484 27.6047 31.6813 28.1948L31.7935 34.7419C30.5173 36.3858 30.1807 38.999 31.5972 40.4883C33.0136 41.9776 33.9673 42.4412 35.5942 42.4412H46.9119C48.4967 42.4412 49.24 42.0057 50.376 40.123C51.526 38.2403 51.8906 36.0064 52.2272 33.7866C52.5638 31.5667 52.662 29.122 52.3815 28.9253C52.087 28.7286 49.2821 32.7188 48.0479 33.5899L48.0339 33.5758ZM33.2801 25.9608C32.8453 25.9608 32.5088 25.6096 32.5088 25.1881C32.5088 24.7666 32.8594 24.4154 33.2801 24.4154C33.7008 24.4154 34.0515 24.7666 34.0515 25.1881C34.0515 25.6096 33.7008 25.9608 33.2801 25.9608Z" fill="white"/>
<path d="M104.525 33.899L104.679 35.9362C102.631 36.3156 100.528 36.7089 98.8026 37.018L98.3398 34.8403C99.9386 34.6296 102.253 34.2783 104.525 33.899ZM105.675 23.3757H98.6624V21.1559H105.675V23.3757ZM101.411 35.3602H99.4197V22.336H101.411V35.3602ZM104.398 27.6047H100.822V25.5815H104.398V27.6047ZM104.398 31.8196H100.822V29.7965H104.398V31.8196ZM105.044 39.8561H102.968V22.336H105.044V39.8561ZM105.226 28.4196C105.591 28.3493 105.983 27.9981 106.446 27.4642C106.937 26.9444 108.494 24.9633 109.503 22.9261L111.144 23.8113C109.826 25.989 108.227 28.0824 106.797 29.4171V29.4733C106.797 29.4733 105.745 30.1337 105.745 30.5833C105.661 30.1056 105.408 29.0378 105.226 28.4336V28.4196ZM105.296 24.4857C105.576 24.4014 105.857 24.1485 106.151 23.7551C106.446 23.3757 107.414 21.9426 107.975 20.4534L109.728 21.198C108.928 22.8559 107.82 24.5138 106.895 25.4832V25.5394C106.895 25.5394 105.871 26.2278 105.871 26.7196C105.787 26.2138 105.506 25.1038 105.31 24.4997L105.296 24.4857ZM106.432 28.6022L110.766 28.1948C110.766 28.6725 110.836 29.3328 110.892 29.7262C106.726 30.218 106.095 30.3585 105.745 30.5692V29.1783L106.432 28.6022ZM106.516 24.865L109.265 24.7385C109.167 25.1881 109.027 25.8625 108.984 26.2278C106.628 26.4245 106.123 26.551 105.843 26.7055V25.3848L106.502 24.865H106.516ZM107.203 39.9544C106.965 39.4908 106.278 38.5916 105.913 38.2544C108.676 37.0742 109.027 35.4164 109.027 33.8568V30.794H111.088V33.913C111.088 36.0627 110.415 38.5354 107.217 39.9544H107.203ZM108.031 35.88H106.053V30.8221H108.031V35.88ZM110.345 35.88H106.572V33.8006H110.345V35.88ZM111.691 30.3023L110.219 30.7659C110.036 29.8667 109.63 28.3353 109.279 27.2113L110.695 26.8601C111.088 27.9559 111.509 29.4452 111.705 30.3023H111.691ZM111.256 24.5559C111.537 24.4857 111.803 24.2468 112.084 23.8815C112.378 23.5162 113.36 22.1112 113.907 20.636L115.464 21.4509C114.692 22.9823 113.669 24.5138 112.813 25.427V25.4691C112.813 25.4691 111.775 26.1154 111.775 26.5791C111.691 26.1295 111.439 25.1038 111.256 24.5559ZM111.551 28.5039C111.902 28.4196 112.266 28.0683 112.687 27.5204C113.122 27.0006 114.524 24.9633 115.408 22.898L116.992 23.727C115.87 25.8906 114.496 28.0262 113.22 29.4031V29.4452C113.22 29.4452 112.07 30.1056 112.07 30.5692C111.986 30.1056 111.733 29.0518 111.551 28.4898V28.5039ZM112.448 24.7385L115.155 24.6121C115.029 25.0476 114.917 25.7361 114.875 26.1014C112.561 26.2981 112.042 26.4245 111.761 26.5791V25.2584L112.434 24.7385H112.448ZM114.047 39.842H111.93V30.794H114.047V39.842ZM112.729 28.6022L117.02 27.9981C117.035 28.4758 117.119 29.1502 117.175 29.5014C113.038 30.1899 112.42 30.3585 112.07 30.5833L112.042 29.1642L112.743 28.5882L112.729 28.6022ZM116.221 35.866H113.094V33.7444H116.221V35.866ZM117.077 36.5825H115.071V30.9485H117.077V36.5825ZM118.044 30.0775L116.6 30.6675C116.375 29.7543 115.87 28.2229 115.45 27.0989L116.824 26.6493C117.273 27.7452 117.806 29.2204 118.058 30.0915L118.044 30.0775Z" fill="white"/>
<path d="M141.813 34.2501H122.936V32.1145H141.813V34.2501ZM131.968 23.7268H123.048V21.5631H131.968V23.7268ZM130.229 30.7657H123.427V28.6723H130.229V30.7657ZM141.238 27.4078H123.455V25.3706H141.238V27.4078ZM140.439 37.3551H124.142V35.3178H140.439V37.3551ZM128.322 31.7633H126.022V27.7731H128.322V31.7633ZM129.892 24.907H127.466V20.3689H129.892V24.907ZM133.483 39.8419H131.014V26.1715H133.483V39.8419ZM141.589 23.7268H132.669V21.5631H141.589V23.7268ZM141.112 30.6533H134.31V28.5599H141.112V30.6533ZM137.073 24.907H134.647V20.3689H137.073V24.907ZM138.63 31.7633H136.33V27.7731H138.63V31.7633Z" fill="white"/>
<path d="M147.779 37.1022C147.499 36.5823 146.91 35.7674 146.461 35.3179C149.743 34.8823 153.137 33.8145 154.848 32.3533L156.755 33.1823C154.693 35.0931 151.229 36.498 147.779 37.1022ZM148.368 24.3309C148.004 24.0359 147.204 23.6144 146.755 23.3896C147.457 22.5888 148.032 21.4648 148.368 20.411L150.191 20.8606C149.757 22.1251 149.041 23.4739 148.368 24.3309ZM157.148 25.7921H146.755V24.1202H157.148V25.7921ZM165.492 33.5476H146.798V31.5947H165.492V33.5476ZM155.633 28.026H149.462V30.6112H147.583V26.5227H155.633V28.026ZM156.601 23.3053H148.396L149.027 21.7177H156.587V23.3053H156.601ZM150.009 38.2543C150.402 37.9733 150.949 37.4534 150.949 36.3575V34.7699H153.179V37.5799C153.179 37.5799 150.823 39.0691 150.823 39.9402C150.696 39.4344 150.304 38.5774 150.023 38.2543H150.009ZM151.538 37.6361L157.077 36.484C156.979 37.046 156.923 37.889 156.923 38.3386C151.959 39.4766 151.243 39.6733 150.809 39.9402L150.71 38.2964L151.538 37.6361ZM153.179 31.0889H151.061V20.3689H153.179V31.0889ZM156.18 30.288C155.675 30.5269 155.002 30.5269 154.104 30.5269C154.006 30.0492 153.712 29.4872 153.515 29.0938C153.992 29.1079 154.469 29.1079 154.623 29.1079C154.791 29.1079 154.862 29.0517 154.862 28.8971V26.5227H156.853V28.8831C156.853 29.6839 156.713 30.0492 156.18 30.3021V30.288ZM158.059 32.1567L155.605 32.8872C155.479 32.2691 155.114 31.2715 154.749 30.5269L157.063 29.8806C157.47 30.569 157.891 31.5244 158.059 32.1707V32.1567ZM165.871 37.622C165.408 38.0857 164.819 38.9989 164.525 39.589C159.826 38.7038 157.162 36.4418 155.647 32.5219L157.681 32.0864C158.887 35.1493 161.565 36.9898 165.885 37.622H165.871ZM160.57 28.2789H158.354V21.4086H160.57V28.2789ZM160.626 36.8633L159.125 35.641C160.359 35.079 162.042 34.0534 163.038 33.2947L164.805 34.6013C163.501 35.4724 161.874 36.3154 160.626 36.8633ZM163.683 30.7517C162.94 31.0608 161.916 31.0748 160.485 31.0748C160.373 30.4847 160.051 29.6558 159.77 29.1079C160.696 29.15 161.706 29.15 162 29.1219C162.295 29.1219 162.393 29.0376 162.393 28.7847V20.5234H164.637V28.8269C164.637 29.8946 164.426 30.4145 163.683 30.7376V30.7517Z" fill="white"/>
<path d="M172.231 40.0152C171.909 39.4392 171.235 38.5541 170.745 38.0764C173.914 37.416 177.322 35.983 179.089 34.297L180.898 35.1259C178.879 37.3317 175.457 39.1301 172.231 40.0152ZM171.278 28.0448C171.558 27.9886 171.853 27.7357 172.119 27.3845C172.414 27.0333 173.339 25.6985 173.858 24.3638L175.611 25.0101C174.854 26.4151 173.774 27.8762 172.848 28.7754V28.8176C172.848 28.8176 171.867 29.3515 171.867 29.7027C171.782 29.3515 171.502 28.5085 171.292 28.0589L171.278 28.0448ZM180.169 23.563H171.278V21.4976H180.169V23.563ZM189.804 35.5193H171.334V33.6366H189.804V35.5193ZM171.6 31.4168C171.979 31.3465 172.329 30.9953 172.778 30.5035C173.227 29.9978 174.7 28.0729 175.597 26.2043L177.308 27.0052C176.144 28.93 174.587 30.8829 173.143 32.2036V32.2598C173.143 32.2598 172.203 32.8077 172.203 33.1449C172.119 32.7937 171.839 31.9085 171.628 31.4308L171.6 31.4168ZM172.61 27.8903L175.429 27.7357C175.204 28.1713 174.91 28.8457 174.798 29.225C172.68 29.4217 172.161 29.5482 171.853 29.6887L171.825 28.3961L172.624 27.8903H172.61ZM172.904 31.3325L176.214 31.0374C176.284 31.5011 176.439 32.1052 176.551 32.4565C173.157 32.8358 172.54 32.9623 172.189 33.1309L172.147 31.8383L172.918 31.3325H172.904ZM177.504 24.6026H175.036V20.5142H177.504V24.6026ZM177.364 32.9201L175.793 33.3416C175.779 32.3722 175.471 30.8688 175.078 29.7308L176.551 29.3515C176.986 30.4754 177.294 31.9647 177.364 32.9342V32.9201ZM183.815 32.611H177.448V25.3192H183.815V32.611ZM180.856 26.5977L178.977 26.1481C179.215 25.4878 179.482 24.5745 179.594 23.9423L182.006 24.3638C181.572 25.2349 181.179 26.0217 180.87 26.5977H180.856ZM181.768 40.0012H179.3V32.2457H181.768V40.0012ZM181.796 28.1853V26.9771H179.37V28.1853H181.796ZM181.796 30.9531V29.7168H179.37V30.9531H181.796ZM190.309 38.0904C189.804 38.54 189.131 39.4392 188.794 40.0152C185.779 39.088 182.231 37.2053 180.127 35.154L181.726 34.3391C183.619 35.9127 187.237 37.3879 190.309 38.0764V38.0904ZM189.874 23.563H180.912V21.4976H189.874V23.563ZM186.2 24.6026H183.731V20.5142H186.2V24.6026ZM183.815 28.0027C184.082 27.9465 184.348 27.7076 184.587 27.3423C184.839 26.9911 185.639 25.6704 186.073 24.3638L187.798 24.9679C187.167 26.3589 186.2 27.806 185.372 28.7192V28.7614C185.372 28.7614 184.39 29.2953 184.39 29.6465C184.292 29.2953 184.012 28.4523 183.815 28.0027ZM184.082 31.3887C184.447 31.3184 184.811 30.9812 185.274 30.4614C185.723 29.9697 187.237 28.0167 188.135 26.12L189.874 26.9068C188.682 28.8597 187.083 30.8548 185.611 32.1755V32.2317C185.611 32.2317 184.657 32.7796 184.657 33.1168C184.573 32.7656 184.278 31.8804 184.082 31.3887ZM185.148 27.8481L188.023 27.6795C187.77 28.1291 187.49 28.8176 187.364 29.1829C185.204 29.3796 184.671 29.506 184.376 29.6465L184.348 28.3399L185.148 27.8481ZM185.372 31.3044L188.822 30.9953C188.892 31.4449 189.033 32.0631 189.145 32.4143C185.625 32.8218 185.022 32.9482 184.657 33.1168L184.615 31.8102L185.386 31.3184L185.372 31.3044ZM190.126 32.878L188.556 33.3556C188.486 32.33 188.107 30.7986 187.644 29.6184L189.089 29.1969C189.608 30.349 190.014 31.8804 190.126 32.878Z" fill="white"/>
<path d="M196.908 39.7998C196.515 39.3642 195.533 38.6196 195.028 38.3808C196.361 35.5427 196.459 31.4402 196.459 28.4897V22.1954H198.703V28.4897C198.703 31.7493 198.436 36.6667 196.908 39.7998ZM214.368 24.2888H197.945V22.2095H214.368V24.2888ZM201.732 27.8575L200.105 28.6443C199.923 27.8996 199.334 26.7476 198.745 25.9186L200.259 25.2161C200.877 26.017 201.508 27.1128 201.718 27.8715L201.732 27.8575ZM206.066 30.7096H200.834V39.575H199.152V28.9112H206.066V30.7096ZM202.574 37.2006H201.536V31.665H202.574V37.2006ZM204.677 36.5683H202.041V35.0369H203.639V33.1823H202.041V31.6509H204.677V36.5543V36.5683ZM204.116 30.0773H202.041V24.7244H204.116V30.0773ZM206.458 39.2097C205.869 39.4907 205.042 39.5328 203.85 39.5047C203.78 38.9989 203.555 38.2403 203.331 37.7485C204.102 37.7626 204.874 37.7626 205.098 37.7626C205.35 37.7626 205.42 37.6923 205.42 37.4675V28.9112H207.188V37.5097C207.188 38.3808 207.061 38.9006 206.472 39.2097H206.458ZM207.314 21.9706L204.986 22.9401C204.845 22.364 204.425 21.4789 204.032 20.8466L206.248 20.0037C206.683 20.6078 207.117 21.4227 207.314 21.9706ZM205.631 28.6443L204.088 28.0963C204.593 27.3095 205.224 26.0451 205.547 25.174L207.426 25.7641C206.823 26.8037 206.164 27.9137 205.631 28.6443ZM207.959 32.9294C207.622 32.5361 206.809 31.7774 206.332 31.4402C207.538 29.8104 208.324 27.2533 208.73 24.6541L210.848 25.0475C210.301 28.0682 209.319 31.0187 207.959 32.9154V32.9294ZM207.706 39.9824C207.44 39.5328 206.879 38.7601 206.486 38.3808C210.035 36.3857 211.297 32.3956 211.703 28.4757L213.821 28.7005C213.162 33.2385 211.661 37.7064 207.692 39.9824H207.706ZM214.789 38.0998C214.326 38.4932 213.667 39.294 213.344 39.87C210.343 37.9171 208.828 34.0253 208.015 29.3889L209.642 29.0798C210.385 33.0559 211.956 36.5543 214.789 38.1138V38.0998ZM214.452 29.4873H209.053V27.4641H214.452V29.4873Z" fill="white"/>
</g>
<defs>
<clipPath id="clip0_484_162">
<rect width="214" height="59.9504" fill="white" transform="translate(0 0.0249023)"/>
</clipPath>
</defs>
</svg>
