<svg width="269" height="281" viewBox="0 0 269 281" fill="none" xmlns="http://www.w3.org/2000/svg">
<path d="M104.945 0.69812H20.7213C9.27724 0.69812 0 10 0 21.4745V111.834C0 123.309 9.27724 132.611 20.7213 132.611H104.945C116.389 132.611 125.666 123.309 125.666 111.834V21.4745C125.666 10 116.389 0.69812 104.945 0.69812Z" fill="#ED6F60"/>
<path d="M64.997 109.598H61.497V110.34H64.997V109.598ZM61.441 111.936H64.997V111.152H61.483C61.469 111.404 61.455 111.67 61.441 111.936ZM65.361 114.344H62.351V115.604H65.361V114.344ZM66.173 112.874H61.357C61.329 113.056 61.301 113.238 61.273 113.42H66.509V117.074H65.361V116.598H62.351V117.102H61.245V113.588C61.049 114.666 60.727 115.758 60.181 116.654C59.943 116.472 59.383 116.22 59.061 116.108C60.153 114.386 60.279 112.006 60.279 110.424V108.66H66.173V112.874ZM63.093 104.39L64.283 104.838C64.213 104.964 64.129 105.076 64.045 105.202C65.109 105.832 66.341 106.588 66.999 107.092L66.327 108.184C65.655 107.638 64.395 106.812 63.317 106.126C62.953 106.518 62.561 106.896 62.141 107.246H64.815V108.058H61.917V107.442C61.245 107.988 60.503 108.464 59.775 108.856C59.649 108.562 59.299 107.918 59.075 107.638C60.657 106.91 62.225 105.748 63.093 104.39ZM68.777 105.832V113.532H67.559V105.832H68.777ZM70.121 104.39H71.381V115.548C71.381 116.304 71.213 116.682 70.765 116.878C70.331 117.102 69.603 117.144 68.469 117.144C68.413 116.794 68.231 116.206 68.049 115.842C68.847 115.87 69.575 115.87 69.799 115.856C70.037 115.856 70.121 115.786 70.121 115.534V104.39ZM80.113 105.762V106.84H73.953V105.762H76.515C76.361 105.37 76.179 104.922 76.011 104.572L77.299 104.236C77.537 104.712 77.817 105.3 77.999 105.762H80.113ZM74.933 112.958L75.955 113.266C75.605 114.246 75.045 115.366 74.541 116.08C74.331 115.912 73.911 115.604 73.645 115.464C74.163 114.806 74.639 113.854 74.933 112.958ZM80.141 112.356H77.761V117.102H76.501V112.356H73.813V111.25H76.501V109.976H73.729V108.884H75.255C75.199 108.408 75.003 107.68 74.765 107.134L75.829 106.868C76.053 107.414 76.277 108.128 76.347 108.59L75.311 108.884H77.523C77.775 108.296 78.069 107.442 78.209 106.854L79.413 107.106C79.175 107.722 78.937 108.366 78.699 108.884H80.337V109.976H77.761V111.25H80.141V112.356ZM78.251 113.322L79.119 112.846C79.581 113.504 80.057 114.386 80.281 114.946L79.371 115.492C79.147 114.904 78.671 113.994 78.251 113.322ZM86.483 108.982V110.186H85.055V117.116H83.781V110.186H82.143V110.522C82.143 112.538 81.961 115.338 80.715 117.116C80.519 116.878 79.987 116.486 79.721 116.346C80.827 114.722 80.925 112.356 80.925 110.522V105.678C82.479 105.412 84.201 104.978 85.209 104.544L86.231 105.496C85.083 105.944 83.571 106.28 82.143 106.532V108.982H86.483ZM91.925 114.316V110.466H90.301V114.316H91.925ZM88.299 106.224V105.048H93.255V106.224H91.155C90.945 107.288 90.679 108.324 90.343 109.304H93.045V115.464H90.301V116.542H89.209V111.81C88.999 112.16 88.789 112.482 88.551 112.776C88.495 112.44 88.229 111.656 88.033 111.306C88.957 110.06 89.559 108.212 89.923 106.224H88.299ZM96.265 110.032H98.239V106.28H96.265V110.032ZM100.997 110.032V111.264H99.485V117.186H98.239V111.264H96.251C96.181 113.364 95.817 115.688 94.305 117.256C94.081 117.046 93.605 116.668 93.311 116.5C94.641 115.114 94.963 113.056 95.033 111.264H93.591V110.032H95.047V106.28H93.969V105.062H100.717V106.28H99.485V110.032H100.997ZM112.641 113.42H109.225C109.925 113.798 110.737 114.232 111.521 114.694C111.955 114.316 112.333 113.896 112.641 113.42ZM113.439 112.468L114.167 112.734C113.789 113.77 113.215 114.596 112.487 115.254C113.173 115.66 113.803 116.052 114.251 116.36L113.579 117.214C113.089 116.85 112.389 116.402 111.605 115.926C110.695 116.514 109.631 116.92 108.455 117.2C108.343 116.906 108.091 116.486 107.881 116.248C108.875 116.066 109.785 115.744 110.583 115.31C109.869 114.876 109.141 114.456 108.497 114.092L109.085 113.42H108.595V112.496H113.243L113.439 112.468ZM114.237 105.818L115.189 106.476C114.629 106.98 113.943 107.512 113.355 107.918C114.027 108.282 114.769 108.59 115.567 108.8C115.315 109.038 114.965 109.514 114.783 109.822C114.139 109.626 113.523 109.36 112.963 109.038V110.62C112.963 110.942 113.005 111.04 113.201 111.04H114.069C114.265 111.04 114.601 111.026 114.755 110.984C114.769 111.25 114.797 111.628 114.839 111.894C114.685 111.95 114.377 111.964 114.097 111.964H113.075C112.095 111.964 111.899 111.572 111.899 110.606V109.5H110.261V109.556C110.261 110.494 109.981 111.614 108.749 112.328C108.595 112.132 108.217 111.768 107.965 111.586V111.81H105.109C105.053 112.216 104.997 112.636 104.927 113.014H107.993C107.993 113.014 107.979 113.35 107.951 113.504C107.783 115.436 107.629 116.276 107.279 116.64C107.013 116.906 106.719 116.99 106.285 117.018C105.907 117.06 105.193 117.046 104.437 117.018C104.409 116.682 104.255 116.22 104.045 115.912C104.787 115.982 105.515 115.996 105.795 115.996C106.033 115.996 106.173 115.982 106.299 115.87C106.481 115.702 106.621 115.17 106.733 113.994H103.667C103.849 113.14 104.059 111.852 104.171 110.816H106.803V109.556H104.633V109.36C104.157 109.598 103.667 109.808 103.191 109.976C103.037 109.696 102.729 109.234 102.491 109.01C103.373 108.744 104.269 108.324 105.053 107.806C104.661 107.456 104.087 107.05 103.611 106.756L104.353 106.056C104.871 106.35 105.515 106.784 105.935 107.134C106.369 106.77 106.733 106.35 107.041 105.916H104.017V104.88H107.727L107.937 104.838L108.763 105.23C108.161 106.602 107.167 107.694 105.991 108.534H107.965V111.488C109.001 110.914 109.155 110.186 109.155 109.528V108.478H112.067C110.723 107.512 109.687 106.238 108.987 104.698L110.023 104.39C110.275 104.922 110.583 105.426 110.947 105.902C111.507 105.468 112.151 104.88 112.529 104.432L113.467 105.104C112.879 105.65 112.179 106.196 111.591 106.602C111.871 106.882 112.165 107.12 112.487 107.358C113.089 106.91 113.803 106.266 114.237 105.818Z" fill="#0B0B0B"/>
<path d="M38.8525 72.264V80.8948C38.8525 84.9722 42.142 88.2704 46.2085 88.2704C50.2751 88.2704 53.5646 84.9722 53.5646 80.8948V72.264M46.2085 14.5231V18.2109M13.1063 51.4011H9.42822M22.3013 27.4304L20.0911 25.2142M70.1157 27.4304L72.326 25.2142M82.9888 51.4011H79.3108M68.2767 51.4011C68.2767 63.6245 58.3995 73.5279 46.2085 73.5279C34.0175 73.5279 24.1403 63.6245 24.1403 51.4011C24.1403 39.1777 34.0175 29.2743 46.2085 29.2743C58.3995 29.2743 68.2767 39.1777 68.2767 51.4011Z" stroke="white" stroke-width="2.77981" stroke-linecap="round" stroke-linejoin="round"/>
<path d="M247.366 148.668H163.143C151.699 148.668 142.421 157.97 142.421 169.444V259.804C142.421 271.279 151.699 280.58 163.143 280.58H247.366C258.81 280.58 268.087 271.279 268.087 259.804V169.444C268.087 157.97 258.81 148.668 247.366 148.668Z" fill="#AECAF2"/>
<path d="M211.167 254.026L210.271 254.558C210.019 254.096 209.445 253.368 208.941 252.864L209.795 252.388C210.299 252.864 210.901 253.55 211.167 254.026ZM202.837 254.614V255.65H198.315V254.614H200.541C200.317 254.11 199.869 253.354 199.435 252.822L200.471 252.318C200.961 252.85 201.451 253.592 201.675 254.096L200.695 254.614H202.837ZM202.473 256.518V257.54H198.861V256.518H202.473ZM198.861 259.402V258.38H202.473V259.402H198.861ZM201.409 263.35V261.32H199.883V263.35H201.409ZM209.865 256.98L210.957 257.414C210.537 259.108 209.921 260.648 209.179 261.978C209.403 263.042 209.683 263.658 210.047 263.686C210.285 263.7 210.425 262.93 210.509 261.642C210.719 261.88 211.195 262.188 211.405 262.3C211.097 264.624 210.523 265.184 210.019 265.17C209.263 265.142 208.731 264.456 208.353 263.252C207.835 263.966 207.275 264.596 206.687 265.114C206.505 264.918 206.155 264.582 205.861 264.442C206.673 263.77 207.387 262.888 208.017 261.838C207.751 260.312 207.597 258.31 207.513 255.972H204.559V257.708H206.981V258.184C206.925 261.39 206.869 262.636 206.589 263.014C206.379 263.28 206.183 263.392 205.875 263.448C205.595 263.476 205.161 263.504 204.671 263.476C204.657 263.112 204.545 262.622 204.377 262.3C204.783 262.342 205.133 262.342 205.273 262.342C205.441 262.342 205.553 262.314 205.637 262.174C205.777 261.964 205.833 261.124 205.889 258.772H204.559C204.531 260.704 204.321 263.406 203.327 265.198C203.131 264.96 202.627 264.554 202.361 264.414L202.389 264.372H199.883V264.988H198.847V260.284H202.459V264.218C203.285 262.496 203.369 260.158 203.369 258.464V254.81H207.485C207.457 254.012 207.443 253.186 207.429 252.318H208.577C208.577 253.172 208.577 254.012 208.605 254.81H211.111V255.972H208.633C208.689 257.526 208.773 258.926 208.913 260.088C209.305 259.136 209.641 258.086 209.865 256.98ZM215.867 252.36L217.043 252.71C216.721 253.592 216.329 254.502 215.909 255.356V265.184H214.719V257.428C214.341 258.016 213.935 258.534 213.543 258.996C213.417 258.716 213.053 258.044 212.843 257.75C214.061 256.434 215.181 254.39 215.867 252.36ZM223.581 261.656H218.667V263.588H223.581V261.656ZM217.561 265.142V260.606H224.729V265.1H223.581V264.638H218.667V265.142H217.561ZM217.757 259.584V258.548H224.575V259.584H217.757ZM224.575 256.574V257.61H217.757V256.574H224.575ZM221.047 254.544H225.639V255.608H216.763V254.544H220.865C220.669 254.04 220.277 253.284 219.927 252.724L221.047 252.29C221.425 252.85 221.845 253.606 222.055 254.11L221.047 254.544ZM240.069 256.182V257.12H227.693V256.182H233.209V255.482H229.121V254.67H233.209V254.012H228.477V253.116H233.209V252.304H234.539V253.116H239.425V254.012H234.539V254.67H238.823V255.482H234.539V256.182H240.069ZM230.647 261.544V262.314H237.227V261.544H230.647ZM230.647 260.046V260.802H237.227V260.046H230.647ZM230.647 258.534V259.276H237.227V258.534H230.647ZM238.543 263.112H235.995C237.465 263.56 239.131 264.12 240.111 264.526L238.571 265.156C237.759 264.75 236.303 264.19 234.847 263.742L235.925 263.112H231.809L232.873 263.602C231.739 264.246 229.975 264.848 228.575 265.198C228.365 264.946 227.917 264.456 227.623 264.246C229.023 264.008 230.647 263.588 231.627 263.112H229.387V257.736H238.543V263.112ZM245.357 252.402L246.645 252.808C246.239 253.788 245.749 254.768 245.203 255.692V265.114H243.915V257.61C243.453 258.226 242.949 258.786 242.459 259.262C242.319 258.954 241.927 258.24 241.675 257.918C243.131 256.602 244.531 254.53 245.357 252.402ZM254.849 259.5H251.083V263.392H254.541V264.638H246.365V263.392H249.767V259.5H245.945V258.24H249.767V254.838H246.813V253.606H254.289V254.838H251.083V258.24H254.849V259.5Z" fill="#0B0B0B"/>
<path d="M172.234 219.836H180.315C181.369 219.836 182.413 219.965 183.441 220.217L191.988 222.294C193.845 222.744 195.77 222.788 197.644 222.424L207.089 220.58C209.584 220.095 211.881 218.892 213.677 217.143L220.359 210.625C222.267 208.764 222.267 205.751 220.359 203.89C218.641 202.21 215.921 202.029 213.979 203.448L206.191 209.144C205.077 209.958 203.722 210.4 202.323 210.4H194.803H199.595C202.297 210.4 204.482 208.27 204.482 205.638V204.686C204.482 202.505 202.953 200.592 200.786 200.063L193.396 198.263C192.196 197.969 190.961 197.821 189.726 197.821C186.739 197.821 181.326 200.306 181.326 200.306L172.243 204.115M159.844 202.799V220.814C159.844 222.554 159.844 223.42 160.181 224.086C160.475 224.675 160.95 225.142 161.537 225.445C162.202 225.783 163.065 225.783 164.8 225.783H167.278C169.014 225.783 169.877 225.783 170.542 225.445C171.129 225.151 171.595 224.675 171.897 224.086C172.234 223.42 172.234 222.554 172.234 220.814V202.799C172.234 201.059 172.234 200.193 171.897 199.527C171.604 198.947 171.129 198.471 170.542 198.168C169.877 197.83 169.014 197.83 167.278 197.83H164.8C163.065 197.83 162.202 197.83 161.537 198.168C160.95 198.462 160.483 198.938 160.181 199.527C159.844 200.193 159.844 201.059 159.844 202.799ZM206.899 168.613C205.051 164.735 200.786 162.683 196.642 164.666C192.498 166.648 190.728 171.349 192.463 175.478C193.534 178.032 196.608 182.984 198.801 186.394C199.612 187.658 200.018 188.29 200.605 188.654C201.114 188.974 201.745 189.139 202.34 189.121C203.04 189.095 203.705 188.758 205.034 188.065C208.634 186.204 213.763 183.46 215.965 181.78C219.53 179.071 220.411 174.102 217.743 170.319C215.075 166.536 210.43 166.163 206.89 168.596L206.899 168.613Z" stroke="white" stroke-width="2.77981" stroke-linecap="round" stroke-linejoin="round"/>
<path d="M104.945 148.705H20.7213C9.27724 148.705 0 158.007 0 169.481V259.841C0 271.315 9.27724 280.617 20.7213 280.617H104.945C116.389 280.617 125.666 271.315 125.666 259.841V169.481C125.666 158.007 116.389 148.705 104.945 148.705Z" fill="#F7CCDB"/>
<path d="M58.5676 252.397L59.7856 252.733C59.5056 253.601 59.1696 254.483 58.8056 255.337V265.193H57.5596V257.773C57.2096 258.347 56.8736 258.851 56.5096 259.299C56.3976 258.991 56.0476 258.263 55.8376 257.927C56.9576 256.569 57.9656 254.483 58.5676 252.397ZM62.5296 262.267L62.4036 262.379C62.8796 262.701 63.4536 262.995 64.0836 263.247C64.8116 262.953 65.3996 262.617 65.8476 262.267H62.5296ZM66.8836 261.399L67.6956 261.847C67.2196 262.575 66.4776 263.177 65.5116 263.681C66.5196 263.947 67.6256 264.115 68.8156 264.213C68.5916 264.451 68.3116 264.899 68.1716 265.207C66.6736 265.039 65.2876 264.745 64.0836 264.297C62.9076 264.717 61.5216 265.025 59.9256 265.235C59.8136 264.941 59.5336 264.549 59.2956 264.283C60.5696 264.143 61.7176 263.947 62.6976 263.681C62.2916 263.457 61.8996 263.233 61.5496 262.953C61.1576 263.205 60.7096 263.429 60.2336 263.653C60.0656 263.401 59.7436 263.065 59.4916 262.897C59.9536 262.701 60.4016 262.505 60.7936 262.281C60.5976 262.085 60.4436 261.875 60.2756 261.679L61.2416 261.315C61.3676 261.469 61.4936 261.609 61.6336 261.749C62.0536 261.441 62.4176 261.147 62.6976 260.825C62.3336 260.685 62.2216 260.419 62.2216 259.887V259.691C61.8856 260.181 61.4376 260.741 60.8916 261.091L60.1496 260.503C60.6956 260.181 61.2136 259.607 61.5356 259.117L62.2216 259.481V259.145H63.2716V259.887C63.2716 260.153 63.3556 260.195 63.7756 260.195H65.2736C65.5816 260.195 65.6516 260.111 65.6936 259.649C65.8756 259.761 66.2396 259.859 66.5056 259.915C66.3516 259.775 66.1976 259.621 66.0716 259.495L66.7716 259.075C67.3176 259.537 67.9896 260.209 68.2976 260.657L67.5836 261.147C67.3596 260.811 66.9536 260.363 66.5476 259.943C66.4636 260.699 66.1696 260.937 65.4136 260.937H63.9156C63.7896 261.119 63.6216 261.287 63.4536 261.455H66.6736L66.8836 261.399ZM62.0816 257.465V257.997H66.3936V257.465H62.0816ZM66.3936 255.211H62.0816V255.729H66.3936V255.211ZM66.3936 256.863V256.317H62.0816V256.863H66.3936ZM67.6116 257.997H68.8576V259.901H67.6956V258.767H64.3636C64.7416 259.033 65.1616 259.341 65.3856 259.579L64.6436 260.041C64.3916 259.761 63.8596 259.327 63.4256 259.047L63.8876 258.767H60.7096V259.915H59.5896V257.997H60.9196V254.511H63.2856C63.3416 254.301 63.3836 254.105 63.4256 253.895H59.9676V252.929H68.6196V253.895H64.7976L64.5456 254.511H67.6116V257.997ZM73.7256 257.199V258.627H80.1936V257.199H73.7256ZM80.1936 254.805H73.7256V256.149H80.1936V254.805ZM81.4396 259.887L82.5176 260.713C81.7056 261.343 80.6696 262.001 79.7596 262.519C80.7536 263.135 81.9296 263.583 83.2736 263.863C82.9936 264.143 82.6156 264.675 82.4476 265.025C79.2276 264.241 76.9736 262.463 75.6576 259.775H73.7256V263.527L76.9736 262.757C76.9736 263.121 77.0436 263.681 77.1136 263.961C73.2776 264.913 72.7036 265.053 72.3396 265.277C72.2136 264.983 71.8496 264.479 71.6256 264.255C71.9336 264.045 72.3816 263.597 72.3816 262.897V253.657H76.3996C76.3016 253.279 76.1476 252.859 76.0076 252.523L77.3376 252.229C77.5476 252.649 77.7436 253.209 77.8696 253.657H81.5236V259.775H77.0296C77.4636 260.531 78.0376 261.217 78.7236 261.791C79.6756 261.245 80.7396 260.489 81.4396 259.887ZM94.0776 256.457V254.175H88.8276V256.457H94.0776ZM95.4076 252.929V257.703H87.5816V252.929H95.4076ZM89.3876 260.307H86.8396V263.219H89.3876V260.307ZM85.6076 265.193V259.061H90.6756V265.095H89.3876V264.465H86.8396V265.193H85.6076ZM93.2936 263.219H96.0656V260.307H93.2936V263.219ZM92.0476 259.061H97.3676V265.123H96.0656V264.465H93.2936V265.193H92.0476V259.061ZM103.188 255.407H101.704C101.536 256.135 101.144 256.863 100.43 257.437C100.276 257.199 99.7996 256.751 99.5756 256.597C100.584 255.827 100.738 254.847 100.738 254.063V252.999C102.194 252.901 103.888 252.691 104.812 252.383L105.582 253.167C104.602 253.489 103.188 253.699 101.872 253.797V254.077C101.872 254.175 101.872 254.287 101.858 254.413H105.806V255.407H104.336V256.961H103.188V255.407ZM102.796 261.287V262.127H109.054V261.287H102.796ZM102.796 259.677V260.489H109.054V259.677H102.796ZM102.796 258.067V258.893H109.054V258.067H102.796ZM110.37 262.953H107.962C109.46 263.359 111.042 263.905 112.05 264.311L111.434 265.249C110.44 264.787 108.816 264.185 107.248 263.737L107.738 262.953H103.874L104.812 263.485C103.65 264.143 101.816 264.857 100.416 265.277C100.304 265.025 99.9676 264.423 99.7856 264.171C101.088 263.891 102.74 263.429 103.79 262.953H101.536V257.241H110.37V262.953ZM107.486 254.413H112.162V255.407H110.076V257.003H108.914V255.407H107.346C107.206 256.065 106.912 256.709 106.366 257.227C106.17 257.031 105.68 256.695 105.414 256.583C106.268 255.771 106.408 254.777 106.408 254.007V252.971C107.934 252.887 109.754 252.691 110.72 252.383L111.56 253.125C110.496 253.461 108.928 253.671 107.5 253.769V254.035C107.5 254.147 107.5 254.273 107.486 254.413Z" fill="#0B0B0B"/>
<path d="M30.4516 225.517V192.629M15.5409 198.603V219.535C15.5409 222.842 18.2087 225.517 21.5069 225.517H61.5421C65.9541 225.517 69.7098 222.288 70.3832 217.907L73.595 196.975C74.4325 191.539 70.2365 186.639 64.7539 186.639H54.307C52.6579 186.639 51.3283 185.297 51.3283 183.652V173.082C51.3283 169.014 48.0388 165.707 43.9722 165.707C43.0052 165.707 42.1246 166.278 41.736 167.17L31.2372 190.846C30.7624 191.928 29.6918 192.621 28.5089 192.621H21.4982C18.2001 192.621 15.5322 195.296 15.5322 198.603H15.5409Z" stroke="white" stroke-width="2.77981" stroke-linecap="round" stroke-linejoin="round"/>
<path d="M247.366 0H163.143C151.699 0 142.421 9.30189 142.421 20.7763V111.136C142.421 122.611 151.699 131.912 163.143 131.912H247.366C258.81 131.912 268.087 122.611 268.087 111.136V20.7763C268.087 9.30189 258.81 0 247.366 0Z" fill="#F9EB72"/>
<path d="M205.483 110.174V110.832L207.737 110.804C207.457 110.664 207.163 110.538 206.883 110.44L207.205 110.174H205.483ZM201.269 109.362H204.209V108.634H201.269V109.362ZM201.269 107.136V107.836H204.209V107.136H201.269ZM208.521 107.136H205.483V107.836H208.521V107.136ZM208.521 109.362V108.634H205.483V109.362H208.521ZM211.181 112.4V113.45H207.947V115.172C207.947 115.788 207.821 116.124 207.317 116.306C206.841 116.474 206.099 116.474 205.021 116.474C204.965 116.152 204.783 115.662 204.615 115.354C205.385 115.382 206.183 115.382 206.393 115.368C206.617 115.354 206.673 115.298 206.673 115.13V113.45H202.025C202.739 113.912 203.523 114.528 203.929 114.976L202.977 115.816C202.529 115.284 201.577 114.514 200.779 113.996L201.409 113.45H198.567V112.4H206.673V111.686C203.873 111.756 201.157 111.812 199.169 111.84L199.127 110.86C200.471 110.86 202.263 110.846 204.209 110.832V110.174H200.037V106.296H204.209V105.638H198.959V104.63H204.209V103.65H205.483V104.63H210.649V105.638H205.483V106.296H209.795V110.174H208.493C209.333 110.552 210.159 111.042 210.663 111.434L209.893 112.134C209.697 111.966 209.445 111.798 209.165 111.616L207.947 111.644V112.4H211.181ZM217.225 113.828L218.177 114.276C217.197 115.032 215.447 115.76 214.005 116.082C213.823 115.802 213.487 115.368 213.221 115.13C214.635 114.92 216.329 114.402 217.225 113.828ZM220.753 114.402L221.593 113.744C222.825 114.192 224.533 114.864 225.471 115.312L224.603 116.068C223.735 115.634 222.027 114.892 220.753 114.402ZM221.495 107.066H217.365C217.645 107.458 217.911 107.976 218.023 108.298L217.393 108.466H221.215L220.711 108.312C220.977 107.962 221.299 107.43 221.495 107.066ZM219.983 112.148H225.499V113.24H219.983V116.488H218.709V113.24H213.277V112.148H218.709V111.308H214.579V110.328H218.709V109.488H213.893V108.466H216.707C216.567 108.116 216.329 107.626 216.091 107.262L216.903 107.066H213.333V106.03H215.419C215.209 105.484 214.789 104.714 214.397 104.14L215.531 103.748C215.965 104.35 216.455 105.204 216.651 105.75L215.909 106.03H217.477V103.622H218.695V106.03H220.081V103.622H221.313V106.03H222.839L222.293 105.848C222.629 105.288 223.063 104.406 223.273 103.776L224.617 104.126C224.239 104.812 223.819 105.512 223.455 106.03H225.457V107.066H221.789L222.881 107.346C222.573 107.766 222.251 108.144 221.971 108.466H224.939V109.488H219.983V110.328H224.281V111.308H219.983V112.148ZM229.485 110.608H231.305V108.55H229.513V109.138C229.513 109.586 229.513 110.09 229.485 110.608ZM231.305 105.344H229.513V107.332H231.305V105.344ZM232.509 104.14V115.018C232.509 115.648 232.397 116.04 232.005 116.25C231.613 116.474 231.039 116.502 230.101 116.488C230.073 116.166 229.905 115.564 229.751 115.242C230.325 115.27 230.885 115.256 231.067 115.256C231.235 115.242 231.305 115.186 231.305 114.99V111.84H229.415C229.289 113.492 229.023 115.228 228.407 116.516C228.183 116.32 227.651 116.026 227.343 115.9C228.267 113.968 228.337 111.182 228.337 109.138V104.14H232.509ZM234.777 110.118V115.466C235.505 115.088 236.177 114.514 236.765 113.828C236.023 112.75 235.449 111.49 235.029 110.118H234.777ZM238.641 110.118H236.135C236.457 111.098 236.905 112.008 237.465 112.82C237.955 112.022 238.361 111.126 238.641 110.118ZM239.285 108.886L240.041 109.152C239.705 111.028 239.075 112.568 238.235 113.814C238.879 114.514 239.621 115.102 240.461 115.494C240.167 115.732 239.817 116.18 239.621 116.502C238.823 116.068 238.109 115.48 237.493 114.78C236.905 115.452 236.261 115.998 235.533 116.432C235.365 116.138 235.043 115.718 234.777 115.494V116.488H233.545V104.168H239.635V106.856C239.635 107.458 239.509 107.794 239.019 107.962C238.529 108.144 237.787 108.144 236.751 108.144C236.695 107.808 236.499 107.346 236.345 107.038C237.115 107.066 237.899 107.066 238.095 107.052C238.319 107.052 238.389 107.01 238.389 106.842V105.386H234.777V108.928H239.075L239.285 108.886ZM251.181 111.406H254.373C254.373 111.406 254.359 111.742 254.331 111.924C254.093 114.43 253.841 115.508 253.449 115.928C253.169 116.208 252.889 116.292 252.511 116.348C252.161 116.376 251.587 116.376 250.957 116.348C250.929 115.984 250.789 115.48 250.607 115.144C251.153 115.2 251.671 115.214 251.909 115.214C252.119 115.214 252.231 115.186 252.357 115.06C252.595 114.85 252.791 114.136 252.973 112.498H250.943C250.467 114.22 249.487 115.62 247.275 116.488C247.121 116.18 246.771 115.704 246.505 115.48C248.325 114.822 249.179 113.772 249.613 112.498H247.653V111.406H249.893C249.963 110.972 250.019 110.538 250.061 110.076H251.349C251.307 110.538 251.251 110.972 251.181 111.406ZM252.231 106.156H249.641C250.005 106.73 250.481 107.234 251.055 107.696C251.545 107.262 251.937 106.744 252.231 106.156ZM254.625 106.156H253.659C253.281 107.038 252.749 107.78 252.105 108.396C252.931 108.872 253.897 109.222 254.933 109.446C254.667 109.698 254.289 110.202 254.121 110.538C253.001 110.244 251.979 109.796 251.083 109.194C250.229 109.754 249.221 110.174 248.129 110.51C248.059 110.356 247.919 110.146 247.765 109.936C247.527 110.762 247.261 111.588 246.995 112.19L246.099 111.742C246.323 111.196 246.533 110.412 246.715 109.642H245.637V115.018C245.637 115.648 245.539 115.998 245.119 116.222C244.713 116.404 244.139 116.432 243.271 116.432C243.229 116.082 243.061 115.55 242.893 115.2C243.453 115.228 244.013 115.228 244.181 115.214C244.349 115.2 244.405 115.172 244.405 115.004V111.21C243.887 112.414 243.229 113.548 242.515 114.248C242.389 113.87 242.081 113.338 241.857 113.002C242.697 112.26 243.495 110.93 243.999 109.642H242.053V108.508H245.623C244.853 107.948 243.635 107.29 242.627 106.856L243.439 106.016C243.831 106.17 244.279 106.366 244.699 106.576C245.133 106.24 245.553 105.82 245.903 105.4H242.221V104.294H246.827L247.037 104.252L247.877 104.77C247.359 105.596 246.519 106.464 245.693 107.108C246.141 107.36 246.519 107.626 246.813 107.85L246.211 108.508H247.079L247.275 108.438L248.059 108.718C248.017 108.9 247.975 109.082 247.933 109.278C248.731 109.054 249.445 108.76 250.075 108.396C249.599 107.948 249.179 107.458 248.829 106.926C248.549 107.234 248.269 107.5 247.989 107.738C247.737 107.528 247.233 107.164 246.911 106.996C248.017 106.198 249.011 104.938 249.571 103.622L250.789 103.958C250.621 104.336 250.425 104.7 250.215 105.064H254.625V106.156Z" fill="#0B0B0B"/>
<path d="M178.019 51.3869L185.289 58.6759L201.65 42.2712M218.011 53.2134C218.011 71.1071 198.55 84.1182 191.47 88.2562C190.667 88.7237 190.262 88.9661 189.692 89.0873C189.251 89.1825 188.604 89.1825 188.164 89.0873C187.594 88.9661 187.197 88.7323 186.385 88.2562C179.305 84.1182 159.844 71.0984 159.844 53.2134V35.7786C159.844 32.8613 159.844 31.4069 160.319 30.1517C160.742 29.0436 161.424 28.0568 162.305 27.2776C163.307 26.3946 164.671 25.8839 167.39 24.8537L186.886 17.5214C187.646 17.2357 188.017 17.0972 188.405 17.0366C188.751 16.9847 189.105 16.9847 189.441 17.0366C189.83 17.0972 190.21 17.2357 190.961 17.5214L210.456 24.8537C213.176 25.8752 214.54 26.386 215.542 27.2776C216.431 28.0568 217.113 29.0436 217.527 30.1517C218.002 31.4069 218.002 32.8613 218.002 35.7786V53.2134H218.011Z" stroke="white" stroke-width="2.77981" stroke-linecap="round" stroke-linejoin="round"/>
</svg>
