<svg width="316" height="74" viewBox="0 0 316 74" fill="none" xmlns="http://www.w3.org/2000/svg">
<g clip-path="url(#clip0_344_706)">
<path d="M55.0301 47.41C54.0901 50.34 52.4001 52.86 49.9901 54.85C48.7901 55.85 47.4101 56.71 45.8801 57.43C44.3401 58.16 42.7301 58.63 40.9401 59C33.7201 60.55 25.0601 58.89 18.0801 55.41C17.2101 54.97 16.3601 54.5 15.5401 54.01C14.7501 53.55 14.0401 53.09 13.3301 52.59C12.6201 52.09 11.9401 51.57 11.2901 51.02C10.9701 50.74 10.6501 50.46 10.3301 50.19C10.0301 49.93 9.74008 49.67 9.45008 49.4C8.30008 48.32 7.25009 47.13 6.30009 45.87C5.35009 44.64 4.50008 43.44 3.74008 42.1C2.99008 40.78 2.33008 39.38 1.79008 37.94C1.23008 36.57 0.780085 35.15 0.470085 33.69C-0.149915 30.77 -0.219915 27.73 0.530085 24.74C1.28008 21.76 2.81008 19.13 5.08008 16.97C6.22008 15.89 7.54008 14.93 9.03008 14.11C10.5001 13.36 12.1301 12.75 13.9101 12.29C21.0601 10.29 30.3101 11.73 37.9301 15.54C45.5701 19.35 50.0601 24.48 52.8501 29.85C53.5501 31.22 54.1401 32.71 54.6101 34.12C55.0801 35.53 55.4401 36.99 55.6501 38.47C56.0801 41.43 55.9501 44.49 55.0101 47.42L55.0301 47.41Z" fill="#ED6F60"/>
<path d="M143.52 43.69C144.73 46.52 145.11 49.53 144.63 52.62C144.39 54.16 143.95 55.72 143.28 57.26C142.58 58.76 141.66 60.24 140.54 61.69C136.14 67.64 127.83 72.2 118.23 73.71C115.86 73.97 113.53 74.05 111.28 73.99C109.03 73.91 106.83 73.75 104.83 73.2C100.79 72.21 97.2001 70.69 94.2801 68.76C88.4001 64.55 85.2801 58.87 85.6301 52.73C85.9801 46.59 89.4701 41.12 94.2901 37.26C96.7101 35.16 99.4901 33.43 102.53 32.22C104.08 31.67 105.56 31 107.14 30.55C108.72 30.09 110.35 29.77 112.04 29.6C118.55 28.5 124.7 29.72 130.33 31.89C131.74 32.47 133.11 33.17 134.42 33.98C135.73 34.73 136.97 35.58 138.11 36.55C140.4 38.49 142.3 40.87 143.51 43.7L143.52 43.69Z" fill="#AECAF2"/>
<path d="M229.54 21.28C229.19 27.42 225.7 32.89 220.88 36.75C218.46 38.84 215.68 40.58 212.64 41.79C211.09 42.34 209.61 43.01 208.02 43.46C206.44 43.92 204.81 44.24 203.12 44.41C196.61 45.51 190.46 44.29 184.83 42.11C183.42 41.53 182.05 40.83 180.74 40.02C179.43 39.27 178.19 38.42 177.05 37.45C174.76 35.51 172.86 33.13 171.65 30.3C170.44 27.47 170.06 24.46 170.54 21.37C170.78 19.83 171.22 18.27 171.89 16.73C172.59 15.23 173.51 13.75 174.63 12.3C179.03 6.34999 187.34 1.78999 196.94 0.279988C199.31 0.0199883 201.64 -0.0600117 203.89 -1.17328e-05C206.14 0.0799883 208.34 0.239988 210.33 0.789988C214.37 1.77999 217.96 3.29999 220.88 5.22999C226.76 9.43999 229.88 15.12 229.53 21.26L229.54 21.28Z" fill="#F9EB72"/>
<path d="M314.62 49.27C313.87 52.25 312.34 54.88 310.07 57.04C308.93 58.12 307.61 59.08 306.12 59.9C304.65 60.65 303.02 61.26 301.24 61.72C294.09 63.72 284.84 62.28 277.22 58.47C269.58 54.66 265.09 49.53 262.3 44.16C261.6 42.79 261.01 41.3 260.54 39.89C260.07 38.48 259.71 37.02 259.5 35.54C259.07 32.58 259.2 29.52 260.14 26.59C261.08 23.66 262.77 21.14 265.18 19.15C266.38 18.15 267.76 17.29 269.29 16.57C270.83 15.84 272.44 15.37 274.23 15C281.45 13.45 290.11 15.11 297.09 18.59C297.96 19.03 298.81 19.5 299.63 19.99C300.42 20.45 301.13 20.91 301.84 21.41C302.55 21.91 303.23 22.43 303.88 22.98C304.2 23.26 304.52 23.54 304.83 23.81C305.13 24.07 305.42 24.33 305.71 24.6C306.86 25.68 307.91 26.87 308.86 28.13C309.81 29.36 310.66 30.56 311.42 31.9C312.17 33.22 312.83 34.62 313.37 36.06C313.93 37.43 314.38 38.85 314.69 40.31C315.31 43.23 315.38 46.27 314.63 49.26L314.62 49.27Z" fill="#F7CCDB"/>
</g>
<defs>
<clipPath id="clip0_344_706">
<rect width="315.16" height="74.01" fill="white"/>
</clipPath>
</defs>
</svg>
