<svg width="269" height="281" viewBox="0 0 269 281" fill="none" xmlns="http://www.w3.org/2000/svg">
<path d="M104.945 0.69812H20.7213C9.27724 0.69812 0 10 0 21.4745V111.834C0 123.309 9.27724 132.611 20.7213 132.611H104.945C116.389 132.611 125.666 123.309 125.666 111.834V21.4745C125.666 10 116.389 0.69812 104.945 0.69812Z" fill="#ED6F60"/>
<path d="M59.4304 102.063V110.79H58.6335V102.063H59.4304ZM62.2315 106.699V110.79H61.473V104.245H62.2102V105.272H62.2784C62.4318 104.936 62.6705 104.668 62.9943 104.466C63.321 104.262 63.7244 104.159 64.2046 104.159C64.6449 104.159 65.0313 104.252 65.3636 104.436C65.6989 104.618 65.9588 104.887 66.1435 105.242C66.331 105.597 66.4247 106.033 66.4247 106.55V110.79H65.6662V106.597C65.6662 106.06 65.5156 105.635 65.2145 105.323C64.9162 105.01 64.5156 104.854 64.0128 104.854C63.669 104.854 63.3636 104.928 63.0966 105.076C62.8296 105.223 62.6179 105.436 62.4617 105.715C62.3083 105.99 62.2315 106.318 62.2315 106.699ZM69.0608 106.699V110.79H68.3022V104.245H69.0395V105.272H69.1076C69.261 104.936 69.4997 104.668 69.8235 104.466C70.1503 104.262 70.5537 104.159 71.0338 104.159C71.4741 104.159 71.8605 104.252 72.1929 104.436C72.5281 104.618 72.788 104.887 72.9727 105.242C73.1602 105.597 73.2539 106.033 73.2539 106.55V110.79H72.4954V106.597C72.4954 106.06 72.3449 105.635 72.0437 105.323C71.7454 105.01 71.3449 104.854 70.842 104.854C70.4983 104.854 70.1929 104.928 69.9258 105.076C69.6588 105.223 69.4471 105.436 69.2909 105.715C69.1375 105.99 69.0608 106.318 69.0608 106.699ZM77.6755 110.926C77.1102 110.926 76.6102 110.783 76.1755 110.496C75.7437 110.209 75.4056 109.813 75.1613 109.307C74.917 108.799 74.7948 108.212 74.7948 107.547C74.7948 106.877 74.917 106.287 75.1613 105.779C75.4056 105.267 75.7437 104.87 76.1755 104.585C76.6102 104.299 77.1102 104.155 77.6755 104.155C78.2408 104.155 78.7394 104.299 79.1712 104.585C79.6031 104.872 79.9411 105.27 80.1854 105.779C80.4326 106.287 80.5562 106.877 80.5562 107.547C80.5562 108.212 80.434 108.799 80.1897 109.307C79.9454 109.813 79.6059 110.209 79.1712 110.496C78.7394 110.783 78.2408 110.926 77.6755 110.926ZM77.6755 110.232C78.13 110.232 78.515 110.11 78.8303 109.865C79.1457 109.621 79.3843 109.296 79.5462 108.889C79.711 108.483 79.7934 108.036 79.7934 107.547C79.7934 107.059 79.711 106.61 79.5462 106.201C79.3843 105.791 79.1457 105.463 78.8303 105.216C78.515 104.969 78.13 104.845 77.6755 104.845C77.2238 104.845 76.8388 104.969 76.5207 105.216C76.2053 105.463 75.9653 105.791 75.8005 106.201C75.6386 106.61 75.5576 107.059 75.5576 107.547C75.5576 108.036 75.6386 108.483 75.8005 108.889C75.9653 109.296 76.2053 109.621 76.5207 109.865C76.836 110.11 77.2209 110.232 77.6755 110.232ZM86.9337 104.245L84.5431 110.79H83.7334L81.3428 104.245H82.1652L84.1084 109.789H84.1681L86.1112 104.245H86.9337ZM89.9266 110.939C89.5317 110.939 89.1709 110.862 88.8442 110.709C88.5175 110.553 88.2576 110.328 88.0644 110.036C87.8712 109.74 87.7746 109.382 87.7746 108.962C87.7746 108.638 87.8357 108.365 87.9579 108.144C88.08 107.922 88.2533 107.74 88.4778 107.598C88.7022 107.456 88.9678 107.344 89.2746 107.262C89.5814 107.179 89.9195 107.115 90.2888 107.07C90.6553 107.024 90.965 106.985 91.2178 106.951C91.4735 106.916 91.6681 106.862 91.8016 106.789C91.9351 106.715 92.0019 106.595 92.0019 106.431V106.277C92.0019 105.831 91.8684 105.48 91.6013 105.225C91.3371 104.966 90.9564 104.837 90.4593 104.837C89.9877 104.837 89.6028 104.941 89.3045 105.148C89.009 105.355 88.8016 105.6 88.6823 105.881L87.9621 105.621C88.1099 105.263 88.3144 104.978 88.5758 104.764C88.8371 104.549 89.1297 104.394 89.4536 104.3C89.7775 104.203 90.1056 104.155 90.438 104.155C90.688 104.155 90.9479 104.188 91.2178 104.253C91.4905 104.318 91.7434 104.432 91.9763 104.594C92.2093 104.753 92.3982 104.976 92.5431 105.263C92.688 105.547 92.7604 105.908 92.7604 106.345V110.79H92.0019V109.755H91.955C91.8641 109.948 91.7292 110.135 91.5502 110.317C91.3712 110.499 91.1468 110.648 90.8769 110.764C90.607 110.881 90.2903 110.939 89.9266 110.939ZM90.0289 110.245C90.4323 110.245 90.7817 110.155 91.0772 109.976C91.3726 109.797 91.5999 109.56 91.759 109.264C91.9209 108.966 92.0019 108.638 92.0019 108.28V107.334C91.9451 107.388 91.8499 107.436 91.7164 107.479C91.5857 107.522 91.4337 107.56 91.2604 107.594C91.09 107.625 90.9195 107.652 90.7491 107.675C90.5786 107.698 90.4252 107.718 90.2888 107.735C89.9195 107.78 89.6042 107.851 89.3428 107.948C89.0814 108.044 88.8812 108.178 88.742 108.348C88.6028 108.516 88.5331 108.732 88.5331 108.996C88.5331 109.394 88.6752 109.702 88.9593 109.921C89.2434 110.137 89.5999 110.245 90.0289 110.245ZM97.2363 104.245V104.905H94.1127V104.245H97.2363ZM95.0886 102.676H95.8514V109.081C95.8514 109.354 95.8982 109.568 95.992 109.725C96.0857 109.878 96.2079 109.987 96.3585 110.053C96.509 110.115 96.6695 110.147 96.84 110.147C96.9394 110.147 97.0247 110.141 97.0957 110.13C97.1667 110.115 97.2292 110.101 97.2832 110.087L97.4451 110.773C97.3712 110.801 97.2803 110.827 97.1724 110.85C97.0644 110.875 96.9309 110.888 96.7718 110.888C96.4934 110.888 96.2249 110.827 95.9664 110.705C95.7107 110.583 95.5005 110.401 95.3357 110.159C95.171 109.918 95.0886 109.618 95.0886 109.26V102.676ZM98.8475 110.79V104.245H99.6103V110.79H98.8475ZM99.2353 103.12C99.079 103.12 98.9455 103.067 98.8347 102.962C98.7239 102.854 98.6685 102.725 98.6685 102.574C98.6685 102.424 98.7239 102.296 98.8347 102.191C98.9455 102.083 99.079 102.029 99.2353 102.029C99.3915 102.029 99.525 102.083 99.6358 102.191C99.7466 102.296 99.802 102.424 99.802 102.574C99.802 102.725 99.7466 102.854 99.6358 102.962C99.525 103.067 99.3915 103.12 99.2353 103.12ZM106.563 104.245L104.172 110.79H103.363L100.972 104.245H101.795L103.738 109.789H103.797L105.741 104.245H106.563ZM110.339 110.926C109.728 110.926 109.2 110.784 108.754 110.5C108.308 110.213 107.963 109.817 107.718 109.311C107.477 108.803 107.356 108.218 107.356 107.556C107.356 106.897 107.477 106.311 107.718 105.8C107.963 105.286 108.299 104.884 108.728 104.594C109.16 104.301 109.659 104.155 110.224 104.155C110.579 104.155 110.921 104.22 111.251 104.351C111.58 104.479 111.876 104.676 112.137 104.943C112.402 105.208 112.61 105.541 112.764 105.945C112.917 106.345 112.994 106.82 112.994 107.368V107.743H107.88V107.074H112.218C112.218 106.654 112.133 106.276 111.963 105.941C111.795 105.603 111.561 105.335 111.259 105.139C110.961 104.943 110.616 104.845 110.224 104.845C109.809 104.845 109.444 104.956 109.129 105.178C108.813 105.399 108.566 105.692 108.387 106.056C108.211 106.419 108.122 106.817 108.119 107.249V107.649C108.119 108.169 108.208 108.624 108.387 109.013C108.569 109.399 108.826 109.699 109.159 109.912C109.491 110.125 109.884 110.232 110.339 110.232C110.649 110.232 110.92 110.184 111.153 110.087C111.389 109.99 111.586 109.861 111.745 109.699C111.907 109.534 112.029 109.354 112.112 109.158L112.832 109.392C112.732 109.668 112.569 109.922 112.342 110.155C112.117 110.388 111.836 110.576 111.498 110.718C111.163 110.857 110.777 110.926 110.339 110.926ZM91.3063 125.79V117.063H94.1231C94.7424 117.063 95.2594 117.175 95.6742 117.399C96.0918 117.621 96.4057 117.929 96.616 118.324C96.829 118.716 96.9356 119.166 96.9356 119.675C96.9356 120.184 96.829 120.632 96.616 121.022C96.4057 121.411 96.0932 121.715 95.6785 121.934C95.2637 122.152 94.7495 122.262 94.1359 122.262H91.7367V121.533H94.1146C94.5691 121.533 94.9469 121.458 95.2481 121.307C95.5521 121.157 95.7779 120.942 95.9256 120.664C96.0762 120.385 96.1515 120.056 96.1515 119.675C96.1515 119.294 96.0762 118.962 95.9256 118.678C95.7751 118.391 95.5478 118.169 95.2438 118.013C94.9427 117.857 94.562 117.779 94.1018 117.779H92.1032V125.79H91.3063ZM95.1543 121.853L97.3021 125.79H96.3816L94.2552 121.853H95.1543ZM100.934 125.909C100.397 125.909 99.9285 125.806 99.5279 125.598C99.1274 125.388 98.8163 125.103 98.5947 124.742C98.3731 124.381 98.2623 123.973 98.2623 123.519C98.2623 123.189 98.3291 122.892 98.4626 122.628C98.599 122.361 98.795 122.108 99.0507 121.87C99.3063 121.628 99.616 121.378 99.9796 121.12L101.245 120.178C101.546 119.962 101.775 119.75 101.931 119.543C102.09 119.333 102.17 119.076 102.17 118.772C102.17 118.479 102.059 118.218 101.838 117.987C101.619 117.755 101.335 117.638 100.985 117.638C100.741 117.638 100.522 117.699 100.329 117.821C100.139 117.943 99.9867 118.103 99.8731 118.299C99.7623 118.492 99.7069 118.695 99.7069 118.908C99.7069 119.107 99.758 119.307 99.8603 119.509C99.9626 119.708 100.1 119.918 100.274 120.139C100.447 120.358 100.64 120.6 100.853 120.864L104.842 125.79H103.921L100.444 121.524C100.152 121.166 99.8916 120.847 99.6643 120.566C99.437 120.282 99.258 120.009 99.1274 119.747C98.9967 119.483 98.9313 119.201 98.9313 118.899C98.9313 118.527 99.018 118.196 99.1913 117.907C99.3646 117.614 99.6032 117.384 99.9072 117.216C100.214 117.049 100.565 116.965 100.96 116.965C101.363 116.965 101.713 117.047 102.008 117.212C102.306 117.377 102.536 117.595 102.698 117.868C102.863 118.141 102.946 118.442 102.946 118.772C102.946 119.166 102.843 119.516 102.639 119.82C102.437 120.124 102.143 120.422 101.757 120.715L100.171 121.899C99.7367 122.226 99.4384 122.529 99.2765 122.807C99.1146 123.085 99.0336 123.323 99.0336 123.519C99.0336 123.826 99.1132 124.108 99.2723 124.367C99.4313 124.625 99.6515 124.833 99.9328 124.989C100.217 125.145 100.542 125.225 100.909 125.228C101.272 125.225 101.615 125.152 101.936 125.01C102.257 124.865 102.544 124.659 102.796 124.392C103.052 124.125 103.257 123.806 103.41 123.434C103.566 123.061 103.657 122.647 103.683 122.189L104.42 122.198C104.409 122.666 104.345 123.064 104.228 123.391C104.115 123.715 103.984 123.982 103.836 124.192C103.688 124.402 103.559 124.571 103.448 124.699C103.417 124.742 103.386 124.784 103.355 124.827C103.323 124.87 103.291 124.912 103.257 124.955C102.973 125.267 102.619 125.505 102.196 125.666C101.775 125.828 101.355 125.909 100.934 125.909ZM108.647 125.79H106.09V117.063H108.8C109.632 117.063 110.344 117.236 110.935 117.583C111.529 117.929 111.983 118.426 112.299 119.074C112.614 119.722 112.772 120.499 112.772 121.405C112.772 122.32 112.61 123.105 112.286 123.762C111.965 124.415 111.496 124.916 110.88 125.266C110.266 125.615 109.522 125.79 108.647 125.79ZM106.887 125.074H108.6C109.35 125.074 109.978 124.926 110.483 124.631C110.989 124.335 111.368 123.914 111.621 123.365C111.874 122.817 112 122.164 112 121.405C111.997 120.652 111.872 120.005 111.625 119.462C111.381 118.919 111.017 118.503 110.534 118.213C110.054 117.924 109.46 117.779 108.753 117.779H106.887V125.074Z" fill="#0B0B0B"/>
<path d="M38.8525 72.264V80.8948C38.8525 84.9722 42.142 88.2704 46.2085 88.2704C50.2751 88.2704 53.5646 84.9722 53.5646 80.8948V72.264M46.2085 14.5231V18.2109M13.1063 51.4011H9.42822M22.3013 27.4304L20.0911 25.2142M70.1157 27.4304L72.326 25.2142M82.9888 51.4011H79.3108M68.2767 51.4011C68.2767 63.6245 58.3995 73.5279 46.2085 73.5279C34.0175 73.5279 24.1403 63.6245 24.1403 51.4011C24.1403 39.1777 34.0175 29.2743 46.2085 29.2743C58.3995 29.2743 68.2767 39.1777 68.2767 51.4011Z" stroke="white" stroke-width="2.77981" stroke-linecap="round" stroke-linejoin="round"/>
<path d="M247.366 148.668H163.143C151.699 148.668 142.421 157.97 142.421 169.444V259.804C142.421 271.279 151.699 280.58 163.143 280.58H247.366C258.81 280.58 268.087 271.279 268.087 259.804V169.444C268.087 157.97 258.81 148.668 247.366 148.668Z" fill="#AECAF2"/>
<path d="M212.4 254.322V263.05H211.603V254.322H212.4ZM215.202 258.959V263.05H214.443V256.504H215.18V257.531H215.248C215.402 257.196 215.64 256.928 215.964 256.726C216.291 256.521 216.694 256.419 217.175 256.419C217.615 256.419 218.001 256.511 218.334 256.696C218.669 256.878 218.929 257.146 219.113 257.501C219.301 257.857 219.395 258.293 219.395 258.81V263.05H218.636V258.857C218.636 258.32 218.486 257.895 218.184 257.582C217.886 257.27 217.486 257.114 216.983 257.114C216.639 257.114 216.334 257.187 216.067 257.335C215.8 257.483 215.588 257.696 215.432 257.974C215.278 258.25 215.202 258.578 215.202 258.959ZM223.85 256.504V257.165H220.727V256.504H223.85ZM221.703 254.936H222.465V261.341C222.465 261.614 222.512 261.828 222.606 261.984C222.7 262.138 222.822 262.247 222.972 262.312C223.123 262.375 223.284 262.406 223.454 262.406C223.553 262.406 223.639 262.401 223.71 262.389C223.781 262.375 223.843 262.361 223.897 262.347L224.059 263.033C223.985 263.061 223.894 263.087 223.786 263.109C223.678 263.135 223.545 263.148 223.386 263.148C223.107 263.148 222.839 263.087 222.58 262.964C222.325 262.842 222.115 262.66 221.95 262.419C221.785 262.178 221.703 261.878 221.703 261.52V254.936ZM228.029 263.186C227.418 263.186 226.89 263.044 226.444 262.76C225.998 262.473 225.653 262.077 225.408 261.571C225.167 261.062 225.046 260.477 225.046 259.815C225.046 259.156 225.167 258.571 225.408 258.06C225.653 257.545 225.989 257.143 226.418 256.854C226.85 256.561 227.349 256.415 227.914 256.415C228.269 256.415 228.611 256.48 228.941 256.611C229.27 256.739 229.566 256.936 229.827 257.203C230.091 257.467 230.3 257.801 230.454 258.205C230.607 258.605 230.684 259.08 230.684 259.628V260.003H225.57V259.334H229.908C229.908 258.913 229.823 258.535 229.653 258.2C229.485 257.862 229.251 257.595 228.949 257.399C228.651 257.203 228.306 257.105 227.914 257.105C227.499 257.105 227.134 257.216 226.819 257.437C226.503 257.659 226.256 257.952 226.077 258.315C225.901 258.679 225.812 259.077 225.809 259.508V259.909C225.809 260.429 225.898 260.883 226.077 261.273C226.259 261.659 226.516 261.959 226.849 262.172C227.181 262.385 227.574 262.491 228.029 262.491C228.339 262.491 228.61 262.443 228.843 262.347C229.079 262.25 229.276 262.121 229.435 261.959C229.597 261.794 229.719 261.614 229.802 261.418L230.522 261.652C230.422 261.928 230.259 262.182 230.032 262.415C229.807 262.648 229.526 262.835 229.188 262.977C228.853 263.116 228.466 263.186 228.029 263.186ZM234.732 265.641C234.286 265.641 233.896 265.582 233.561 265.466C233.225 265.352 232.943 265.196 232.713 264.997C232.482 264.798 232.304 264.575 232.176 264.328L232.798 263.919C232.892 264.084 233.017 264.246 233.173 264.405C233.332 264.564 233.538 264.696 233.791 264.801C234.046 264.906 234.36 264.959 234.732 264.959C235.312 264.959 235.779 264.814 236.134 264.524C236.492 264.234 236.671 263.784 236.671 263.173V261.699H236.603C236.515 261.898 236.389 262.097 236.224 262.295C236.059 262.491 235.843 262.655 235.576 262.785C235.312 262.916 234.984 262.982 234.592 262.982C234.069 262.982 233.605 262.852 233.198 262.594C232.795 262.335 232.477 261.966 232.244 261.486C232.014 261.003 231.899 260.428 231.899 259.76C231.899 259.098 232.011 258.516 232.235 258.013C232.463 257.51 232.779 257.118 233.186 256.837C233.592 256.555 234.065 256.415 234.605 256.415C235.005 256.415 235.338 256.486 235.602 256.628C235.866 256.767 236.078 256.94 236.237 257.148C236.399 257.355 236.525 257.557 236.616 257.753H236.693V256.504H237.434V263.22C237.434 263.774 237.316 264.23 237.08 264.588C236.845 264.946 236.524 265.21 236.117 265.381C235.711 265.554 235.25 265.641 234.732 265.641ZM234.681 262.287C235.102 262.287 235.461 262.186 235.759 261.984C236.058 261.78 236.286 261.487 236.446 261.107C236.605 260.726 236.684 260.273 236.684 259.747C236.684 259.236 236.606 258.783 236.45 258.388C236.294 257.99 236.066 257.678 235.768 257.45C235.473 257.22 235.11 257.105 234.681 257.105C234.244 257.105 233.875 257.223 233.573 257.459C233.272 257.695 233.045 258.013 232.892 258.413C232.738 258.811 232.661 259.256 232.661 259.747C232.661 260.247 232.74 260.689 232.896 261.072C233.052 261.453 233.281 261.751 233.582 261.967C233.883 262.18 234.25 262.287 234.681 262.287ZM239.322 263.05V256.504H240.06V257.51H240.115C240.246 257.18 240.473 256.915 240.797 256.713C241.123 256.508 241.493 256.406 241.905 256.406C241.967 256.406 242.037 256.408 242.114 256.41C242.19 256.413 242.254 256.416 242.305 256.419V257.19C242.271 257.185 242.212 257.176 242.126 257.165C242.041 257.153 241.949 257.148 241.849 257.148C241.508 257.148 241.204 257.22 240.937 257.365C240.673 257.507 240.464 257.705 240.311 257.957C240.158 258.21 240.081 258.499 240.081 258.822V263.05H239.322ZM243.488 263.05V256.504H244.251V263.05H243.488ZM243.876 255.379C243.72 255.379 243.586 255.327 243.475 255.222C243.365 255.114 243.309 254.984 243.309 254.834C243.309 254.683 243.365 254.555 243.475 254.45C243.586 254.342 243.72 254.288 243.876 254.288C244.032 254.288 244.166 254.342 244.277 254.45C244.387 254.555 244.443 254.683 244.443 254.834C244.443 254.984 244.387 255.114 244.277 255.222C244.166 255.327 244.032 255.379 243.876 255.379ZM248.715 256.504V257.165H245.592V256.504H248.715ZM246.567 254.936H247.33V261.341C247.33 261.614 247.377 261.828 247.471 261.984C247.565 262.138 247.687 262.247 247.837 262.312C247.988 262.375 248.148 262.406 248.319 262.406C248.418 262.406 248.504 262.401 248.575 262.389C248.646 262.375 248.708 262.361 248.762 262.347L248.924 263.033C248.85 263.061 248.759 263.087 248.651 263.109C248.543 263.135 248.41 263.148 248.251 263.148C247.972 263.148 247.704 263.087 247.445 262.964C247.19 262.842 246.979 262.66 246.815 262.419C246.65 262.178 246.567 261.878 246.567 261.52V254.936ZM250.846 265.504C250.696 265.504 250.555 265.49 250.424 265.462C250.294 265.433 250.19 265.402 250.113 265.368L250.318 264.699C250.576 264.778 250.806 264.807 251.008 264.784C251.21 264.764 251.389 264.673 251.545 264.511C251.701 264.352 251.841 264.108 251.963 263.778L252.201 263.114L249.794 256.504H250.616L252.559 262.048H252.619L254.562 256.504H255.385L252.615 264.085C252.498 264.401 252.355 264.663 252.184 264.874C252.014 265.087 251.816 265.244 251.592 265.347C251.37 265.452 251.122 265.504 250.846 265.504Z" fill="#0B0B0B"/>
<path d="M172.234 219.836H180.316C181.369 219.836 182.414 219.965 183.441 220.217L191.989 222.294C193.845 222.744 195.77 222.788 197.644 222.424L207.089 220.58C209.584 220.095 211.881 218.892 213.677 217.143L220.36 210.625C222.268 208.764 222.268 205.751 220.36 203.89C218.641 202.21 215.922 202.029 213.979 203.448L206.191 209.144C205.078 209.958 203.722 210.4 202.323 210.4H194.803H199.595C202.297 210.4 204.482 208.27 204.482 205.638V204.686C204.482 202.505 202.954 200.592 200.787 200.063L193.396 198.263C192.196 197.969 190.961 197.821 189.727 197.821C186.739 197.821 181.326 200.306 181.326 200.306L172.243 204.115M159.845 202.799V220.814C159.845 222.554 159.845 223.42 160.181 224.086C160.475 224.675 160.95 225.142 161.537 225.445C162.202 225.783 163.065 225.783 164.801 225.783H167.278C169.014 225.783 169.877 225.783 170.542 225.445C171.129 225.151 171.595 224.675 171.898 224.086C172.234 223.42 172.234 222.554 172.234 220.814V202.799C172.234 201.059 172.234 200.193 171.898 199.527C171.604 198.947 171.129 198.471 170.542 198.168C169.877 197.83 169.014 197.83 167.278 197.83H164.801C163.065 197.83 162.202 197.83 161.537 198.168C160.95 198.462 160.484 198.938 160.181 199.527C159.845 200.193 159.845 201.059 159.845 202.799ZM206.899 168.613C205.052 164.735 200.787 162.683 196.642 164.666C192.498 166.648 190.728 171.349 192.463 175.478C193.534 178.032 196.608 182.984 198.801 186.394C199.612 187.658 200.018 188.29 200.605 188.654C201.115 188.974 201.745 189.139 202.341 189.121C203.04 189.095 203.705 188.758 205.034 188.065C208.635 186.204 213.763 183.46 215.965 181.78C219.531 179.071 220.411 174.102 217.743 170.319C215.076 166.536 210.431 166.163 206.891 168.596L206.899 168.613Z" stroke="white" stroke-width="2.77981" stroke-linecap="round" stroke-linejoin="round"/>
<path d="M104.945 148.705H20.7213C9.27724 148.705 0 158.007 0 169.481V259.841C0 271.315 9.27724 280.617 20.7213 280.617H104.945C116.389 280.617 125.666 271.315 125.666 259.841V169.481C125.666 158.007 116.389 148.705 104.945 148.705Z" fill="#F7CCDB"/>
<path d="M73.241 248.541C73.1927 248.055 72.9782 247.669 72.5976 247.382C72.2169 247.095 71.7382 246.952 71.1615 246.952C70.7552 246.952 70.3973 247.021 70.0876 247.16C69.7808 247.3 69.5393 247.493 69.3632 247.74C69.1899 247.984 69.1032 248.263 69.1032 248.575C69.1032 248.805 69.153 249.007 69.2524 249.18C69.3518 249.354 69.4853 249.503 69.653 249.628C69.8234 249.75 70.0109 249.855 70.2155 249.943C70.4228 250.031 70.6317 250.105 70.8419 250.165L71.7623 250.429C72.0407 250.506 72.3192 250.604 72.5976 250.723C72.876 250.842 73.1302 250.993 73.3603 251.175C73.5933 251.354 73.7794 251.574 73.9186 251.835C74.0606 252.094 74.1317 252.405 74.1317 252.768C74.1317 253.234 74.0109 253.653 73.7694 254.025C73.528 254.398 73.1814 254.693 72.7297 254.912C72.278 255.128 71.7368 255.236 71.1061 255.236C70.5123 255.236 69.9967 255.138 69.5592 254.942C69.1217 254.743 68.778 254.469 68.528 254.119C68.278 253.77 68.1373 253.365 68.1061 252.905H68.9243C68.9527 253.248 69.0663 253.54 69.2652 253.778C69.464 254.017 69.7226 254.199 70.0407 254.324C70.3589 254.446 70.714 254.507 71.1061 254.507C71.5407 254.507 71.9271 254.435 72.2652 254.29C72.6061 254.142 72.8731 253.937 73.0663 253.676C73.2623 253.412 73.3603 253.105 73.3603 252.756C73.3603 252.46 73.2836 252.213 73.1302 252.014C72.9768 251.812 72.7623 251.643 72.4868 251.507C72.214 251.371 71.8973 251.25 71.5365 251.145L70.4924 250.838C69.8078 250.633 69.2765 250.351 68.8987 249.99C68.5209 249.629 68.3319 249.169 68.3319 248.609C68.3319 248.141 68.4569 247.729 68.7069 247.373C68.9598 247.016 69.3007 246.737 69.7297 246.538C70.1615 246.337 70.6459 246.236 71.1828 246.236C71.7254 246.236 72.2055 246.335 72.6231 246.534C73.0407 246.733 73.3717 247.007 73.616 247.356C73.8632 247.703 73.9953 248.098 74.0123 248.541H73.241ZM79.9307 252.585V248.541H80.6892V255.087H79.9307V254H79.871C79.7176 254.335 79.4747 254.615 79.1423 254.839C78.8099 255.061 78.4037 255.172 77.9236 255.172C77.506 255.172 77.1352 255.081 76.8114 254.899C76.4875 254.714 76.2332 254.445 76.0486 254.089C75.8639 253.734 75.7716 253.298 75.7716 252.781V248.541H76.5301V252.734C76.5301 253.246 76.6807 253.658 76.9818 253.97C77.283 254.28 77.6693 254.435 78.1409 254.435C78.4364 254.435 78.7205 254.364 78.9932 254.221C79.2659 254.079 79.4903 253.872 79.6665 253.599C79.8426 253.324 79.9307 252.986 79.9307 252.585ZM82.5774 257.541V248.541H83.3146V249.79H83.4041C83.495 249.594 83.62 249.393 83.7791 249.189C83.9382 248.981 84.1484 248.807 84.4098 248.665C84.674 248.523 85.0064 248.452 85.4069 248.452C85.9467 248.452 86.4183 248.594 86.8217 248.878C87.2279 249.159 87.5433 249.554 87.7677 250.062C87.995 250.568 88.1086 251.158 88.1086 251.831C88.1086 252.507 87.995 253.099 87.7677 253.608C87.5433 254.116 87.2279 254.513 86.8217 254.797C86.4183 255.081 85.9495 255.223 85.4154 255.223C85.0206 255.223 84.6896 255.152 84.4225 255.01C84.1583 254.868 83.9439 254.693 83.7791 254.486C83.6171 254.275 83.4921 254.071 83.4041 253.872H83.3359V257.541H82.5774ZM83.3274 251.818C83.3274 252.346 83.4055 252.815 83.5618 253.224C83.7208 253.631 83.9481 253.95 84.2436 254.183C84.5419 254.413 84.9027 254.528 85.326 254.528C85.7606 254.528 86.1271 254.409 86.4254 254.17C86.7265 253.929 86.9552 253.604 87.1115 253.195C87.2706 252.785 87.3501 252.327 87.3501 251.818C87.3501 251.315 87.272 250.862 87.1157 250.459C86.9623 250.055 86.735 249.736 86.4339 249.5C86.1328 249.261 85.7635 249.142 85.326 249.142C84.8998 249.142 84.5376 249.257 84.2393 249.487C83.941 249.714 83.7137 250.03 83.5575 250.433C83.4041 250.834 83.3274 251.295 83.3274 251.818ZM92.299 255.223C91.6882 255.223 91.1598 255.081 90.7138 254.797C90.2677 254.51 89.9226 254.114 89.6783 253.608C89.4368 253.099 89.316 252.514 89.316 251.852C89.316 251.193 89.4368 250.608 89.6783 250.096C89.9226 249.582 90.2592 249.18 90.6882 248.891C91.12 248.598 91.6186 248.452 92.1839 248.452C92.5391 248.452 92.8814 248.517 93.2109 248.648C93.5405 248.775 93.8359 248.973 94.0973 249.24C94.3615 249.504 94.5703 249.838 94.7237 250.241C94.8771 250.642 94.9538 251.116 94.9538 251.665V252.04H89.8402V251.371H94.1783C94.1783 250.95 94.093 250.572 93.9226 250.237C93.755 249.899 93.5206 249.632 93.2195 249.436C92.9212 249.24 92.576 249.142 92.1839 249.142C91.7692 249.142 91.4041 249.253 91.0888 249.474C90.7734 249.696 90.5263 249.989 90.3473 250.352C90.1712 250.716 90.0817 251.114 90.0788 251.545V251.946C90.0788 252.466 90.1683 252.92 90.3473 253.31C90.5291 253.696 90.7862 253.996 91.1186 254.209C91.451 254.422 91.8444 254.528 92.299 254.528C92.6087 254.528 92.88 254.48 93.1129 254.383C93.3487 254.287 93.5462 254.158 93.7052 253.996C93.8672 253.831 93.9893 253.65 94.0717 253.454L94.7919 253.689C94.6925 253.964 94.5291 254.219 94.3018 254.452C94.0774 254.685 93.7962 254.872 93.4581 255.014C93.1229 255.153 92.7365 255.223 92.299 255.223ZM96.5053 255.087V248.541H97.2426V249.547H97.298C97.4286 249.217 97.6559 248.952 97.9798 248.75C98.3065 248.545 98.6758 248.443 99.0877 248.443C99.1502 248.443 99.2198 248.445 99.2965 248.447C99.3732 248.45 99.4372 248.453 99.4883 248.456V249.227C99.4542 249.221 99.3946 249.213 99.3093 249.202C99.2241 249.19 99.1318 249.185 99.0323 249.185C98.6914 249.185 98.3874 249.257 98.1204 249.402C97.8562 249.544 97.6474 249.741 97.494 249.994C97.3406 250.247 97.2639 250.535 97.2639 250.859V255.087H96.5053ZM100.671 255.087V248.541H101.434V255.087H100.671ZM101.059 247.416C100.903 247.416 100.769 247.364 100.658 247.258C100.548 247.15 100.492 247.021 100.492 246.871C100.492 246.72 100.548 246.592 100.658 246.487C100.769 246.379 100.903 246.325 101.059 246.325C101.215 246.325 101.349 246.379 101.46 246.487C101.57 246.592 101.626 246.72 101.626 246.871C101.626 247.021 101.57 247.15 101.46 247.258C101.349 247.364 101.215 247.416 101.059 247.416ZM105.864 255.223C105.299 255.223 104.799 255.079 104.364 254.793C103.932 254.506 103.594 254.109 103.35 253.604C103.106 253.095 102.983 252.508 102.983 251.844C102.983 251.173 103.106 250.584 103.35 250.075C103.594 249.564 103.932 249.166 104.364 248.882C104.799 248.595 105.299 248.452 105.864 248.452C106.429 248.452 106.928 248.595 107.36 248.882C107.792 249.169 108.13 249.567 108.374 250.075C108.621 250.584 108.745 251.173 108.745 251.844C108.745 252.508 108.623 253.095 108.378 253.604C108.134 254.109 107.794 254.506 107.36 254.793C106.928 255.079 106.429 255.223 105.864 255.223ZM105.864 254.528C106.319 254.528 106.704 254.406 107.019 254.162C107.334 253.918 107.573 253.592 107.735 253.186C107.9 252.78 107.982 252.332 107.982 251.844C107.982 251.355 107.9 250.906 107.735 250.497C107.573 250.088 107.334 249.76 107.019 249.513C106.704 249.266 106.319 249.142 105.864 249.142C105.412 249.142 105.027 249.266 104.709 249.513C104.394 249.76 104.154 250.088 103.989 250.497C103.827 250.906 103.746 251.355 103.746 251.844C103.746 252.332 103.827 252.78 103.989 253.186C104.154 253.592 104.394 253.918 104.709 254.162C105.025 254.406 105.41 254.528 105.864 254.528ZM110.29 255.087V248.541H111.027V249.547H111.082C111.213 249.217 111.44 248.952 111.764 248.75C112.091 248.545 112.46 248.443 112.872 248.443C112.935 248.443 113.004 248.445 113.081 248.447C113.158 248.45 113.222 248.453 113.273 248.456V249.227C113.239 249.221 113.179 249.213 113.094 249.202C113.009 249.19 112.916 249.185 112.817 249.185C112.476 249.185 112.172 249.257 111.905 249.402C111.641 249.544 111.432 249.741 111.279 249.994C111.125 250.247 111.048 250.535 111.048 250.859V255.087H110.29ZM79.5113 267.359H80.3977L81.5142 268.838L81.7017 269.085L83.0738 270.905H82.1875L81.1818 269.562L81.0028 269.324L79.5113 267.359ZM83.3977 265.723C83.3977 266.632 83.2358 267.423 82.9119 268.096C82.588 268.767 82.142 269.287 81.5738 269.656C81.0085 270.023 80.3579 270.206 79.6221 270.206C78.8863 270.206 78.2343 270.023 77.6662 269.656C77.1008 269.287 76.6562 268.767 76.3324 268.096C76.0113 267.423 75.8508 266.632 75.8508 265.723C75.8508 264.814 76.0113 264.024 76.3324 263.354C76.6562 262.68 77.1022 262.16 77.6704 261.794C78.2386 261.425 78.8892 261.24 79.6221 261.24C80.3579 261.24 81.0085 261.425 81.5738 261.794C82.142 262.16 82.588 262.68 82.9119 263.354C83.2358 264.024 83.3977 264.814 83.3977 265.723ZM82.6221 265.723C82.6221 264.942 82.4914 264.273 82.2301 263.716C81.9687 263.156 81.6122 262.729 81.1605 262.433C80.7088 262.138 80.196 261.99 79.6221 261.99C79.0511 261.99 78.5397 262.138 78.088 262.433C77.6363 262.729 77.2784 263.155 77.0142 263.712C76.7528 264.268 76.6221 264.939 76.6221 265.723C76.6221 266.504 76.7528 267.173 77.0142 267.73C77.2755 268.287 77.6321 268.714 78.0838 269.013C78.5355 269.308 79.0483 269.456 79.6221 269.456C80.196 269.456 80.7088 269.308 81.1605 269.013C81.615 268.717 81.973 268.291 82.2343 267.734C82.4957 267.175 82.625 266.504 82.6221 265.723ZM89.2063 267.585V263.541H89.9648V270.087H89.2063V269H89.1467C88.9932 269.335 88.7503 269.615 88.418 269.839C88.0856 270.061 87.6793 270.172 87.1992 270.172C86.7816 270.172 86.4109 270.081 86.087 269.899C85.7631 269.714 85.5089 269.445 85.3242 269.089C85.1396 268.734 85.0472 268.298 85.0472 267.781V263.541H85.8057V267.734C85.8057 268.246 85.9563 268.658 86.2575 268.97C86.5586 269.28 86.945 269.435 87.4165 269.435C87.712 269.435 87.9961 269.364 88.2688 269.221C88.5415 269.079 88.766 268.872 88.9421 268.599C89.1182 268.324 89.2063 267.986 89.2063 267.585ZM93.6811 270.236C93.2862 270.236 92.9254 270.159 92.5987 270.006C92.272 269.849 92.0121 269.625 91.8189 269.332C91.6257 269.037 91.5291 268.679 91.5291 268.258C91.5291 267.935 91.5902 267.662 91.7124 267.44C91.8345 267.219 92.0078 267.037 92.2323 266.895C92.4567 266.753 92.7223 266.641 93.0291 266.558C93.336 266.476 93.674 266.412 94.0433 266.366C94.4098 266.321 94.7195 266.281 94.9723 266.247C95.228 266.213 95.4226 266.159 95.5561 266.085C95.6897 266.011 95.7564 265.892 95.7564 265.727V265.574C95.7564 265.128 95.6229 264.777 95.3558 264.521C95.0916 264.263 94.711 264.133 94.2138 264.133C93.7422 264.133 93.3573 264.237 93.059 264.445C92.7635 264.652 92.5561 264.896 92.4368 265.177L91.7166 264.918C91.8644 264.56 92.0689 264.274 92.3303 264.061C92.5916 263.845 92.8843 263.69 93.2081 263.596C93.532 263.5 93.8601 263.452 94.1925 263.452C94.4425 263.452 94.7024 263.484 94.9723 263.55C95.2451 263.615 95.4979 263.729 95.7308 263.891C95.9638 264.05 96.1527 264.273 96.2976 264.56C96.4425 264.844 96.5149 265.204 96.5149 265.642V270.087H95.7564V269.051H95.7095C95.6186 269.244 95.4837 269.432 95.3047 269.614C95.1257 269.795 94.9013 269.945 94.6314 270.061C94.3615 270.177 94.0448 270.236 93.6811 270.236ZM93.7834 269.541C94.1868 269.541 94.5362 269.452 94.8317 269.273C95.1272 269.094 95.3544 268.856 95.5135 268.561C95.6754 268.263 95.7564 267.935 95.7564 267.577V266.631C95.6996 266.685 95.6044 266.733 95.4709 266.775C95.3402 266.818 95.1882 266.856 95.0149 266.891C94.8445 266.922 94.674 266.949 94.5036 266.971C94.3331 266.994 94.1797 267.014 94.0433 267.031C93.674 267.077 93.3587 267.148 93.0973 267.244C92.836 267.341 92.6357 267.474 92.4965 267.645C92.3573 267.812 92.2877 268.028 92.2877 268.293C92.2877 268.69 92.4297 268.998 92.7138 269.217C92.9979 269.433 93.3544 269.541 93.7834 269.541ZM99.1712 261.359V270.087H98.4127V261.359H99.1712ZM101.067 270.087V263.541H101.83V270.087H101.067ZM101.455 262.416C101.298 262.416 101.165 262.364 101.054 262.258C100.943 262.15 100.888 262.021 100.888 261.871C100.888 261.72 100.943 261.592 101.054 261.487C101.165 261.379 101.298 261.325 101.455 261.325C101.611 261.325 101.744 261.379 101.855 261.487C101.966 261.592 102.021 261.72 102.021 261.871C102.021 262.021 101.966 262.15 101.855 262.258C101.744 262.364 101.611 262.416 101.455 262.416ZM106.294 263.541V264.202H103.17V263.541H106.294ZM104.146 261.973H104.909V268.378C104.909 268.65 104.956 268.865 105.049 269.021C105.143 269.175 105.265 269.284 105.416 269.349C105.567 269.412 105.727 269.443 105.897 269.443C105.997 269.443 106.082 269.437 106.153 269.426C106.224 269.412 106.287 269.398 106.341 269.383L106.503 270.07C106.429 270.098 106.338 270.123 106.23 270.146C106.122 270.172 105.988 270.185 105.829 270.185C105.551 270.185 105.282 270.123 105.024 270.001C104.768 269.879 104.558 269.697 104.393 269.456C104.228 269.214 104.146 268.915 104.146 268.557V261.973ZM108.425 272.541C108.274 272.541 108.134 272.527 108.003 272.498C107.872 272.47 107.769 272.439 107.692 272.405L107.896 271.736C108.155 271.815 108.385 271.844 108.587 271.821C108.788 271.801 108.967 271.71 109.124 271.548C109.28 271.389 109.419 271.145 109.541 270.815L109.78 270.15L107.372 263.541H108.195L110.138 269.085H110.198L112.141 263.541H112.963L110.193 271.122C110.077 271.437 109.933 271.7 109.763 271.91C109.592 272.123 109.395 272.281 109.171 272.383C108.949 272.489 108.7 272.541 108.425 272.541Z" fill="#0B0B0B"/>
<path d="M30.4516 225.517V192.629M15.5409 198.603V219.535C15.5409 222.842 18.2087 225.517 21.5069 225.517H61.5421C65.9541 225.517 69.7098 222.288 70.3832 217.907L73.595 196.975C74.4325 191.539 70.2365 186.639 64.7539 186.639H54.307C52.6579 186.639 51.3283 185.297 51.3283 183.652V173.082C51.3283 169.014 48.0388 165.707 43.9722 165.707C43.0052 165.707 42.1246 166.278 41.736 167.17L31.2372 190.846C30.7624 191.928 29.6918 192.621 28.5089 192.621H21.4982C18.2001 192.621 15.5322 195.296 15.5322 198.603H15.5409Z" stroke="white" stroke-width="2.77981" stroke-linecap="round" stroke-linejoin="round"/>
<path d="M247.366 0H163.143C151.699 0 142.421 9.30189 142.421 20.7763V111.136C142.421 122.611 151.699 131.912 163.143 131.912H247.366C258.81 131.912 268.087 122.611 268.087 111.136V20.7763C268.087 9.30189 258.81 0 247.366 0Z" fill="#F9EB72"/>
<path d="M189.999 107.79V99.0628H192.815C193.435 99.0628 193.952 99.1821 194.366 99.4207C194.784 99.6565 195.098 99.9775 195.308 100.384C195.521 100.79 195.628 101.247 195.628 101.756C195.628 102.264 195.523 102.723 195.312 103.132C195.102 103.539 194.79 103.861 194.375 104.1C193.96 104.335 193.445 104.453 192.828 104.453H190.612V103.737H192.807C193.264 103.737 193.643 103.652 193.945 103.482C194.246 103.309 194.47 103.073 194.618 102.774C194.768 102.476 194.844 102.137 194.844 101.756C194.844 101.375 194.768 101.036 194.618 100.737C194.47 100.439 194.244 100.205 193.94 100.034C193.639 99.8639 193.257 99.7787 192.794 99.7787H190.795V107.79H189.999ZM197.221 107.79V101.245H197.958V102.25H198.013C198.144 101.921 198.371 101.655 198.695 101.453C199.022 101.249 199.391 101.147 199.803 101.147C199.866 101.147 199.935 101.148 200.012 101.151C200.089 101.154 200.153 101.157 200.204 101.159V101.931C200.17 101.925 200.11 101.916 200.025 101.905C199.94 101.894 199.847 101.888 199.748 101.888C199.407 101.888 199.103 101.96 198.836 102.105C198.572 102.247 198.363 102.445 198.209 102.698C198.056 102.951 197.979 103.239 197.979 103.563V107.79H197.221ZM203.723 107.926C203.158 107.926 202.658 107.783 202.223 107.496C201.791 107.209 201.453 106.813 201.209 106.307C200.964 105.799 200.842 105.212 200.842 104.547C200.842 103.877 200.964 103.287 201.209 102.779C201.453 102.267 201.791 101.87 202.223 101.585C202.658 101.299 203.158 101.155 203.723 101.155C204.288 101.155 204.787 101.299 205.219 101.585C205.651 101.872 205.989 102.27 206.233 102.779C206.48 103.287 206.604 103.877 206.604 104.547C206.604 105.212 206.482 105.799 206.237 106.307C205.993 106.813 205.653 107.209 205.219 107.496C204.787 107.783 204.288 107.926 203.723 107.926ZM203.723 107.232C204.178 107.232 204.562 107.11 204.878 106.865C205.193 106.621 205.432 106.296 205.594 105.889C205.759 105.483 205.841 105.036 205.841 104.547C205.841 104.059 205.759 103.61 205.594 103.201C205.432 102.791 205.193 102.463 204.878 102.216C204.562 101.969 204.178 101.845 203.723 101.845C203.271 101.845 202.886 101.969 202.568 102.216C202.253 102.463 202.013 102.791 201.848 103.201C201.686 103.61 201.605 104.059 201.605 104.547C201.605 105.036 201.686 105.483 201.848 105.889C202.013 106.296 202.253 106.621 202.568 106.865C202.884 107.11 203.268 107.232 203.723 107.232ZM210.842 101.245V101.905H207.625V101.245H210.842ZM208.63 107.79V100.286C208.63 99.9335 208.711 99.6366 208.873 99.3952C209.038 99.1537 209.252 98.9704 209.517 98.8454C209.781 98.7204 210.061 98.6579 210.356 98.6579C210.555 98.6579 210.72 98.675 210.851 98.7091C210.984 98.7403 211.089 98.7716 211.166 98.8028L210.944 99.4676C210.887 99.4506 210.818 99.4307 210.735 99.4079C210.653 99.3852 210.549 99.3738 210.424 99.3738C210.095 99.3738 209.841 99.4662 209.662 99.6508C209.483 99.8355 209.393 100.1 209.393 100.443L209.389 107.79H208.63ZM214.613 107.926C214.002 107.926 213.473 107.784 213.027 107.5C212.581 107.213 212.236 106.817 211.992 106.311C211.75 105.803 211.63 105.218 211.63 104.556C211.63 103.897 211.75 103.311 211.992 102.8C212.236 102.286 212.573 101.884 213.002 101.594C213.434 101.301 213.932 101.155 214.498 101.155C214.853 101.155 215.195 101.22 215.525 101.351C215.854 101.479 216.15 101.676 216.411 101.943C216.675 102.208 216.884 102.541 217.037 102.945C217.191 103.345 217.267 103.82 217.267 104.368V104.743H212.154V104.074H216.492C216.492 103.654 216.407 103.276 216.236 102.941C216.069 102.603 215.834 102.335 215.533 102.139C215.235 101.943 214.89 101.845 214.498 101.845C214.083 101.845 213.718 101.956 213.402 102.178C213.087 102.399 212.84 102.692 212.661 103.056C212.485 103.419 212.395 103.817 212.392 104.249V104.649C212.392 105.169 212.482 105.624 212.661 106.013C212.843 106.399 213.1 106.699 213.432 106.912C213.765 107.125 214.158 107.232 214.613 107.232C214.922 107.232 215.194 107.184 215.427 107.087C215.662 106.99 215.86 106.861 216.019 106.699C216.181 106.534 216.303 106.354 216.385 106.158L217.106 106.392C217.006 106.668 216.843 106.922 216.615 107.155C216.391 107.388 216.11 107.576 215.772 107.718C215.436 107.857 215.05 107.926 214.613 107.926ZM223.217 102.681L222.522 102.877C222.454 102.681 222.357 102.503 222.232 102.344C222.107 102.185 221.944 102.059 221.742 101.965C221.543 101.871 221.296 101.824 221.001 101.824C220.558 101.824 220.194 101.929 219.91 102.139C219.626 102.35 219.484 102.621 219.484 102.953C219.484 103.235 219.58 103.463 219.774 103.639C219.97 103.813 220.271 103.951 220.677 104.053L221.666 104.296C222.214 104.429 222.624 104.641 222.897 104.931C223.173 105.22 223.31 105.584 223.31 106.022C223.31 106.391 223.208 106.719 223.004 107.006C222.799 107.293 222.514 107.519 222.147 107.684C221.783 107.845 221.362 107.926 220.881 107.926C220.242 107.926 219.715 107.783 219.3 107.496C218.886 107.206 218.62 106.789 218.504 106.243L219.232 106.064C219.326 106.453 219.509 106.747 219.782 106.946C220.058 107.145 220.42 107.245 220.869 107.245C221.372 107.245 221.774 107.132 222.075 106.908C222.376 106.681 222.526 106.397 222.526 106.056C222.526 105.791 222.438 105.57 222.262 105.391C222.086 105.209 221.819 105.076 221.461 104.99L220.391 104.735C219.823 104.598 219.403 104.382 219.13 104.087C218.857 103.791 218.721 103.425 218.721 102.987C218.721 102.627 218.819 102.31 219.015 102.037C219.211 101.762 219.481 101.546 219.825 101.389C220.168 101.233 220.56 101.155 221.001 101.155C221.6 101.155 222.079 101.291 222.437 101.564C222.798 101.834 223.058 102.206 223.217 102.681ZM229.249 102.681L228.554 102.877C228.486 102.681 228.39 102.503 228.265 102.344C228.14 102.185 227.976 102.059 227.775 101.965C227.576 101.871 227.329 101.824 227.033 101.824C226.59 101.824 226.226 101.929 225.942 102.139C225.658 102.35 225.516 102.621 225.516 102.953C225.516 103.235 225.613 103.463 225.806 103.639C226.002 103.813 226.303 103.951 226.709 104.053L227.698 104.296C228.246 104.429 228.657 104.641 228.929 104.931C229.205 105.22 229.343 105.584 229.343 106.022C229.343 106.391 229.241 106.719 229.036 107.006C228.831 107.293 228.546 107.519 228.179 107.684C227.816 107.845 227.394 107.926 226.914 107.926C226.275 107.926 225.748 107.783 225.333 107.496C224.918 107.206 224.652 106.789 224.536 106.243L225.265 106.064C225.358 106.453 225.542 106.747 225.814 106.946C226.09 107.145 226.452 107.245 226.901 107.245C227.404 107.245 227.806 107.132 228.107 106.908C228.408 106.681 228.559 106.397 228.559 106.056C228.559 105.791 228.471 105.57 228.294 105.391C228.118 105.209 227.851 105.076 227.493 104.99L226.424 104.735C225.856 104.598 225.435 104.382 225.162 104.087C224.89 103.791 224.753 103.425 224.753 102.987C224.753 102.627 224.851 102.31 225.047 102.037C225.243 101.762 225.513 101.546 225.857 101.389C226.201 101.233 226.593 101.155 227.033 101.155C227.633 101.155 228.111 101.291 228.469 101.564C228.83 101.834 229.09 102.206 229.249 102.681ZM230.892 107.79V101.245H231.655V107.79H230.892ZM231.28 100.12C231.124 100.12 230.99 100.067 230.879 99.9619C230.769 99.854 230.713 99.7247 230.713 99.5741C230.713 99.4236 230.769 99.2957 230.879 99.1906C230.99 99.0827 231.124 99.0287 231.28 99.0287C231.436 99.0287 231.57 99.0827 231.681 99.1906C231.791 99.2957 231.847 99.4236 231.847 99.5741C231.847 99.7247 231.791 99.854 231.681 99.9619C231.57 100.067 231.436 100.12 231.28 100.12ZM236.085 107.926C235.52 107.926 235.02 107.783 234.585 107.496C234.153 107.209 233.815 106.813 233.571 106.307C233.327 105.799 233.204 105.212 233.204 104.547C233.204 103.877 233.327 103.287 233.571 102.779C233.815 102.267 234.153 101.87 234.585 101.585C235.02 101.299 235.52 101.155 236.085 101.155C236.65 101.155 237.149 101.299 237.581 101.585C238.013 101.872 238.351 102.27 238.595 102.779C238.842 103.287 238.966 103.877 238.966 104.547C238.966 105.212 238.844 105.799 238.599 106.307C238.355 106.813 238.015 107.209 237.581 107.496C237.149 107.783 236.65 107.926 236.085 107.926ZM236.085 107.232C236.54 107.232 236.925 107.11 237.24 106.865C237.555 106.621 237.794 106.296 237.956 105.889C238.121 105.483 238.203 105.036 238.203 104.547C238.203 104.059 238.121 103.61 237.956 103.201C237.794 102.791 237.555 102.463 237.24 102.216C236.925 101.969 236.54 101.845 236.085 101.845C235.633 101.845 235.248 101.969 234.93 102.216C234.615 102.463 234.375 102.791 234.21 103.201C234.048 103.61 233.967 104.059 233.967 104.547C233.967 105.036 234.048 105.483 234.21 105.889C234.375 106.296 234.615 106.621 234.93 106.865C235.246 107.11 235.63 107.232 236.085 107.232ZM241.269 103.699V107.79H240.511V101.245H241.248V102.272H241.316C241.47 101.936 241.708 101.668 242.032 101.466C242.359 101.262 242.762 101.159 243.242 101.159C243.683 101.159 244.069 101.252 244.401 101.436C244.737 101.618 244.997 101.887 245.181 102.242C245.369 102.597 245.463 103.033 245.463 103.55V107.79H244.704V103.597C244.704 103.06 244.553 102.635 244.252 102.323C243.954 102.01 243.553 101.854 243.051 101.854C242.707 101.854 242.401 101.928 242.134 102.076C241.867 102.223 241.656 102.436 241.499 102.715C241.346 102.99 241.269 103.318 241.269 103.699ZM249.168 107.939C248.773 107.939 248.413 107.862 248.086 107.709C247.759 107.553 247.499 107.328 247.306 107.036C247.113 106.74 247.016 106.382 247.016 105.962C247.016 105.638 247.077 105.365 247.199 105.144C247.322 104.922 247.495 104.74 247.719 104.598C247.944 104.456 248.209 104.344 248.516 104.262C248.823 104.179 249.161 104.115 249.53 104.07C249.897 104.024 250.207 103.985 250.459 103.951C250.715 103.916 250.91 103.862 251.043 103.789C251.177 103.715 251.243 103.595 251.243 103.431V103.277C251.243 102.831 251.11 102.48 250.843 102.225C250.579 101.966 250.198 101.837 249.701 101.837C249.229 101.837 248.844 101.941 248.546 102.148C248.251 102.355 248.043 102.6 247.924 102.881L247.204 102.621C247.351 102.263 247.556 101.978 247.817 101.764C248.079 101.549 248.371 101.394 248.695 101.3C249.019 101.203 249.347 101.155 249.68 101.155C249.93 101.155 250.189 101.188 250.459 101.253C250.732 101.318 250.985 101.432 251.218 101.594C251.451 101.753 251.64 101.976 251.785 102.263C251.93 102.547 252.002 102.908 252.002 103.345V107.79H251.243V106.755H251.197C251.106 106.948 250.971 107.135 250.792 107.317C250.613 107.499 250.388 107.648 250.118 107.764C249.849 107.881 249.532 107.939 249.168 107.939ZM249.27 107.245C249.674 107.245 250.023 107.155 250.319 106.976C250.614 106.797 250.841 106.56 251.001 106.264C251.163 105.966 251.243 105.638 251.243 105.28V104.334C251.187 104.388 251.091 104.436 250.958 104.479C250.827 104.522 250.675 104.56 250.502 104.594C250.332 104.625 250.161 104.652 249.991 104.675C249.82 104.698 249.667 104.718 249.53 104.735C249.161 104.78 248.846 104.851 248.584 104.948C248.323 105.044 248.123 105.178 247.984 105.348C247.844 105.516 247.775 105.732 247.775 105.996C247.775 106.394 247.917 106.702 248.201 106.921C248.485 107.137 248.841 107.245 249.27 107.245ZM254.658 99.0628V107.79H253.9V99.0628H254.658ZM220.185 116.245C220.137 115.759 219.922 115.372 219.542 115.085C219.161 114.799 218.682 114.655 218.106 114.655C217.699 114.655 217.341 114.725 217.032 114.864C216.725 115.003 216.483 115.196 216.307 115.443C216.134 115.688 216.047 115.966 216.047 116.279C216.047 116.509 216.097 116.71 216.196 116.884C216.296 117.057 216.429 117.206 216.597 117.331C216.767 117.453 216.955 117.559 217.16 117.647C217.367 117.735 217.576 117.809 217.786 117.868L218.706 118.132C218.985 118.209 219.263 118.307 219.542 118.426C219.82 118.546 220.074 118.696 220.304 118.878C220.537 119.057 220.723 119.277 220.863 119.539C221.005 119.797 221.076 120.108 221.076 120.472C221.076 120.938 220.955 121.357 220.714 121.729C220.472 122.101 220.125 122.397 219.674 122.615C219.222 122.831 218.681 122.939 218.05 122.939C217.456 122.939 216.941 122.841 216.503 122.645C216.066 122.446 215.722 122.172 215.472 121.823C215.222 121.473 215.081 121.068 215.05 120.608H215.868C215.897 120.952 216.01 121.243 216.209 121.482C216.408 121.72 216.667 121.902 216.985 122.027C217.303 122.149 217.658 122.21 218.05 122.21C218.485 122.21 218.871 122.138 219.209 121.993C219.55 121.845 219.817 121.641 220.01 121.38C220.206 121.115 220.304 120.809 220.304 120.459C220.304 120.164 220.228 119.916 220.074 119.718C219.921 119.516 219.706 119.347 219.431 119.21C219.158 119.074 218.841 118.953 218.481 118.848L217.437 118.541C216.752 118.337 216.221 118.054 215.843 117.693C215.465 117.333 215.276 116.872 215.276 116.313C215.276 115.844 215.401 115.432 215.651 115.077C215.904 114.719 216.245 114.441 216.674 114.242C217.106 114.04 217.59 113.939 218.127 113.939C218.669 113.939 219.15 114.039 219.567 114.237C219.985 114.436 220.316 114.71 220.56 115.06C220.807 115.407 220.939 115.801 220.956 116.245H220.185ZM225.362 122.926C224.751 122.926 224.223 122.784 223.777 122.5C223.331 122.213 222.986 121.817 222.741 121.311C222.5 120.803 222.379 120.218 222.379 119.556C222.379 118.897 222.5 118.311 222.741 117.8C222.986 117.286 223.322 116.884 223.751 116.594C224.183 116.301 224.682 116.155 225.247 116.155C225.602 116.155 225.944 116.22 226.274 116.351C226.603 116.479 226.899 116.676 227.16 116.943C227.424 117.208 227.633 117.541 227.787 117.945C227.94 118.345 228.017 118.82 228.017 119.368V119.743H222.903V119.074H227.241C227.241 118.654 227.156 118.276 226.986 117.941C226.818 117.603 226.584 117.335 226.282 117.139C225.984 116.943 225.639 116.845 225.247 116.845C224.832 116.845 224.467 116.956 224.152 117.178C223.836 117.399 223.589 117.692 223.41 118.056C223.234 118.419 223.145 118.817 223.142 119.249V119.649C223.142 120.169 223.231 120.624 223.41 121.013C223.592 121.399 223.849 121.699 224.182 121.912C224.514 122.125 224.907 122.232 225.362 122.232C225.672 122.232 225.943 122.184 226.176 122.087C226.412 121.99 226.609 121.861 226.768 121.699C226.93 121.534 227.052 121.354 227.135 121.158L227.855 121.392C227.755 121.668 227.592 121.922 227.365 122.155C227.14 122.388 226.859 122.576 226.521 122.718C226.186 122.857 225.799 122.926 225.362 122.926ZM229.568 122.79V116.245H230.306V117.25H230.361C230.492 116.921 230.719 116.655 231.043 116.453C231.369 116.249 231.739 116.147 232.151 116.147C232.213 116.147 232.283 116.148 232.36 116.151C232.436 116.154 232.5 116.157 232.551 116.159V116.931C232.517 116.925 232.458 116.916 232.372 116.905C232.287 116.894 232.195 116.888 232.095 116.888C231.754 116.888 231.45 116.96 231.183 117.105C230.919 117.247 230.71 117.445 230.557 117.698C230.404 117.951 230.327 118.239 230.327 118.563V122.79H229.568ZM238.992 116.245L236.601 122.79H235.791L233.401 116.245H234.223L236.166 121.789H236.226L238.169 116.245H238.992ZM240.364 122.79V116.245H241.127V122.79H240.364ZM240.752 115.12C240.596 115.12 240.462 115.067 240.351 114.962C240.241 114.854 240.185 114.725 240.185 114.574C240.185 114.424 240.241 114.296 240.351 114.191C240.462 114.083 240.596 114.029 240.752 114.029C240.908 114.029 241.042 114.083 241.153 114.191C241.263 114.296 241.319 114.424 241.319 114.574C241.319 114.725 241.263 114.854 241.153 114.962C241.042 115.067 240.908 115.12 240.752 115.12ZM245.57 122.926C244.985 122.926 244.475 122.78 244.04 122.487C243.608 122.195 243.273 121.794 243.034 121.286C242.796 120.777 242.676 120.198 242.676 119.547C242.676 118.891 242.797 118.307 243.039 117.796C243.283 117.284 243.621 116.884 244.053 116.594C244.485 116.301 244.986 116.155 245.557 116.155C245.995 116.155 246.391 116.24 246.746 116.411C247.101 116.578 247.394 116.816 247.624 117.122C247.857 117.426 248.003 117.782 248.063 118.188H247.296C247.216 117.818 247.024 117.503 246.72 117.242C246.419 116.978 246.036 116.845 245.57 116.845C245.152 116.845 244.783 116.959 244.462 117.186C244.141 117.411 243.889 117.725 243.708 118.128C243.529 118.529 243.439 118.993 243.439 119.522C243.439 120.053 243.527 120.523 243.703 120.932C243.88 121.338 244.127 121.657 244.445 121.887C244.766 122.117 245.141 122.232 245.57 122.232C245.86 122.232 246.124 122.178 246.362 122.07C246.604 121.959 246.806 121.803 246.968 121.601C247.132 121.399 247.243 121.159 247.3 120.881H248.067C248.01 121.276 247.87 121.628 247.645 121.938C247.424 122.245 247.135 122.486 246.78 122.662C246.428 122.838 246.024 122.926 245.57 122.926ZM252.219 122.926C251.608 122.926 251.08 122.784 250.634 122.5C250.188 122.213 249.843 121.817 249.598 121.311C249.357 120.803 249.236 120.218 249.236 119.556C249.236 118.897 249.357 118.311 249.598 117.8C249.843 117.286 250.179 116.884 250.608 116.594C251.04 116.301 251.539 116.155 252.104 116.155C252.459 116.155 252.801 116.22 253.131 116.351C253.46 116.479 253.756 116.676 254.017 116.943C254.282 117.208 254.49 117.541 254.644 117.945C254.797 118.345 254.874 118.82 254.874 119.368V119.743H249.76V119.074H254.098C254.098 118.654 254.013 118.276 253.843 117.941C253.675 117.603 253.441 117.335 253.139 117.139C252.841 116.943 252.496 116.845 252.104 116.845C251.689 116.845 251.324 116.956 251.009 117.178C250.693 117.399 250.446 117.692 250.267 118.056C250.091 118.419 250.002 118.817 249.999 119.249V119.649C249.999 120.169 250.088 120.624 250.267 121.013C250.449 121.399 250.706 121.699 251.039 121.912C251.371 122.125 251.764 122.232 252.219 122.232C252.529 122.232 252.8 122.184 253.033 122.087C253.269 121.99 253.466 121.861 253.625 121.699C253.787 121.534 253.909 121.354 253.992 121.158L254.712 121.392C254.612 121.668 254.449 121.922 254.222 122.155C253.997 122.388 253.716 122.576 253.378 122.718C253.043 122.857 252.657 122.926 252.219 122.926Z" fill="#0B0B0B"/>
<path d="M178.019 51.3869L185.289 58.6759L201.65 42.2712M218.011 53.2134C218.011 71.1071 198.55 84.1182 191.471 88.2562C190.668 88.7237 190.262 88.9661 189.692 89.0873C189.252 89.1825 188.604 89.1825 188.164 89.0873C187.594 88.9661 187.197 88.7323 186.385 88.2562C179.305 84.1182 159.845 71.0984 159.845 53.2134V35.7786C159.845 32.8613 159.845 31.4069 160.32 30.1517C160.743 29.0436 161.425 28.0568 162.305 27.2776C163.307 26.3946 164.671 25.8839 167.391 24.8537L186.886 17.5214C187.646 17.2357 188.017 17.0972 188.406 17.0366C188.751 16.9847 189.105 16.9847 189.442 17.0366C189.83 17.0972 190.21 17.2357 190.961 17.5214L210.456 24.8537C213.176 25.8752 214.54 26.386 215.542 27.2776C216.431 28.0568 217.113 29.0436 217.528 30.1517C218.003 31.4069 218.003 32.8613 218.003 35.7786V53.2134H218.011Z" stroke="white" stroke-width="2.77981" stroke-linecap="round" stroke-linejoin="round"/>
</svg>
