<svg width="483" height="506" viewBox="0 0 483 506" fill="none" xmlns="http://www.w3.org/2000/svg">
<path d="M189.074 1.25781H37.3325C16.7143 1.25781 0 18.0166 0 38.6895V201.486C0 222.159 16.7143 238.918 37.3325 238.918H189.074C209.692 238.918 226.406 222.159 226.406 201.486V38.6895C226.406 18.0166 209.692 1.25781 189.074 1.25781Z" fill="#ED6F60"/>
<path d="M123.698 180.177V191.813H121.238V180.177H123.698ZM128.097 186.768V191.813H125.677V183.086H127.983V184.626H128.086C128.279 184.118 128.603 183.717 129.057 183.421C129.512 183.122 130.063 182.973 130.711 182.973C131.317 182.973 131.845 183.105 132.296 183.37C132.747 183.635 133.097 184.014 133.347 184.507C133.597 184.995 133.722 185.579 133.722 186.257V191.813H131.302V186.688C131.305 186.154 131.169 185.738 130.893 185.438C130.616 185.135 130.235 184.984 129.75 184.984C129.425 184.984 129.137 185.054 128.887 185.194C128.641 185.334 128.447 185.539 128.307 185.808C128.171 186.073 128.101 186.393 128.097 186.768ZM138.05 186.768V191.813H135.63V183.086H137.937V184.626H138.039C138.232 184.118 138.556 183.717 139.01 183.421C139.465 183.122 140.016 182.973 140.664 182.973C141.27 182.973 141.798 183.105 142.249 183.37C142.7 183.635 143.05 184.014 143.3 184.507C143.55 184.995 143.675 185.579 143.675 186.257V191.813H141.255V186.688C141.259 186.154 141.122 185.738 140.846 185.438C140.569 185.135 140.188 184.984 139.704 184.984C139.378 184.984 139.09 185.054 138.84 185.194C138.594 185.334 138.401 185.539 138.26 185.808C138.124 186.073 138.054 186.393 138.05 186.768ZM149.526 191.984C148.643 191.984 147.88 191.796 147.236 191.421C146.596 191.043 146.102 190.516 145.753 189.842C145.405 189.164 145.231 188.378 145.231 187.484C145.231 186.582 145.405 185.795 145.753 185.12C146.102 184.442 146.596 183.916 147.236 183.541C147.88 183.162 148.643 182.973 149.526 182.973C150.409 182.973 151.17 183.162 151.81 183.541C152.454 183.916 152.95 184.442 153.299 185.12C153.647 185.795 153.821 186.582 153.821 187.484C153.821 188.378 153.647 189.164 153.299 189.842C152.95 190.516 152.454 191.043 151.81 191.421C151.17 191.796 150.409 191.984 149.526 191.984ZM149.537 190.109C149.939 190.109 150.274 189.995 150.543 189.768C150.812 189.537 151.015 189.223 151.151 188.825C151.291 188.427 151.361 187.974 151.361 187.467C151.361 186.959 151.291 186.507 151.151 186.109C151.015 185.711 150.812 185.397 150.543 185.166C150.274 184.935 149.939 184.819 149.537 184.819C149.132 184.819 148.791 184.935 148.515 185.166C148.242 185.397 148.036 185.711 147.895 186.109C147.759 186.507 147.691 186.959 147.691 187.467C147.691 187.974 147.759 188.427 147.895 188.825C148.036 189.223 148.242 189.537 148.515 189.768C148.791 189.995 149.132 190.109 149.537 190.109ZM163.25 183.086L160.199 191.813H157.472L154.421 183.086H156.978L158.79 189.331H158.881L160.688 183.086H163.25ZM166.743 191.978C166.187 191.978 165.69 191.882 165.255 191.688C164.819 191.492 164.474 191.202 164.221 190.819C163.971 190.433 163.846 189.952 163.846 189.376C163.846 188.891 163.935 188.484 164.113 188.154C164.291 187.825 164.533 187.56 164.84 187.359C165.147 187.158 165.495 187.007 165.885 186.904C166.279 186.802 166.692 186.73 167.124 186.688C167.632 186.635 168.041 186.586 168.351 186.541C168.662 186.492 168.887 186.42 169.027 186.325C169.168 186.23 169.238 186.09 169.238 185.904V185.87C169.238 185.51 169.124 185.232 168.897 185.035C168.673 184.838 168.355 184.74 167.942 184.74C167.507 184.74 167.16 184.836 166.902 185.029C166.645 185.219 166.474 185.457 166.391 185.745L164.152 185.563C164.266 185.033 164.49 184.575 164.823 184.188C165.156 183.798 165.586 183.499 166.113 183.291C166.643 183.079 167.257 182.973 167.954 182.973C168.438 182.973 168.902 183.029 169.346 183.143C169.793 183.257 170.188 183.433 170.533 183.671C170.882 183.91 171.156 184.217 171.357 184.592C171.558 184.963 171.658 185.408 171.658 185.927V191.813H169.363V190.603H169.295C169.154 190.876 168.967 191.117 168.732 191.325C168.497 191.529 168.215 191.69 167.885 191.808C167.556 191.921 167.175 191.978 166.743 191.978ZM167.437 190.308C167.793 190.308 168.107 190.238 168.38 190.098C168.652 189.954 168.866 189.76 169.022 189.518C169.177 189.276 169.255 189.001 169.255 188.694V187.768C169.179 187.817 169.075 187.863 168.942 187.904C168.813 187.942 168.668 187.978 168.505 188.012C168.342 188.043 168.179 188.071 168.016 188.098C167.853 188.12 167.705 188.141 167.573 188.16C167.289 188.202 167.041 188.268 166.829 188.359C166.616 188.45 166.452 188.573 166.334 188.728C166.217 188.88 166.158 189.069 166.158 189.296C166.158 189.626 166.277 189.878 166.516 190.052C166.759 190.223 167.065 190.308 167.437 190.308ZM178.178 183.086V184.904H172.922V183.086H178.178ZM174.116 180.995H176.536V189.132C176.536 189.355 176.57 189.529 176.638 189.654C176.706 189.776 176.801 189.861 176.922 189.91C177.047 189.959 177.191 189.984 177.354 189.984C177.468 189.984 177.581 189.974 177.695 189.956C177.809 189.933 177.896 189.916 177.956 189.904L178.337 191.706C178.216 191.743 178.045 191.787 177.826 191.836C177.606 191.889 177.339 191.921 177.025 191.933C176.441 191.956 175.93 191.878 175.491 191.7C175.055 191.522 174.716 191.245 174.473 190.87C174.231 190.495 174.112 190.022 174.116 189.45V180.995ZM179.755 191.813V183.086H182.175V191.813H179.755ZM180.971 181.961C180.611 181.961 180.302 181.842 180.045 181.603C179.791 181.361 179.664 181.071 179.664 180.734C179.664 180.401 179.791 180.115 180.045 179.876C180.302 179.634 180.611 179.512 180.971 179.512C181.33 179.512 181.637 179.634 181.891 179.876C182.149 180.115 182.277 180.401 182.277 180.734C182.277 181.071 182.149 181.361 181.891 181.603C181.637 181.842 181.33 181.961 180.971 181.961ZM192.25 183.086L189.199 191.813H186.472L183.421 183.086H185.978L187.79 189.331H187.881L189.688 183.086H192.25ZM197.185 191.984C196.287 191.984 195.515 191.802 194.867 191.438C194.223 191.071 193.727 190.552 193.378 189.882C193.03 189.207 192.856 188.41 192.856 187.49C192.856 186.592 193.03 185.804 193.378 185.126C193.727 184.448 194.217 183.92 194.85 183.541C195.486 183.162 196.232 182.973 197.089 182.973C197.664 182.973 198.2 183.065 198.696 183.251C199.196 183.433 199.632 183.707 200.003 184.075C200.378 184.442 200.67 184.904 200.878 185.461C201.087 186.014 201.191 186.662 201.191 187.404V188.069H193.821V186.569H198.912C198.912 186.221 198.837 185.912 198.685 185.643C198.534 185.374 198.323 185.164 198.054 185.012C197.789 184.857 197.481 184.779 197.128 184.779C196.761 184.779 196.435 184.865 196.151 185.035C195.871 185.202 195.651 185.427 195.492 185.711C195.333 185.992 195.251 186.304 195.248 186.649V188.075C195.248 188.507 195.327 188.88 195.486 189.194C195.649 189.509 195.878 189.751 196.174 189.921C196.469 190.092 196.82 190.177 197.225 190.177C197.494 190.177 197.74 190.139 197.964 190.063C198.187 189.988 198.378 189.874 198.537 189.723C198.696 189.571 198.818 189.385 198.901 189.166L201.14 189.313C201.026 189.851 200.793 190.321 200.441 190.723C200.092 191.12 199.642 191.431 199.089 191.654C198.539 191.874 197.905 191.984 197.185 191.984ZM169.894 213.813V202.177H174.485C175.364 202.177 176.114 202.334 176.735 202.649C177.36 202.959 177.835 203.401 178.161 203.973C178.491 204.541 178.655 205.209 178.655 205.978C178.655 206.751 178.489 207.416 178.155 207.973C177.822 208.526 177.339 208.95 176.706 209.245C176.078 209.541 175.316 209.688 174.422 209.688H171.348V207.711H174.025C174.494 207.711 174.884 207.647 175.195 207.518C175.506 207.389 175.737 207.196 175.888 206.938C176.044 206.681 176.121 206.361 176.121 205.978C176.121 205.592 176.044 205.266 175.888 205.001C175.737 204.736 175.504 204.535 175.189 204.399C174.879 204.259 174.487 204.188 174.013 204.188H172.354V213.813H169.894ZM176.178 208.518L179.07 213.813H176.354L173.525 208.518H176.178ZM183.917 213.984C183.114 213.984 182.42 213.84 181.837 213.552C181.254 213.264 180.805 212.874 180.491 212.382C180.18 211.885 180.025 211.332 180.025 210.723C180.025 210.268 180.116 209.865 180.297 209.512C180.479 209.16 180.733 208.836 181.059 208.541C181.384 208.242 181.763 207.944 182.195 207.649L184.451 206.166C184.742 205.98 184.956 205.785 185.093 205.581C185.229 205.372 185.297 205.147 185.297 204.904C185.297 204.673 185.205 204.459 185.019 204.262C184.833 204.065 184.57 203.969 184.229 203.973C184.002 203.973 183.805 204.024 183.638 204.126C183.472 204.224 183.341 204.355 183.246 204.518C183.155 204.677 183.11 204.855 183.11 205.052C183.11 205.295 183.178 205.541 183.314 205.791C183.451 206.041 183.633 206.306 183.86 206.586C184.087 206.863 184.335 207.162 184.604 207.484L190.121 213.813H187.598L182.996 208.688C182.693 208.344 182.39 207.984 182.087 207.609C181.788 207.23 181.538 206.829 181.337 206.404C181.136 205.976 181.036 205.512 181.036 205.012C181.036 204.448 181.167 203.94 181.428 203.49C181.693 203.039 182.064 202.683 182.542 202.421C183.019 202.156 183.576 202.024 184.212 202.024C184.833 202.024 185.369 202.151 185.82 202.404C186.275 202.654 186.623 202.988 186.866 203.404C187.112 203.817 187.235 204.272 187.235 204.768C187.235 205.317 187.098 205.815 186.826 206.262C186.557 206.706 186.178 207.103 185.689 207.456L183.314 209.166C182.992 209.401 182.754 209.641 182.598 209.887C182.447 210.13 182.371 210.363 182.371 210.586C182.371 210.863 182.439 211.111 182.576 211.331C182.712 211.55 182.905 211.724 183.155 211.853C183.405 211.978 183.699 212.041 184.036 212.041C184.445 212.041 184.848 211.948 185.246 211.762C185.648 211.573 186.011 211.306 186.337 210.961C186.667 210.613 186.93 210.2 187.127 209.723C187.324 209.245 187.422 208.717 187.422 208.137H189.428C189.428 208.849 189.35 209.492 189.195 210.063C189.04 210.632 188.824 211.128 188.547 211.552C188.271 211.973 187.955 212.317 187.598 212.586C187.485 212.658 187.375 212.726 187.269 212.791C187.163 212.855 187.053 212.923 186.939 212.995C186.508 213.344 186.025 213.596 185.491 213.751C184.96 213.906 184.436 213.984 183.917 213.984ZM195.3 213.813H191.175V202.177H195.334C196.505 202.177 197.512 202.41 198.357 202.876C199.202 203.338 199.851 204.003 200.306 204.87C200.764 205.738 200.993 206.776 200.993 207.984C200.993 209.196 200.764 210.238 200.306 211.109C199.851 211.98 199.198 212.649 198.346 213.115C197.497 213.581 196.482 213.813 195.3 213.813ZM193.635 211.706H195.198C195.925 211.706 196.537 211.577 197.033 211.319C197.533 211.058 197.908 210.654 198.158 210.109C198.412 209.56 198.539 208.851 198.539 207.984C198.539 207.124 198.412 206.421 198.158 205.876C197.908 205.331 197.535 204.929 197.039 204.671C196.543 204.414 195.931 204.285 195.204 204.285H193.635V211.706Z" fill="#323232"/>
<path d="M69.9985 130.194V145.744C69.9985 153.09 75.9251 159.032 83.2516 159.032C90.5781 159.032 96.5046 153.09 96.5046 145.744V130.194M83.2516 26.1655V32.8097M23.6129 92.6068H16.9863M40.1792 49.42L36.197 45.4273M126.324 49.42L130.306 45.4273M149.517 92.6068H142.89M123.011 92.6068C123.011 114.629 105.216 132.472 83.2516 132.472C61.2876 132.472 43.4924 114.629 43.4924 92.6068C43.4924 70.5845 61.2876 52.742 83.2516 52.742C105.216 52.742 123.011 70.5845 123.011 92.6068Z" stroke="white" stroke-width="5" stroke-linecap="round" stroke-linejoin="round"/>
<path d="M445.667 267.848H293.926C273.308 267.848 256.594 284.606 256.594 305.279V468.076C256.594 488.749 273.308 505.508 293.926 505.508H445.667C466.286 505.508 483 488.749 483 468.076V305.279C483 284.606 466.286 267.848 445.667 267.848Z" fill="#AECAF2"/>
<path d="M389.489 454.177V465.813H387.028V454.177H389.489ZM393.888 460.768V465.813H391.467V457.086H393.774V458.626H393.876C394.07 458.118 394.394 457.717 394.848 457.421C395.303 457.122 395.854 456.973 396.501 456.973C397.108 456.973 397.636 457.105 398.087 457.37C398.537 457.635 398.888 458.014 399.138 458.507C399.388 458.995 399.513 459.579 399.513 460.257V465.813H397.092V460.688C397.096 460.154 396.96 459.738 396.683 459.438C396.407 459.135 396.026 458.984 395.541 458.984C395.215 458.984 394.928 459.054 394.678 459.194C394.431 459.334 394.238 459.539 394.098 459.808C393.962 460.073 393.892 460.393 393.888 460.768ZM406.063 457.086V458.904H400.807V457.086H406.063ZM402 454.995H404.42V463.132C404.42 463.355 404.455 463.529 404.523 463.654C404.591 463.776 404.686 463.861 404.807 463.91C404.932 463.959 405.076 463.984 405.239 463.984C405.352 463.984 405.466 463.974 405.58 463.956C405.693 463.933 405.78 463.916 405.841 463.904L406.222 465.706C406.1 465.743 405.93 465.787 405.71 465.836C405.491 465.889 405.224 465.921 404.909 465.933C404.326 465.956 403.814 465.878 403.375 465.7C402.939 465.522 402.6 465.245 402.358 464.87C402.116 464.495 401.996 464.022 402 463.45V454.995ZM411.523 465.984C410.625 465.984 409.852 465.802 409.205 465.438C408.561 465.071 408.064 464.552 407.716 463.882C407.367 463.207 407.193 462.41 407.193 461.49C407.193 460.592 407.367 459.804 407.716 459.126C408.064 458.448 408.555 457.92 409.188 457.541C409.824 457.162 410.57 456.973 411.426 456.973C412.002 456.973 412.538 457.065 413.034 457.251C413.534 457.433 413.97 457.707 414.341 458.075C414.716 458.442 415.008 458.904 415.216 459.461C415.424 460.014 415.528 460.662 415.528 461.404V462.069H408.159V460.569H413.25C413.25 460.221 413.174 459.912 413.023 459.643C412.871 459.374 412.661 459.164 412.392 459.012C412.127 458.857 411.818 458.779 411.466 458.779C411.099 458.779 410.773 458.865 410.489 459.035C410.208 459.202 409.989 459.427 409.83 459.711C409.67 459.992 409.589 460.304 409.585 460.649V462.075C409.585 462.507 409.665 462.88 409.824 463.194C409.987 463.509 410.216 463.751 410.511 463.921C410.807 464.092 411.157 464.177 411.563 464.177C411.831 464.177 412.078 464.139 412.301 464.063C412.525 463.988 412.716 463.874 412.875 463.723C413.034 463.571 413.155 463.385 413.239 463.166L415.477 463.313C415.364 463.851 415.131 464.321 414.778 464.723C414.43 465.12 413.979 465.431 413.426 465.654C412.877 465.874 412.242 465.984 411.523 465.984ZM421.04 469.268C420.256 469.268 419.583 469.16 419.023 468.944C418.466 468.732 418.023 468.442 417.693 468.075C417.364 467.707 417.15 467.295 417.051 466.836L419.29 466.535C419.358 466.709 419.466 466.872 419.614 467.024C419.761 467.175 419.956 467.296 420.199 467.387C420.445 467.482 420.744 467.529 421.097 467.529C421.623 467.529 422.057 467.401 422.398 467.143C422.742 466.889 422.915 466.463 422.915 465.865V464.268H422.813C422.706 464.51 422.547 464.74 422.335 464.956C422.123 465.171 421.85 465.348 421.517 465.484C421.184 465.62 420.786 465.688 420.324 465.688C419.669 465.688 419.072 465.537 418.534 465.234C418 464.927 417.574 464.459 417.256 463.831C416.941 463.198 416.784 462.399 416.784 461.433C416.784 460.444 416.945 459.618 417.267 458.956C417.589 458.293 418.017 457.796 418.551 457.467C419.089 457.137 419.678 456.973 420.318 456.973C420.807 456.973 421.216 457.056 421.545 457.223C421.875 457.385 422.14 457.59 422.341 457.836C422.545 458.079 422.703 458.317 422.813 458.552H422.903V457.086H425.307V465.899C425.307 466.641 425.125 467.262 424.761 467.762C424.398 468.262 423.894 468.637 423.25 468.887C422.61 469.141 421.873 469.268 421.04 469.268ZM421.091 463.87C421.481 463.87 421.811 463.774 422.08 463.581C422.352 463.384 422.561 463.103 422.705 462.74C422.852 462.372 422.926 461.933 422.926 461.421C422.926 460.91 422.854 460.467 422.71 460.092C422.566 459.713 422.358 459.42 422.085 459.211C421.813 459.003 421.481 458.899 421.091 458.899C420.693 458.899 420.358 459.007 420.085 459.223C419.813 459.435 419.606 459.73 419.466 460.109C419.326 460.488 419.256 460.925 419.256 461.421C419.256 461.925 419.326 462.361 419.466 462.728C419.61 463.092 419.816 463.374 420.085 463.575C420.358 463.772 420.693 463.87 421.091 463.87ZM427.233 465.813V457.086H429.58V458.609H429.67C429.83 458.067 430.097 457.658 430.472 457.382C430.847 457.101 431.278 456.961 431.767 456.961C431.888 456.961 432.019 456.969 432.159 456.984C432.299 456.999 432.422 457.02 432.528 457.046V459.194C432.415 459.16 432.258 459.13 432.057 459.103C431.856 459.077 431.672 459.063 431.506 459.063C431.15 459.063 430.831 459.141 430.551 459.296C430.275 459.448 430.055 459.66 429.892 459.933C429.733 460.206 429.653 460.52 429.653 460.876V465.813H427.233ZM433.78 465.813V457.086H436.2V465.813H433.78ZM434.996 455.961C434.636 455.961 434.327 455.842 434.07 455.603C433.816 455.361 433.689 455.071 433.689 454.734C433.689 454.401 433.816 454.115 434.07 453.876C434.327 453.634 434.636 453.512 434.996 453.512C435.356 453.512 435.662 453.634 435.916 453.876C436.174 454.115 436.303 454.401 436.303 454.734C436.303 455.071 436.174 455.361 435.916 455.603C435.662 455.842 435.356 455.961 434.996 455.961ZM442.781 457.086V458.904H437.526V457.086H442.781ZM438.719 454.995H441.139V463.132C441.139 463.355 441.173 463.529 441.242 463.654C441.31 463.776 441.404 463.861 441.526 463.91C441.651 463.959 441.795 463.984 441.957 463.984C442.071 463.984 442.185 463.974 442.298 463.956C442.412 463.933 442.499 463.916 442.56 463.904L442.94 465.706C442.819 465.743 442.649 465.787 442.429 465.836C442.209 465.889 441.942 465.921 441.628 465.933C441.045 465.956 440.533 465.878 440.094 465.7C439.658 465.522 439.319 465.245 439.077 464.87C438.834 464.495 438.715 464.022 438.719 463.45V454.995ZM445.852 469.086C445.545 469.086 445.258 469.062 444.989 469.012C444.724 468.967 444.504 468.908 444.33 468.836L444.875 467.029C445.159 467.117 445.415 467.164 445.642 467.171C445.873 467.179 446.072 467.126 446.239 467.012C446.409 466.899 446.547 466.706 446.653 466.433L446.795 466.063L443.665 457.086H446.21L448.017 463.495H448.108L449.932 457.086H452.494L449.102 466.757C448.939 467.226 448.718 467.635 448.438 467.984C448.161 468.336 447.811 468.607 447.386 468.796C446.962 468.99 446.451 469.086 445.852 469.086Z" fill="#323232"/>
<path d="M310.306 396.067H324.866C326.763 396.067 328.645 396.301 330.497 396.753L345.896 400.497C349.241 401.308 352.709 401.386 356.085 400.731L373.102 397.408C377.598 396.535 381.735 394.367 384.971 391.217L397.011 379.472C400.448 376.119 400.448 370.692 397.011 367.338C393.915 364.313 389.015 363.985 385.515 366.543L371.485 376.805C369.478 378.271 367.036 379.067 364.516 379.067H350.967H359.6C364.469 379.067 368.405 375.23 368.405 370.489V368.773C368.405 364.843 365.651 361.396 361.747 360.445L348.432 357.201C346.27 356.67 344.045 356.405 341.821 356.405C336.439 356.405 326.686 360.881 326.686 360.881L310.321 367.744M287.984 365.373V397.83C287.984 400.964 287.984 402.524 288.591 403.725C289.12 404.786 289.975 405.628 291.033 406.174C292.231 406.782 293.786 406.782 296.913 406.782H301.377C304.504 406.782 306.059 406.782 307.257 406.174C308.315 405.643 309.155 404.786 309.699 403.725C310.306 402.524 310.306 400.964 310.306 397.83V365.373C310.306 362.238 310.306 360.679 309.699 359.478C309.17 358.433 308.315 357.575 307.257 357.029C306.059 356.421 304.504 356.421 301.377 356.421H296.913C293.786 356.421 292.231 356.421 291.033 357.029C289.975 357.559 289.135 358.417 288.591 359.478C287.984 360.679 287.984 362.238 287.984 365.373ZM372.76 303.782C369.431 296.795 361.747 293.099 354.28 296.67C346.814 300.242 343.625 308.711 346.752 316.15C348.681 320.751 354.218 329.673 358.169 335.818C359.631 338.095 360.363 339.233 361.42 339.888C362.338 340.465 363.474 340.762 364.547 340.731C365.807 340.684 367.005 340.076 369.4 338.828C375.887 335.475 385.126 330.53 389.093 327.505C395.517 322.623 397.104 313.671 392.297 306.855C387.491 300.039 379.122 299.369 372.745 303.751L372.76 303.782Z" stroke="white" stroke-width="5" stroke-linecap="round" stroke-linejoin="round"/>
<path d="M189.074 267.914H37.3325C16.7143 267.914 0 284.673 0 305.346V468.142C0 488.815 16.7143 505.574 37.3325 505.574H189.074C209.692 505.574 226.406 488.815 226.406 468.142V305.346C226.406 284.673 209.692 267.914 189.074 267.914Z" fill="#F7CCDB"/>
<path d="M132.404 446.524C132.358 446.065 132.163 445.709 131.818 445.456C131.474 445.202 131.006 445.075 130.415 445.075C130.014 445.075 129.675 445.132 129.398 445.245C129.122 445.355 128.909 445.509 128.762 445.706C128.618 445.902 128.546 446.126 128.546 446.376C128.538 446.584 128.582 446.766 128.676 446.921C128.775 447.077 128.909 447.211 129.08 447.325C129.25 447.435 129.447 447.531 129.671 447.615C129.894 447.694 130.133 447.762 130.387 447.819L131.432 448.069C131.94 448.183 132.406 448.334 132.83 448.524C133.254 448.713 133.622 448.946 133.932 449.223C134.243 449.499 134.483 449.825 134.654 450.2C134.828 450.575 134.917 451.005 134.921 451.49C134.917 452.202 134.735 452.819 134.375 453.342C134.019 453.861 133.504 454.264 132.83 454.552C132.159 454.836 131.351 454.978 130.404 454.978C129.464 454.978 128.646 454.834 127.949 454.546C127.256 454.259 126.714 453.832 126.324 453.268C125.938 452.7 125.735 451.997 125.716 451.16H128.097C128.123 451.55 128.235 451.876 128.432 452.137C128.633 452.395 128.9 452.59 129.233 452.723C129.57 452.851 129.951 452.916 130.375 452.916C130.792 452.916 131.154 452.855 131.461 452.734C131.771 452.613 132.012 452.444 132.182 452.228C132.353 452.012 132.438 451.764 132.438 451.484C132.438 451.223 132.36 451.003 132.205 450.825C132.053 450.647 131.83 450.495 131.534 450.37C131.243 450.245 130.885 450.132 130.461 450.029L129.193 449.711C128.212 449.473 127.438 449.099 126.87 448.592C126.301 448.084 126.019 447.401 126.023 446.541C126.019 445.836 126.207 445.221 126.586 444.694C126.968 444.168 127.493 443.757 128.159 443.461C128.826 443.166 129.584 443.018 130.432 443.018C131.296 443.018 132.05 443.166 132.693 443.461C133.341 443.757 133.845 444.168 134.205 444.694C134.565 445.221 134.75 445.831 134.762 446.524H132.404ZM142.127 451.098V446.086H144.547V454.813H142.223V453.228H142.132C141.935 453.74 141.608 454.151 141.149 454.461C140.695 454.772 140.14 454.927 139.485 454.927C138.901 454.927 138.388 454.795 137.945 454.529C137.502 454.264 137.155 453.887 136.905 453.399C136.659 452.91 136.534 452.325 136.53 451.643V446.086H138.951V451.211C138.954 451.726 139.093 452.134 139.365 452.433C139.638 452.732 140.004 452.882 140.462 452.882C140.754 452.882 141.026 452.815 141.28 452.683C141.534 452.546 141.738 452.346 141.894 452.081C142.053 451.815 142.13 451.488 142.127 451.098ZM146.483 458.086V446.086H148.87V447.552H148.978C149.084 447.317 149.237 447.079 149.438 446.836C149.642 446.59 149.907 446.385 150.233 446.223C150.563 446.056 150.972 445.973 151.461 445.973C152.097 445.973 152.684 446.139 153.222 446.473C153.76 446.802 154.19 447.3 154.512 447.967C154.834 448.63 154.995 449.461 154.995 450.461C154.995 451.435 154.837 452.257 154.523 452.927C154.212 453.594 153.788 454.099 153.25 454.444C152.716 454.785 152.118 454.956 151.455 454.956C150.985 454.956 150.586 454.878 150.256 454.723C149.93 454.567 149.663 454.372 149.455 454.137C149.247 453.899 149.087 453.658 148.978 453.416H148.904V458.086H146.483ZM148.853 450.45C148.853 450.969 148.925 451.421 149.068 451.808C149.212 452.194 149.421 452.495 149.693 452.711C149.966 452.923 150.298 453.029 150.688 453.029C151.082 453.029 151.415 452.921 151.688 452.706C151.961 452.486 152.167 452.183 152.307 451.796C152.451 451.406 152.523 450.957 152.523 450.45C152.523 449.946 152.453 449.503 152.313 449.12C152.173 448.738 151.966 448.438 151.693 448.223C151.421 448.007 151.086 447.899 150.688 447.899C150.294 447.899 149.961 448.003 149.688 448.211C149.419 448.42 149.212 448.715 149.068 449.098C148.925 449.48 148.853 449.931 148.853 450.45ZM160.586 454.984C159.688 454.984 158.915 454.802 158.267 454.438C157.623 454.071 157.127 453.552 156.779 452.882C156.43 452.207 156.256 451.41 156.256 450.49C156.256 449.592 156.43 448.804 156.779 448.126C157.127 447.448 157.618 446.92 158.25 446.541C158.887 446.162 159.633 445.973 160.489 445.973C161.065 445.973 161.601 446.065 162.097 446.251C162.597 446.433 163.032 446.707 163.404 447.075C163.779 447.442 164.07 447.904 164.279 448.461C164.487 449.014 164.591 449.662 164.591 450.404V451.069H157.222V449.569H162.313C162.313 449.221 162.237 448.912 162.086 448.643C161.934 448.374 161.724 448.164 161.455 448.012C161.19 447.857 160.881 447.779 160.529 447.779C160.161 447.779 159.836 447.865 159.551 448.035C159.271 448.202 159.051 448.427 158.892 448.711C158.733 448.992 158.652 449.304 158.648 449.649V451.075C158.648 451.507 158.728 451.88 158.887 452.194C159.05 452.509 159.279 452.751 159.574 452.921C159.87 453.092 160.22 453.177 160.625 453.177C160.894 453.177 161.14 453.139 161.364 453.063C161.587 452.988 161.779 452.874 161.938 452.723C162.097 452.571 162.218 452.385 162.301 452.166L164.54 452.313C164.426 452.851 164.193 453.321 163.841 453.723C163.493 454.12 163.042 454.431 162.489 454.654C161.94 454.874 161.305 454.984 160.586 454.984ZM166.171 454.813V446.086H168.517V447.609H168.608C168.767 447.067 169.034 446.658 169.409 446.382C169.784 446.101 170.216 445.961 170.705 445.961C170.826 445.961 170.957 445.969 171.097 445.984C171.237 445.999 171.36 446.02 171.466 446.046V448.194C171.353 448.16 171.195 448.13 170.995 448.103C170.794 448.077 170.61 448.063 170.443 448.063C170.087 448.063 169.769 448.141 169.489 448.296C169.212 448.448 168.993 448.66 168.83 448.933C168.671 449.206 168.591 449.52 168.591 449.876V454.813H166.171ZM172.718 454.813V446.086H175.138V454.813H172.718ZM173.934 444.961C173.574 444.961 173.265 444.842 173.007 444.603C172.754 444.361 172.627 444.071 172.627 443.734C172.627 443.401 172.754 443.115 173.007 442.876C173.265 442.634 173.574 442.512 173.934 442.512C174.293 442.512 174.6 442.634 174.854 442.876C175.112 443.115 175.24 443.401 175.24 443.734C175.24 444.071 175.112 444.361 174.854 444.603C174.6 444.842 174.293 444.961 173.934 444.961ZM181.02 454.984C180.138 454.984 179.374 454.796 178.73 454.421C178.09 454.043 177.596 453.516 177.247 452.842C176.899 452.164 176.725 451.378 176.725 450.484C176.725 449.582 176.899 448.795 177.247 448.12C177.596 447.442 178.09 446.916 178.73 446.541C179.374 446.162 180.138 445.973 181.02 445.973C181.903 445.973 182.664 446.162 183.304 446.541C183.948 446.916 184.444 447.442 184.793 448.12C185.141 448.795 185.316 449.582 185.316 450.484C185.316 451.378 185.141 452.164 184.793 452.842C184.444 453.516 183.948 454.043 183.304 454.421C182.664 454.796 181.903 454.984 181.02 454.984ZM181.032 453.109C181.433 453.109 181.768 452.995 182.037 452.768C182.306 452.537 182.509 452.223 182.645 451.825C182.785 451.427 182.855 450.974 182.855 450.467C182.855 449.959 182.785 449.507 182.645 449.109C182.509 448.711 182.306 448.397 182.037 448.166C181.768 447.935 181.433 447.819 181.032 447.819C180.626 447.819 180.285 447.935 180.009 448.166C179.736 448.397 179.53 448.711 179.389 449.109C179.253 449.507 179.185 449.959 179.185 450.467C179.185 450.974 179.253 451.427 179.389 451.825C179.53 452.223 179.736 452.537 180.009 452.768C180.285 452.995 180.626 453.109 181.032 453.109ZM186.889 454.813V446.086H189.236V447.609H189.327C189.486 447.067 189.753 446.658 190.128 446.382C190.503 446.101 190.935 445.961 191.424 445.961C191.545 445.961 191.675 445.969 191.816 445.984C191.956 445.999 192.079 446.02 192.185 446.046V448.194C192.071 448.16 191.914 448.13 191.713 448.103C191.513 448.077 191.329 448.063 191.162 448.063C190.806 448.063 190.488 448.141 190.208 448.296C189.931 448.448 189.711 448.66 189.549 448.933C189.389 449.206 189.31 449.52 189.31 449.876V454.813H186.889ZM145.514 472.768H147.605L148.657 474.12L149.691 475.325L151.639 477.768H149.344L148.003 476.12L147.316 475.143L145.514 472.768ZM151.816 470.995C151.816 472.264 151.575 473.344 151.094 474.234C150.617 475.124 149.965 475.804 149.139 476.274C148.318 476.74 147.393 476.973 146.367 476.973C145.333 476.973 144.405 476.738 143.583 476.268C142.761 475.798 142.111 475.118 141.634 474.228C141.157 473.338 140.918 472.26 140.918 470.995C140.918 469.726 141.157 468.647 141.634 467.757C142.111 466.867 142.761 466.188 143.583 465.723C144.405 465.253 145.333 465.018 146.367 465.018C147.393 465.018 148.318 465.253 149.139 465.723C149.965 466.188 150.617 466.867 151.094 467.757C151.575 468.647 151.816 469.726 151.816 470.995ZM149.321 470.995C149.321 470.173 149.198 469.48 148.952 468.916C148.71 468.351 148.367 467.923 147.924 467.632C147.48 467.34 146.961 467.194 146.367 467.194C145.772 467.194 145.253 467.34 144.81 467.632C144.367 467.923 144.022 468.351 143.776 468.916C143.533 469.48 143.412 470.173 143.412 470.995C143.412 471.817 143.533 472.51 143.776 473.075C144.022 473.639 144.367 474.067 144.81 474.359C145.253 474.651 145.772 474.796 146.367 474.796C146.961 474.796 147.48 474.651 147.924 474.359C148.367 474.067 148.71 473.639 148.952 473.075C149.198 472.51 149.321 471.817 149.321 470.995ZM159.189 473.098V468.086H161.61V476.813H159.286V475.228H159.195C158.998 475.74 158.67 476.151 158.212 476.461C157.757 476.772 157.202 476.927 156.547 476.927C155.964 476.927 155.451 476.795 155.007 476.529C154.564 476.264 154.218 475.887 153.968 475.399C153.721 474.91 153.596 474.325 153.593 473.643V468.086H156.013V473.211C156.017 473.726 156.155 474.134 156.428 474.433C156.701 474.732 157.066 474.882 157.524 474.882C157.816 474.882 158.089 474.815 158.343 474.683C158.596 474.546 158.801 474.346 158.956 474.081C159.115 473.815 159.193 473.488 159.189 473.098ZM166.034 476.978C165.478 476.978 164.981 476.882 164.546 476.688C164.11 476.492 163.765 476.202 163.512 475.819C163.262 475.433 163.137 474.952 163.137 474.376C163.137 473.891 163.226 473.484 163.404 473.154C163.582 472.825 163.824 472.56 164.131 472.359C164.438 472.158 164.786 472.007 165.176 471.904C165.57 471.802 165.983 471.73 166.415 471.688C166.923 471.635 167.332 471.586 167.642 471.541C167.953 471.492 168.178 471.42 168.318 471.325C168.459 471.23 168.529 471.09 168.529 470.904V470.87C168.529 470.51 168.415 470.232 168.188 470.035C167.964 469.838 167.646 469.74 167.233 469.74C166.798 469.74 166.451 469.836 166.193 470.029C165.936 470.219 165.765 470.457 165.682 470.745L163.443 470.563C163.557 470.033 163.781 469.575 164.114 469.188C164.447 468.798 164.877 468.499 165.404 468.291C165.934 468.079 166.548 467.973 167.245 467.973C167.729 467.973 168.193 468.029 168.637 468.143C169.084 468.257 169.479 468.433 169.824 468.671C170.173 468.91 170.447 469.217 170.648 469.592C170.849 469.963 170.949 470.408 170.949 470.927V476.813H168.654V475.603H168.586C168.445 475.876 168.258 476.117 168.023 476.325C167.788 476.529 167.506 476.69 167.176 476.808C166.847 476.921 166.466 476.978 166.034 476.978ZM166.728 475.308C167.084 475.308 167.398 475.238 167.671 475.098C167.943 474.954 168.157 474.76 168.313 474.518C168.468 474.276 168.546 474.001 168.546 473.694V472.768C168.47 472.817 168.366 472.863 168.233 472.904C168.104 472.942 167.959 472.978 167.796 473.012C167.633 473.043 167.47 473.071 167.307 473.098C167.144 473.12 166.997 473.141 166.864 473.16C166.58 473.202 166.332 473.268 166.12 473.359C165.907 473.45 165.743 473.573 165.625 473.728C165.508 473.88 165.449 474.069 165.449 474.296C165.449 474.626 165.568 474.878 165.807 475.052C166.05 475.223 166.356 475.308 166.728 475.308ZM175.247 465.177V476.813H172.827V465.177H175.247ZM177.186 476.813V468.086H179.607V476.813H177.186ZM178.402 466.961C178.042 466.961 177.734 466.842 177.476 466.603C177.222 466.361 177.095 466.071 177.095 465.734C177.095 465.401 177.222 465.115 177.476 464.876C177.734 464.634 178.042 464.512 178.402 464.512C178.762 464.512 179.069 464.634 179.323 464.876C179.58 465.115 179.709 465.401 179.709 465.734C179.709 466.071 179.58 466.361 179.323 466.603C179.069 466.842 178.762 466.961 178.402 466.961ZM186.188 468.086V469.904H180.932V468.086H186.188ZM182.125 465.995H184.546V474.132C184.546 474.355 184.58 474.529 184.648 474.654C184.716 474.776 184.811 474.861 184.932 474.91C185.057 474.959 185.201 474.984 185.364 474.984C185.478 474.984 185.591 474.974 185.705 474.956C185.818 474.933 185.906 474.916 185.966 474.904L186.347 476.706C186.226 476.743 186.055 476.787 185.836 476.836C185.616 476.889 185.349 476.921 185.034 476.933C184.451 476.956 183.94 476.878 183.5 476.7C183.065 476.522 182.726 476.245 182.483 475.87C182.241 475.495 182.122 475.022 182.125 474.45V465.995ZM189.259 480.086C188.952 480.086 188.664 480.062 188.395 480.012C188.13 479.967 187.91 479.908 187.736 479.836L188.282 478.029C188.566 478.117 188.821 478.164 189.049 478.171C189.28 478.179 189.479 478.126 189.645 478.012C189.816 477.899 189.954 477.706 190.06 477.433L190.202 477.063L187.071 468.086H189.617L191.424 474.495H191.514L193.338 468.086H195.901L192.509 477.757C192.346 478.226 192.124 478.635 191.844 478.984C191.568 479.336 191.217 479.607 190.793 479.796C190.369 479.99 189.857 480.086 189.259 480.086Z" fill="#323232"/>
<path d="M54.8633 406.302V347.051M27.9994 357.812V395.525C27.9994 401.483 32.806 406.302 38.7481 406.302H110.878C118.826 406.302 125.593 400.484 126.806 392.593L132.593 354.88C134.102 345.085 126.542 336.258 116.664 336.258H97.8424C94.8714 336.258 92.4758 333.84 92.4758 330.877V311.834C92.4758 304.503 86.5493 298.545 79.2228 298.545C77.4806 298.545 75.894 299.575 75.194 301.181L56.2788 343.838C55.4233 345.787 53.4945 347.035 51.3634 347.035H38.7325C32.7905 347.035 27.9839 351.854 27.9839 357.812H27.9994Z" stroke="white" stroke-width="5" stroke-linecap="round" stroke-linejoin="round"/>
<path d="M445.667 0H293.926C273.308 0 256.594 16.7587 256.594 37.4317V200.228C256.594 220.901 273.308 237.66 293.926 237.66H445.667C466.286 237.66 483 220.901 483 200.228V37.4317C483 16.7587 466.286 0 445.667 0Z" fill="#F9EB72"/>
<path d="M356.326 191.813V180.177H360.916C361.799 180.177 362.551 180.346 363.172 180.683C363.793 181.016 364.267 181.48 364.593 182.075C364.922 182.666 365.087 183.348 365.087 184.12C365.087 184.893 364.92 185.575 364.587 186.166C364.254 186.757 363.771 187.217 363.138 187.546C362.509 187.876 361.748 188.041 360.854 188.041H357.928V186.069H360.456C360.93 186.069 361.32 185.988 361.627 185.825C361.937 185.658 362.168 185.429 362.32 185.137C362.475 184.842 362.553 184.503 362.553 184.12C362.553 183.734 362.475 183.397 362.32 183.109C362.168 182.817 361.937 182.592 361.627 182.433C361.316 182.27 360.922 182.188 360.445 182.188H358.786V191.813H356.326ZM366.639 191.813V183.086H368.986V184.609H369.077C369.236 184.067 369.503 183.658 369.878 183.382C370.253 183.101 370.685 182.961 371.174 182.961C371.295 182.961 371.425 182.969 371.566 182.984C371.706 182.999 371.829 183.02 371.935 183.046V185.194C371.821 185.16 371.664 185.13 371.463 185.103C371.263 185.077 371.079 185.063 370.912 185.063C370.556 185.063 370.238 185.141 369.958 185.296C369.681 185.448 369.461 185.66 369.299 185.933C369.139 186.206 369.06 186.52 369.06 186.876V191.813H366.639ZM376.723 191.984C375.841 191.984 375.077 191.796 374.434 191.421C373.793 191.043 373.299 190.516 372.951 189.842C372.602 189.164 372.428 188.378 372.428 187.484C372.428 186.582 372.602 185.795 372.951 185.12C373.299 184.442 373.793 183.916 374.434 183.541C375.077 183.162 375.841 182.973 376.723 182.973C377.606 182.973 378.367 183.162 379.007 183.541C379.651 183.916 380.148 184.442 380.496 185.12C380.845 185.795 381.019 186.582 381.019 187.484C381.019 188.378 380.845 189.164 380.496 189.842C380.148 190.516 379.651 191.043 379.007 191.421C378.367 191.796 377.606 191.984 376.723 191.984ZM376.735 190.109C377.136 190.109 377.471 189.995 377.74 189.768C378.009 189.537 378.212 189.223 378.348 188.825C378.488 188.427 378.559 187.974 378.559 187.467C378.559 186.959 378.488 186.507 378.348 186.109C378.212 185.711 378.009 185.397 377.74 185.166C377.471 184.935 377.136 184.819 376.735 184.819C376.329 184.819 375.988 184.935 375.712 185.166C375.439 185.397 375.233 185.711 375.093 186.109C374.956 186.507 374.888 186.959 374.888 187.467C374.888 187.974 374.956 188.427 375.093 188.825C375.233 189.223 375.439 189.537 375.712 189.768C375.988 189.995 376.329 190.109 376.735 190.109ZM387.286 183.086V184.904H381.899V183.086H387.286ZM383.132 191.813V182.456C383.132 181.823 383.255 181.298 383.502 180.882C383.752 180.465 384.093 180.152 384.524 179.944C384.956 179.736 385.447 179.632 385.996 179.632C386.367 179.632 386.706 179.66 387.013 179.717C387.324 179.774 387.555 179.825 387.706 179.87L387.274 181.688C387.18 181.658 387.062 181.63 386.922 181.603C386.786 181.577 386.646 181.563 386.502 181.563C386.146 181.563 385.898 181.647 385.757 181.813C385.617 181.976 385.547 182.206 385.547 182.501V191.813H383.132ZM392.429 191.984C391.532 191.984 390.759 191.802 390.111 191.438C389.467 191.071 388.971 190.552 388.622 189.882C388.274 189.207 388.1 188.41 388.1 187.49C388.1 186.592 388.274 185.804 388.622 185.126C388.971 184.448 389.461 183.92 390.094 183.541C390.73 183.162 391.477 182.973 392.333 182.973C392.908 182.973 393.444 183.065 393.941 183.251C394.441 183.433 394.876 183.707 395.247 184.075C395.622 184.442 395.914 184.904 396.122 185.461C396.331 186.014 396.435 186.662 396.435 187.404V188.069H389.066V186.569H394.157C394.157 186.221 394.081 185.912 393.929 185.643C393.778 185.374 393.568 185.164 393.299 185.012C393.033 184.857 392.725 184.779 392.372 184.779C392.005 184.779 391.679 184.865 391.395 185.035C391.115 185.202 390.895 185.427 390.736 185.711C390.577 185.992 390.496 186.304 390.492 186.649V188.075C390.492 188.507 390.571 188.88 390.73 189.194C390.893 189.509 391.122 189.751 391.418 189.921C391.713 190.092 392.064 190.177 392.469 190.177C392.738 190.177 392.984 190.139 393.208 190.063C393.431 189.988 393.622 189.874 393.782 189.723C393.941 189.571 394.062 189.385 394.145 189.166L396.384 189.313C396.27 189.851 396.037 190.321 395.685 190.723C395.336 191.12 394.886 191.431 394.333 191.654C393.783 191.874 393.149 191.984 392.429 191.984ZM405.276 185.575L403.06 185.711C403.022 185.522 402.941 185.351 402.816 185.2C402.691 185.045 402.526 184.921 402.321 184.831C402.121 184.736 401.88 184.688 401.6 184.688C401.225 184.688 400.908 184.768 400.651 184.927C400.393 185.082 400.264 185.291 400.264 185.552C400.264 185.76 400.348 185.937 400.514 186.081C400.681 186.224 400.967 186.34 401.372 186.427L402.952 186.745C403.8 186.92 404.433 187.2 404.85 187.586C405.266 187.973 405.475 188.48 405.475 189.109C405.475 189.681 405.306 190.183 404.969 190.615C404.636 191.046 404.177 191.384 403.594 191.626C403.014 191.865 402.346 191.984 401.588 191.984C400.433 191.984 399.513 191.743 398.827 191.262C398.145 190.777 397.746 190.118 397.628 189.285L400.009 189.16C400.081 189.512 400.255 189.781 400.532 189.967C400.808 190.149 401.162 190.24 401.594 190.24C402.018 190.24 402.359 190.158 402.617 189.995C402.878 189.829 403.011 189.615 403.014 189.353C403.011 189.134 402.918 188.954 402.736 188.813C402.554 188.67 402.274 188.56 401.895 188.484L400.384 188.183C399.532 188.012 398.897 187.717 398.48 187.296C398.068 186.876 397.861 186.34 397.861 185.688C397.861 185.128 398.013 184.645 398.316 184.24C398.622 183.834 399.052 183.522 399.605 183.302C400.162 183.082 400.814 182.973 401.56 182.973C402.662 182.973 403.53 183.206 404.162 183.671C404.799 184.137 405.17 184.772 405.276 185.575ZM414.26 185.575L412.044 185.711C412.006 185.522 411.925 185.351 411.8 185.2C411.675 185.045 411.51 184.921 411.306 184.831C411.105 184.736 410.864 184.688 410.584 184.688C410.209 184.688 409.893 184.768 409.635 184.927C409.378 185.082 409.249 185.291 409.249 185.552C409.249 185.76 409.332 185.937 409.499 186.081C409.666 186.224 409.952 186.34 410.357 186.427L411.936 186.745C412.785 186.92 413.417 187.2 413.834 187.586C414.251 187.973 414.459 188.48 414.459 189.109C414.459 189.681 414.291 190.183 413.953 190.615C413.62 191.046 413.162 191.384 412.578 191.626C411.999 191.865 411.33 191.984 410.573 191.984C409.417 191.984 408.497 191.743 407.811 191.262C407.13 190.777 406.73 190.118 406.613 189.285L408.993 189.16C409.065 189.512 409.239 189.781 409.516 189.967C409.792 190.149 410.147 190.24 410.578 190.24C411.003 190.24 411.344 190.158 411.601 189.995C411.863 189.829 411.995 189.615 411.999 189.353C411.995 189.134 411.902 188.954 411.72 188.813C411.539 188.67 411.258 188.56 410.88 188.484L409.368 188.183C408.516 188.012 407.881 187.717 407.465 187.296C407.052 186.876 406.845 186.34 406.845 185.688C406.845 185.128 406.997 184.645 407.3 184.24C407.607 183.834 408.037 183.522 408.59 183.302C409.147 183.082 409.798 182.973 410.544 182.973C411.647 182.973 412.514 183.206 413.147 183.671C413.783 184.137 414.154 184.772 414.26 185.575ZM415.983 191.813V183.086H418.404V191.813H415.983ZM417.199 181.961C416.839 181.961 416.531 181.842 416.273 181.603C416.019 181.361 415.892 181.071 415.892 180.734C415.892 180.401 416.019 180.115 416.273 179.876C416.531 179.634 416.839 179.512 417.199 179.512C417.559 179.512 417.866 179.634 418.12 179.876C418.377 180.115 418.506 180.401 418.506 180.734C418.506 181.071 418.377 181.361 418.12 181.603C417.866 181.842 417.559 181.961 417.199 181.961ZM424.286 191.984C423.403 191.984 422.64 191.796 421.996 191.421C421.356 191.043 420.862 190.516 420.513 189.842C420.165 189.164 419.99 188.378 419.99 187.484C419.99 186.582 420.165 185.795 420.513 185.12C420.862 184.442 421.356 183.916 421.996 183.541C422.64 183.162 423.403 182.973 424.286 182.973C425.168 182.973 425.93 183.162 426.57 183.541C427.214 183.916 427.71 184.442 428.059 185.12C428.407 185.795 428.581 186.582 428.581 187.484C428.581 188.378 428.407 189.164 428.059 189.842C427.71 190.516 427.214 191.043 426.57 191.421C425.93 191.796 425.168 191.984 424.286 191.984ZM424.297 190.109C424.699 190.109 425.034 189.995 425.303 189.768C425.572 189.537 425.774 189.223 425.911 188.825C426.051 188.427 426.121 187.974 426.121 187.467C426.121 186.959 426.051 186.507 425.911 186.109C425.774 185.711 425.572 185.397 425.303 185.166C425.034 184.935 424.699 184.819 424.297 184.819C423.892 184.819 423.551 184.935 423.274 185.166C423.002 185.397 422.795 185.711 422.655 186.109C422.519 186.507 422.451 186.959 422.451 187.467C422.451 187.974 422.519 188.427 422.655 188.825C422.795 189.223 423.002 189.537 423.274 189.768C423.551 189.995 423.892 190.109 424.297 190.109ZM432.576 186.768V191.813H430.155V183.086H432.462V184.626H432.564C432.757 184.118 433.081 183.717 433.536 183.421C433.99 183.122 434.541 182.973 435.189 182.973C435.795 182.973 436.324 183.105 436.774 183.37C437.225 183.635 437.576 184.014 437.826 184.507C438.076 184.995 438.201 185.579 438.201 186.257V191.813H435.78V186.688C435.784 186.154 435.648 185.738 435.371 185.438C435.095 185.135 434.714 184.984 434.229 184.984C433.903 184.984 433.615 185.054 433.365 185.194C433.119 185.334 432.926 185.539 432.786 185.808C432.649 186.073 432.579 186.393 432.576 186.768ZM442.597 191.978C442.04 191.978 441.544 191.882 441.108 191.688C440.673 191.492 440.328 191.202 440.074 190.819C439.824 190.433 439.699 189.952 439.699 189.376C439.699 188.891 439.788 188.484 439.966 188.154C440.144 187.825 440.387 187.56 440.693 187.359C441 187.158 441.349 187.007 441.739 186.904C442.133 186.802 442.546 186.73 442.978 186.688C443.485 186.635 443.894 186.586 444.205 186.541C444.515 186.492 444.741 186.42 444.881 186.325C445.021 186.23 445.091 186.09 445.091 185.904V185.87C445.091 185.51 444.978 185.232 444.75 185.035C444.527 184.838 444.209 184.74 443.796 184.74C443.36 184.74 443.014 184.836 442.756 185.029C442.498 185.219 442.328 185.457 442.245 185.745L440.006 185.563C440.12 185.033 440.343 184.575 440.676 184.188C441.01 183.798 441.44 183.499 441.966 183.291C442.497 183.079 443.11 182.973 443.807 182.973C444.292 182.973 444.756 183.029 445.199 183.143C445.646 183.257 446.042 183.433 446.387 183.671C446.735 183.91 447.01 184.217 447.211 184.592C447.411 184.963 447.512 185.408 447.512 185.927V191.813H445.216V190.603H445.148C445.008 190.876 444.82 191.117 444.586 191.325C444.351 191.529 444.068 191.69 443.739 191.808C443.409 191.921 443.029 191.978 442.597 191.978ZM443.29 190.308C443.646 190.308 443.961 190.238 444.233 190.098C444.506 189.954 444.72 189.76 444.875 189.518C445.031 189.276 445.108 189.001 445.108 188.694V187.768C445.032 187.817 444.928 187.863 444.796 187.904C444.667 187.942 444.521 187.978 444.358 188.012C444.195 188.043 444.032 188.071 443.87 188.098C443.707 188.12 443.559 188.141 443.426 188.16C443.142 188.202 442.894 188.268 442.682 188.359C442.47 188.45 442.305 188.573 442.188 188.728C442.07 188.88 442.012 189.069 442.012 189.296C442.012 189.626 442.131 189.878 442.37 190.052C442.612 190.223 442.919 190.308 443.29 190.308ZM451.81 180.177V191.813H449.389V180.177H451.81ZM400.56 205.524C400.514 205.065 400.319 204.709 399.975 204.456C399.63 204.202 399.162 204.075 398.571 204.075C398.17 204.075 397.831 204.132 397.554 204.245C397.278 204.355 397.066 204.509 396.918 204.706C396.774 204.902 396.702 205.126 396.702 205.376C396.694 205.584 396.738 205.766 396.833 205.921C396.931 206.077 397.066 206.211 397.236 206.325C397.407 206.435 397.604 206.531 397.827 206.615C398.05 206.694 398.289 206.762 398.543 206.819L399.588 207.069C400.096 207.183 400.562 207.334 400.986 207.524C401.41 207.713 401.778 207.946 402.088 208.223C402.399 208.499 402.639 208.825 402.81 209.2C402.984 209.575 403.073 210.005 403.077 210.49C403.073 211.202 402.891 211.819 402.532 212.342C402.175 212.861 401.66 213.264 400.986 213.552C400.316 213.836 399.507 213.978 398.56 213.978C397.621 213.978 396.802 213.834 396.105 213.546C395.412 213.259 394.871 212.832 394.48 212.268C394.094 211.7 393.891 210.997 393.872 210.16H396.253C396.28 210.55 396.391 210.876 396.588 211.137C396.789 211.395 397.056 211.59 397.389 211.723C397.727 211.851 398.107 211.916 398.532 211.916C398.948 211.916 399.31 211.855 399.617 211.734C399.927 211.613 400.168 211.444 400.338 211.228C400.509 211.012 400.594 210.764 400.594 210.484C400.594 210.223 400.516 210.003 400.361 209.825C400.21 209.647 399.986 209.495 399.691 209.37C399.399 209.245 399.041 209.132 398.617 209.029L397.35 208.711C396.369 208.473 395.594 208.099 395.026 207.592C394.458 207.084 394.175 206.401 394.179 205.541C394.175 204.836 394.363 204.221 394.742 203.694C395.124 203.168 395.649 202.757 396.316 202.461C396.982 202.166 397.74 202.018 398.588 202.018C399.452 202.018 400.206 202.166 400.85 202.461C401.497 202.757 402.001 203.168 402.361 203.694C402.721 204.221 402.907 204.831 402.918 205.524H400.56ZM408.664 213.984C407.766 213.984 406.993 213.802 406.345 213.438C405.702 213.071 405.205 212.552 404.857 211.882C404.508 211.207 404.334 210.41 404.334 209.49C404.334 208.592 404.508 207.804 404.857 207.126C405.205 206.448 405.696 205.92 406.328 205.541C406.965 205.162 407.711 204.973 408.567 204.973C409.143 204.973 409.679 205.065 410.175 205.251C410.675 205.433 411.111 205.707 411.482 206.075C411.857 206.442 412.148 206.904 412.357 207.461C412.565 208.014 412.669 208.662 412.669 209.404V210.069H405.3V208.569H410.391C410.391 208.221 410.315 207.912 410.164 207.643C410.012 207.374 409.802 207.164 409.533 207.012C409.268 206.857 408.959 206.779 408.607 206.779C408.239 206.779 407.914 206.865 407.63 207.035C407.349 207.202 407.13 207.427 406.97 207.711C406.811 207.992 406.73 208.304 406.726 208.649V210.075C406.726 210.507 406.806 210.88 406.965 211.194C407.128 211.509 407.357 211.751 407.652 211.921C407.948 212.092 408.298 212.177 408.703 212.177C408.972 212.177 409.219 212.139 409.442 212.063C409.666 211.988 409.857 211.874 410.016 211.723C410.175 211.571 410.296 211.385 410.38 211.166L412.618 211.313C412.505 211.851 412.272 212.321 411.919 212.723C411.571 213.12 411.12 213.431 410.567 213.654C410.018 213.874 409.383 213.984 408.664 213.984ZM414.249 213.813V205.086H416.595V206.609H416.686C416.845 206.067 417.113 205.658 417.488 205.382C417.863 205.101 418.294 204.961 418.783 204.961C418.904 204.961 419.035 204.969 419.175 204.984C419.315 204.999 419.438 205.02 419.544 205.046V207.194C419.431 207.16 419.273 207.13 419.073 207.103C418.872 207.077 418.688 207.063 418.522 207.063C418.166 207.063 417.847 207.141 417.567 207.296C417.291 207.448 417.071 207.66 416.908 207.933C416.749 208.206 416.669 208.52 416.669 208.876V213.813H414.249ZM429.198 205.086L426.147 213.813H423.419L420.368 205.086H422.925L424.738 211.331H424.828L426.635 205.086H429.198ZM430.436 213.813V205.086H432.857V213.813H430.436ZM431.652 203.961C431.292 203.961 430.984 203.842 430.726 203.603C430.472 203.361 430.345 203.071 430.345 202.734C430.345 202.401 430.472 202.115 430.726 201.876C430.984 201.634 431.292 201.512 431.652 201.512C432.012 201.512 432.319 201.634 432.573 201.876C432.83 202.115 432.959 202.401 432.959 202.734C432.959 203.071 432.83 203.361 432.573 203.603C432.319 203.842 432.012 203.961 431.652 203.961ZM438.739 213.984C437.845 213.984 437.076 213.795 436.432 213.416C435.792 213.033 435.3 212.503 434.955 211.825C434.614 211.147 434.443 210.367 434.443 209.484C434.443 208.59 434.616 207.806 434.961 207.132C435.309 206.454 435.803 205.925 436.443 205.546C437.084 205.164 437.845 204.973 438.728 204.973C439.489 204.973 440.156 205.111 440.728 205.387C441.3 205.664 441.752 206.052 442.086 206.552C442.419 207.052 442.603 207.639 442.637 208.313H440.353C440.288 207.878 440.118 207.527 439.841 207.262C439.568 206.993 439.211 206.859 438.767 206.859C438.392 206.859 438.065 206.961 437.784 207.166C437.508 207.367 437.292 207.66 437.137 208.046C436.981 208.433 436.904 208.901 436.904 209.45C436.904 210.007 436.979 210.48 437.131 210.87C437.286 211.26 437.504 211.558 437.784 211.762C438.065 211.967 438.392 212.069 438.767 212.069C439.044 212.069 439.292 212.012 439.512 211.899C439.735 211.785 439.919 211.62 440.063 211.404C440.211 211.185 440.307 210.921 440.353 210.615H442.637C442.599 211.281 442.417 211.868 442.091 212.376C441.769 212.88 441.324 213.274 440.756 213.558C440.188 213.842 439.515 213.984 438.739 213.984ZM448.164 213.984C447.266 213.984 446.493 213.802 445.845 213.438C445.202 213.071 444.705 212.552 444.357 211.882C444.008 211.207 443.834 210.41 443.834 209.49C443.834 208.592 444.008 207.804 444.357 207.126C444.705 206.448 445.196 205.92 445.828 205.541C446.465 205.162 447.211 204.973 448.067 204.973C448.643 204.973 449.179 205.065 449.675 205.251C450.175 205.433 450.611 205.707 450.982 206.075C451.357 206.442 451.648 206.904 451.857 207.461C452.065 208.014 452.169 208.662 452.169 209.404V210.069H444.8V208.569H449.891C449.891 208.221 449.815 207.912 449.664 207.643C449.512 207.374 449.302 207.164 449.033 207.012C448.768 206.857 448.459 206.779 448.107 206.779C447.739 206.779 447.414 206.865 447.13 207.035C446.849 207.202 446.63 207.427 446.47 207.711C446.311 207.992 446.23 208.304 446.226 208.649V210.075C446.226 210.507 446.306 210.88 446.465 211.194C446.628 211.509 446.857 211.751 447.152 211.921C447.448 212.092 447.798 212.177 448.203 212.177C448.472 212.177 448.719 212.139 448.942 212.063C449.166 211.988 449.357 211.874 449.516 211.723C449.675 211.571 449.796 211.385 449.88 211.166L452.118 211.313C452.005 211.851 451.772 212.321 451.419 212.723C451.071 213.12 450.62 213.431 450.067 213.654C449.518 213.874 448.883 213.984 448.164 213.984Z" fill="#323232"/>
<path d="M320.744 96.7707L333.841 109.903L363.318 80.3476M392.796 100.062C392.796 132.3 357.734 155.741 344.979 163.196C343.532 164.039 342.801 164.475 341.774 164.694C340.981 164.865 339.814 164.865 339.021 164.694C337.994 164.475 337.279 164.054 335.817 163.196C323.061 155.741 288 132.284 288 100.062V68.6502C288 63.3941 288 60.7739 288.856 58.5124C289.618 56.5161 290.847 54.7381 292.433 53.3344C294.238 51.7435 296.695 50.8233 301.595 48.9673L336.719 35.7571C338.088 35.2424 338.757 34.9928 339.457 34.8837C340.079 34.7901 340.717 34.7901 341.323 34.8837C342.023 34.9928 342.708 35.2424 344.061 35.7571L379.185 48.9673C384.085 50.8077 386.542 51.7279 388.347 53.3344C389.949 54.7381 391.178 56.5161 391.924 58.5124C392.78 60.7739 392.78 63.3941 392.78 68.6502V100.062H392.796Z" stroke="white" stroke-width="5" stroke-linecap="round" stroke-linejoin="round"/>
</svg>
