<svg width="345" height="345" viewBox="0 0 345 345" fill="none" xmlns="http://www.w3.org/2000/svg">
<g clip-path="url(#clip0_344_635)">
<path d="M309.799 252.89C329.24 252.89 345 237.166 345 217.77C345 198.374 329.24 182.65 309.799 182.65C290.359 182.65 274.599 198.374 274.599 217.77C274.599 237.166 290.359 252.89 309.799 252.89Z" fill="#F7CCDB"/>
<path d="M309.799 161.57C329.24 161.57 345 145.846 345 126.45C345 107.054 329.24 91.33 309.799 91.33C290.359 91.33 274.599 107.054 274.599 126.45C274.599 145.846 290.359 161.57 309.799 161.57Z" fill="#F9EB72"/>
<path d="M35.2006 161.57C54.6414 161.57 70.4012 145.846 70.4012 126.45C70.4012 107.054 54.6414 91.33 35.2006 91.33C15.7598 91.33 0 107.054 0 126.45C0 145.846 15.7598 161.57 35.2006 161.57Z" fill="#AECAF2"/>
<path d="M218.27 70.24C237.71 70.24 253.47 54.5162 253.47 35.12C253.47 15.7238 237.71 0 218.27 0C198.829 0 183.069 15.7238 183.069 35.12C183.069 54.5162 198.829 70.24 218.27 70.24Z" fill="#F7CCDB"/>
<path d="M126.74 70.24C146.181 70.24 161.941 54.5162 161.941 35.12C161.941 15.7238 146.181 0 126.74 0C107.299 0 91.5396 15.7238 91.5396 35.12C91.5396 54.5162 107.299 70.24 126.74 70.24Z" fill="#F9EB72"/>
<path d="M139.369 67.6299C152.449 62.5999 161.72 49.9399 161.72 35.1199C161.72 28.0099 159.585 21.3899 155.907 15.8799C151.908 16.4399 148.781 17.1599 147.147 17.8099C142.847 19.5299 139.108 21.5599 136.432 23.1699C133.516 21.8799 127.823 19.6899 123.122 19.9399L124.395 23.0299C122.37 22.4799 120.195 22.1099 118.231 22.2199C118.231 22.2199 123.543 30.7099 122.651 32.9199C121.979 34.5599 116.026 40.1599 113.5 40.4699C110.974 40.7799 108.138 40.4699 108.138 40.4699C108.138 40.4699 106.784 47.6599 108.138 50.8599C109.14 53.2399 119.814 57.1499 139.369 61.2499V67.6499V67.6299Z" fill="#DF4425"/>
<path d="M219.172 13.57C219.172 13.57 217.348 17.35 217.207 19.87C217.207 19.87 215.243 19.73 211.875 15.95C211.875 15.95 212.487 20.21 214.221 21.51C214.221 21.51 210.743 27.55 210.763 29.28C210.813 33.8 205.14 47.4101 203.185 51.9501C201.241 56.4801 204.699 59.5101 207.084 60.1501C209.46 60.8001 213.82 59.54 214.221 58.85C214.752 57.95 215.483 54.7101 216.506 53.7701C219.032 51.4501 222.78 50.81 225.216 46.62C227.782 42.21 230.829 47.04 231.811 50.68C232.683 53.9 236.281 60.8301 238.566 63.9501C247.547 57.6301 253.41 47.19 253.41 35.39C253.41 34.07 253.33 32.76 253.19 31.47C245.382 26.22 233.064 19.32 221.978 19.15C221.978 19.15 220.715 14.39 219.172 13.55V13.57Z" fill="#DF4425"/>
<path d="M54.2742 110.49C54.2742 110.49 49.6637 108.45 44.5519 108.65C39.4302 108.85 32.9855 110.79 29.8082 116.51C26.6309 122.23 22.6418 127.64 16.4977 129.99C10.3536 132.34 7.48707 134.38 6.67521 135.4C5.85333 136.42 6.3645 138.16 9.13084 138.46C11.8972 138.77 18.4422 137.75 21.3087 136.42C24.1753 135.09 30.9308 133.36 32.6747 132.54C32.6747 132.54 37.3755 134.48 41.2744 134.17C43.9806 133.96 44.9629 135.44 43.3191 139.5C43.3191 139.5 36.0425 152.95 34.3987 161.54C34.6693 161.54 34.9299 161.55 35.2005 161.55C44.8727 161.55 53.6327 157.63 59.9672 151.3C61.4707 146.46 63.0443 141.51 63.786 139.5C63.786 139.5 70.4412 118.23 54.2642 110.47L54.2742 110.49Z" fill="#DF4425"/>
<path d="M344.278 126.45C344.278 119.81 342.384 113.61 339.117 108.35L330.316 109.46C325.415 109.61 321.687 109 319.081 108.63C317.447 108.4 313.819 108.17 306.772 110.47C306.452 110.68 297.932 116.26 295.286 118.16C293.693 118.75 293.171 119.37 288.14 118.16C288.14 118.16 285.003 124.1 300.829 126.26C300.829 126.26 301.771 128.28 302.854 129.23C302.854 129.23 302.713 135.03 303.936 137.06C305.149 139.08 304.748 143.54 303.806 143.94C302.864 144.34 301.24 146.37 301.099 147.58C300.969 148.79 300.017 152.71 303.806 155.54C307.594 158.37 312.736 159.05 314.901 158.1C317.066 157.16 319.812 152.43 322.358 152.57C324.002 152.66 325.365 154.69 326.778 156.39C337.222 150.48 344.268 139.29 344.268 126.46L344.278 126.45Z" fill="#DF4425"/>
<path d="M343.577 227.96C342.063 225.99 340.66 223.83 339.407 221.5C334.887 213.06 330.376 206.71 321.566 207.17C319.792 207.26 317.657 207.9 315.382 208.86C318.92 205.05 318.379 198.41 318.349 198.13C318.329 197.92 318.189 197.75 317.998 197.68C317.798 197.62 317.587 197.68 317.447 197.83C317.206 198.1 316.364 198.86 315.663 198.86C315.452 198.86 315.272 198.79 315.101 198.65C314.43 198.09 315.362 195.71 316.204 194.27C316.304 194.11 316.294 193.9 316.204 193.74C316.104 193.58 315.943 193.49 315.733 193.49C311.864 193.65 309.008 196.47 307.604 198.21V196.2C307.604 196.01 307.504 195.84 307.334 195.75C307.173 195.66 306.963 195.66 306.802 195.76C303.555 197.77 301.15 201.6 300.207 203.27L299.385 201.95C299.275 201.78 299.075 201.68 298.884 201.71C298.684 201.73 298.513 201.87 298.453 202.06C295.547 210.56 300.959 215.6 301.901 216.4C301.901 216.4 302.062 216.49 302.172 216.42C297.952 219 295.497 223.1 295.497 223.1C299.155 221.94 301.46 222.24 301.46 222.24L303.385 222.47C303.385 222.47 301.661 227.68 303.455 230.01C304.176 230.95 305.249 231.43 306.622 231.43C306.622 231.43 306.632 231.43 306.642 231.43C306.682 231.43 307.654 231.38 308.446 230.52C308.556 230.52 308.677 230.53 308.787 230.53C308.787 230.53 308.797 230.53 308.807 230.53C308.857 230.53 309.99 230.47 310.812 229.38C311.233 228.82 311.483 228.09 311.573 227.22C310.751 226.15 311.644 227.05 312.816 229.08C317.136 236.56 313.628 245.95 311.563 252.77C314.52 252.64 317.377 252.14 320.093 251.32C320.103 251.29 320.113 251.27 320.113 251.27C320.113 251.27 320.113 251.28 320.113 251.31C331.309 247.93 340.149 239.13 343.557 227.97L343.577 227.96Z" fill="#DF4425"/>
<path d="M218.27 344.21C237.71 344.21 253.47 328.486 253.47 309.09C253.47 289.694 237.71 273.97 218.27 273.97C198.829 273.97 183.069 289.694 183.069 309.09C183.069 328.486 198.829 344.21 218.27 344.21Z" fill="#F9EB72"/>
<path d="M218.27 161.57C237.71 161.57 253.47 145.846 253.47 126.45C253.47 107.054 237.71 91.33 218.27 91.33C198.829 91.33 183.069 107.054 183.069 126.45C183.069 145.846 198.829 161.57 218.27 161.57Z" fill="#EEEEEF"/>
<path d="M126.74 344.21C146.181 344.21 161.941 328.486 161.941 309.09C161.941 289.694 146.181 273.97 126.74 273.97C107.299 273.97 91.5396 289.694 91.5396 309.09C91.5396 328.486 107.299 344.21 126.74 344.21Z" fill="#AECAF2"/>
<path d="M35.2006 252.89C54.6414 252.89 70.4012 237.166 70.4012 217.77C70.4012 198.374 54.6414 182.65 35.2006 182.65C15.7598 182.65 0 198.374 0 217.77C0 237.166 15.7598 252.89 35.2006 252.89Z" fill="#EEEEEF"/>
<path d="M126.74 252.89C146.181 252.89 161.941 237.166 161.941 217.77C161.941 198.374 146.181 182.65 126.74 182.65C107.299 182.65 91.5396 198.374 91.5396 217.77C91.5396 237.166 107.299 252.89 126.74 252.89Z" fill="#F9EB72"/>
<path d="M218.27 252.89C237.71 252.89 253.47 237.166 253.47 217.77C253.47 198.374 237.71 182.65 218.27 182.65C198.829 182.65 183.069 198.374 183.069 217.77C183.069 237.166 198.829 252.89 218.27 252.89Z" fill="#EEEEEF"/>
<path d="M35.2006 344.21C54.6414 344.21 70.4012 328.486 70.4012 309.09C70.4012 289.694 54.6414 273.97 35.2006 273.97C15.7598 273.97 0 289.694 0 309.09C0 328.486 15.7598 344.21 35.2006 344.21Z" fill="#EEEEEF"/>
<path d="M35.2005 70.14C54.6136 70.14 70.351 54.4386 70.351 35.07C70.351 15.7014 54.6136 0 35.2005 0C15.7875 0 0.0500488 15.7014 0.0500488 35.07C0.0500488 54.4386 15.7875 70.14 35.2005 70.14Z" fill="#EEEEEF"/>
<path d="M68.978 45.45C67.4646 43.48 66.0614 41.32 64.8085 38.99C60.2882 30.55 55.7778 24.2 46.9676 24.66C45.1936 24.75 43.0587 25.39 40.7835 26.35C44.3216 22.54 43.7803 15.9 43.7503 15.62C43.7302 15.41 43.5899 15.24 43.3995 15.17C43.199 15.11 42.9885 15.17 42.8482 15.32C42.6077 15.59 41.7657 16.35 41.0641 16.35C40.8536 16.35 40.6732 16.28 40.5028 16.14C39.8313 15.58 40.7634 13.2 41.6054 11.76C41.7056 11.6 41.6956 11.39 41.6054 11.23C41.5051 11.07 41.3448 10.98 41.1343 10.98C37.2654 11.14 34.4089 13.96 33.0057 15.7V13.69C33.0057 13.5 32.9054 13.33 32.7351 13.24C32.5747 13.15 32.3642 13.15 32.2038 13.25C28.9564 15.26 26.5509 19.09 25.6087 20.76L24.7869 19.44C24.6766 19.27 24.4761 19.17 24.2857 19.2C24.0852 19.22 23.9149 19.36 23.8547 19.55C20.9481 28.05 26.3605 33.09 27.3026 33.89C27.3026 33.89 27.463 33.98 27.5732 33.91C23.3536 36.49 20.8979 40.59 20.8979 40.59C24.5563 39.43 26.8616 39.73 26.8616 39.73L28.786 39.96C28.786 39.96 27.0621 45.17 28.8562 47.5C29.5778 48.44 30.6503 48.92 32.0234 48.92C32.0234 48.92 32.0334 48.92 32.0435 48.92C32.0836 48.92 33.0558 48.87 33.8476 48.01C33.9579 48.01 34.0781 48.02 34.1884 48.02C34.1884 48.02 34.1984 48.02 34.2084 48.02C34.2585 48.02 35.3911 47.96 36.213 46.87C36.634 46.31 36.8846 45.58 36.9748 44.71C36.1529 43.64 37.0449 44.54 38.2176 46.57C42.5375 54.05 39.0295 63.44 36.9647 70.26C39.9215 70.13 42.7781 69.63 45.4943 68.81C45.5043 68.78 45.5143 68.76 45.5143 68.76C45.5143 68.76 45.5143 68.77 45.5143 68.8C56.71 65.42 65.5502 56.62 68.958 45.46L68.978 45.45Z" fill="#DF4425"/>
<path d="M126.74 160.85C145.782 160.85 161.219 145.449 161.219 126.45C161.219 107.451 145.782 92.05 126.74 92.05C107.698 92.05 92.2612 107.451 92.2612 126.45C92.2612 145.449 107.698 160.85 126.74 160.85Z" fill="#EEEEEF"/>
<path d="M161.219 126.45C161.219 119.81 159.325 113.61 156.057 108.35L147.257 109.46C142.356 109.61 138.628 109 136.022 108.63C134.388 108.4 130.76 108.17 123.713 110.47C123.393 110.68 114.873 116.26 112.227 118.16C110.633 118.75 110.112 119.37 105.081 118.16C105.081 118.16 101.944 124.1 117.77 126.26C117.77 126.26 118.712 128.28 119.794 129.23C119.794 129.23 119.654 135.03 120.877 137.06C122.09 139.08 121.689 143.54 120.747 143.94C119.804 144.34 118.181 146.37 118.04 147.58C117.91 148.79 116.958 152.71 120.747 155.54C124.535 158.37 129.677 159.05 131.842 158.1C134.007 157.16 136.753 152.43 139.299 152.57C140.943 152.66 142.306 154.69 143.719 156.39C154.163 150.48 161.209 139.29 161.209 126.46L161.219 126.45Z" fill="#DF4425"/>
<path d="M36.1128 196.22C36.1128 196.22 34.2886 200 34.1483 202.52C34.1483 202.52 32.1838 202.38 28.8161 198.6C28.8161 198.6 29.4275 202.86 31.1615 204.16C31.1615 204.16 27.6835 210.2 27.7035 211.93C27.7536 216.45 22.0807 230.06 20.1262 234.6C18.1817 239.13 21.6396 242.16 24.0251 242.8C26.4005 243.45 30.7605 242.19 31.1615 241.5C31.6927 240.6 32.4243 237.36 33.4467 236.42C35.9725 234.1 39.7211 233.46 42.1566 229.27C44.7225 224.86 47.7695 229.69 48.7517 233.33C49.6237 236.55 53.222 243.48 55.5072 246.6C64.4878 240.28 70.3512 229.84 70.3512 218.04C70.3512 216.72 70.271 215.41 70.1307 214.12C62.3228 208.87 50.0046 201.97 38.9192 201.8C38.9192 201.8 37.6563 197.04 36.1128 196.2V196.22Z" fill="#DF4425"/>
<path d="M244.841 149.77C237.514 147.08 232.813 143.49 231.801 142.67C231.801 142.65 231.781 142.64 231.771 142.62C227.471 137.86 225.727 133.97 225.015 131.5C225.496 131.04 226.659 130.82 227.782 130.61C229.145 130.35 230.548 130.09 231.169 129.35C232.212 128.12 233.936 121.85 233.465 120.29C233.395 120.05 233.264 119.9 233.084 119.84C233.034 119.83 232.984 119.82 232.934 119.82C231.691 119.82 225.877 124.34 224.354 125.54C224.033 124.45 223.301 123.88 222.249 123.88C221.086 123.88 220.034 124.63 219.212 125.46C226.729 111.01 233.846 104.94 236.652 102.95L236.913 102.78C237.143 102.63 237.374 102.47 237.614 102.32C237.724 102.25 237.755 102.11 237.694 101.99C237.624 101.88 237.484 101.84 237.374 101.9C237.364 101.9 237.013 102.1 236.381 102.54C233.745 104.27 231.2 106.15 228.774 108.17C231.55 105.05 236.371 100.51 236.432 100.45C236.522 100.36 236.532 100.22 236.452 100.12C236.371 100.02 236.221 100.01 236.121 100.09C226.308 107.66 219.994 116.62 219.824 116.86C213.429 124.06 209.941 130.41 208.618 132.81C206.663 136.38 201.933 140.33 199.116 142.68C198.605 143.11 198.154 143.48 197.803 143.79C195.538 145.75 196.861 148.02 197.111 148.41C197.272 150.21 198.735 151.21 201.231 151.21C202.053 151.21 202.855 151.1 203.296 151C204.148 150.81 204.599 149.65 204.749 149.19C204.839 149.19 204.969 149.19 205.13 149.19C206.262 149.19 209.319 149.08 213.268 148.06C213.95 147.88 214.581 147.79 215.143 147.79C218.1 147.79 219.242 150.25 220.685 153.36C220.856 153.74 221.036 154.12 221.227 154.52C222.149 156.45 223.883 158.86 225.507 160.93C233.154 159.4 239.899 155.37 244.851 149.75L244.841 149.77Z" fill="#DF4425"/>
<path d="M230.909 250.28C243.989 245.25 253.26 232.59 253.26 217.77C253.26 210.66 251.125 204.04 247.447 198.53C243.448 199.09 240.32 199.81 238.687 200.46C234.387 202.18 230.648 204.21 227.972 205.82C225.055 204.53 219.362 202.34 214.662 202.59L215.935 205.68C213.91 205.13 211.735 204.76 209.77 204.87C209.77 204.87 215.083 213.36 214.191 215.57C213.519 217.21 207.565 222.81 205.04 223.12C202.514 223.43 199.677 223.12 199.677 223.12C199.677 223.12 198.324 230.31 199.677 233.51C200.68 235.89 211.354 239.8 230.909 243.9V250.3V250.28Z" fill="#DF4425"/>
<path d="M309.799 70.03C329.124 70.03 344.79 54.4002 344.79 35.12C344.79 15.8397 329.124 0.209961 309.799 0.209961C290.475 0.209961 274.809 15.8397 274.809 35.12C274.809 54.4002 290.475 70.03 309.799 70.03Z" fill="#EEEEEF"/>
<path d="M344.359 43.14C333.634 24.41 332.532 26.47 330.547 24.99C328.552 23.5 326.668 23.81 326.668 23.81C326.668 23.81 326.568 23.31 326.167 22.41C325.766 21.52 323.481 20.23 322.288 18.55C321.095 16.88 321.787 12.88 319.401 13.27C317.016 13.67 316.114 23.79 316.114 23.79C314.32 23.89 313.127 22.9 310.942 21.01C308.757 19.12 306.793 18.24 306.793 18.24C304.748 15.73 303.455 13.24 303.084 13.27C302.713 13.3 302.553 14.99 302.633 16.27C302.944 21.02 305.971 28.66 305.971 28.66C303.886 31.04 302.493 34.22 301.39 37C300.298 39.78 302.282 43.49 302.282 43.49C302.282 43.49 301.19 45.74 299.696 48.22C298.203 50.7 290.545 54.28 291.137 56.36C291.738 58.44 295.417 59.83 295.417 59.83C298.203 62.81 306.662 61.52 306.662 61.52L312.185 62.79L317.928 69.46C331.048 66.52 341.382 56.22 344.349 43.13L344.359 43.14Z" fill="#DF4425"/>
<path d="M309.799 344.21C329.24 344.21 345 328.486 345 309.09C345 289.694 329.24 273.97 309.799 273.97C290.359 273.97 274.599 289.694 274.599 309.09C274.599 328.486 290.359 344.21 309.799 344.21Z" fill="#EEEEEF"/>
<path d="M310.441 344.14C326.388 343.92 339.748 333.05 343.727 318.34L340.58 315.13C340.58 315.13 335.328 307.46 329.665 301.95C323.341 295.79 320.143 297.96 317.928 295.39C315.713 292.81 306.943 286.56 308.156 290.02C308.236 290.24 308.306 290.46 308.376 290.68C307.985 290.38 307.564 290.12 307.214 290.06C306.362 289.92 309.108 294.75 307.995 298.74C306.662 299.05 297.622 301.43 297.281 307.9C296.91 314.89 293.472 317.84 292.49 318.75C290.946 320.18 298.023 327.77 300.238 328.5C302.453 329.24 306.322 326.66 306.322 326.66C312.225 325.74 310.752 329.6 310.752 329.6C309.078 336.02 309.569 340.89 310.461 344.13L310.441 344.14Z" fill="#DF4425"/>
</g>
<defs>
<clipPath id="clip0_344_635">
<rect width="345" height="344.21" fill="white"/>
</clipPath>
</defs>
</svg>
