<svg width="487" height="506" viewBox="0 0 487 506" fill="none" xmlns="http://www.w3.org/2000/svg">
<path d="M189.074 1.25781H37.3325C16.7143 1.25781 0 18.0166 0 38.6895V201.486C0 222.159 16.7143 238.918 37.3325 238.918H189.074C209.692 238.918 226.406 222.159 226.406 201.486V38.6895C226.406 18.0166 209.692 1.25781 189.074 1.25781Z" fill="#ED6F60"/>
<path d="M147.27 183.079H149.304V193.177H147.27V183.079ZM150.546 181.261H152.616V195.517C152.616 196.093 152.55 196.543 152.418 196.867C152.298 197.191 152.076 197.437 151.752 197.605C151.416 197.785 150.99 197.899 150.474 197.947C149.97 198.007 149.352 198.037 148.62 198.037C148.584 197.737 148.5 197.377 148.368 196.957C148.248 196.537 148.116 196.177 147.972 195.877C148.44 195.889 148.878 195.895 149.286 195.895C149.706 195.895 149.988 195.895 150.132 195.895C150.288 195.895 150.396 195.871 150.456 195.823C150.516 195.763 150.546 195.655 150.546 195.499V181.261ZM139.026 189.091H145.038V190.369H139.026V189.091ZM140.088 195.895H145.146V197.479H140.088V195.895ZM137.784 186.877H139.782V188.983C139.782 189.583 139.758 190.249 139.71 190.981C139.674 191.701 139.59 192.445 139.458 193.213C139.338 193.981 139.164 194.731 138.936 195.463C138.72 196.183 138.438 196.849 138.09 197.461C137.946 197.377 137.76 197.281 137.532 197.173C137.316 197.065 137.082 196.957 136.83 196.849C136.59 196.753 136.38 196.681 136.2 196.633C136.56 196.057 136.842 195.439 137.046 194.779C137.262 194.107 137.418 193.429 137.514 192.745C137.622 192.049 137.694 191.377 137.73 190.729C137.766 190.081 137.784 189.493 137.784 188.965V186.877ZM138.99 186.877H145.848V192.601H138.972V191.107H143.886V188.371H138.99V186.877ZM139.26 193.141H146.28V197.965H144.39V194.617H141.06V198.037H139.26V193.141ZM141.618 181.189L143.598 181.963C143.118 182.707 142.542 183.415 141.87 184.087C141.198 184.747 140.472 185.359 139.692 185.923C138.924 186.475 138.15 186.949 137.37 187.345C137.31 187.177 137.214 186.967 137.082 186.715C136.95 186.451 136.806 186.187 136.65 185.923C136.494 185.659 136.356 185.449 136.236 185.293C136.944 184.993 137.634 184.639 138.306 184.231C138.99 183.811 139.614 183.343 140.178 182.827C140.754 182.311 141.234 181.765 141.618 181.189ZM140.988 183.313L142.05 181.729C142.41 181.933 142.818 182.167 143.274 182.431C143.73 182.695 144.186 182.959 144.642 183.223C145.098 183.487 145.524 183.745 145.92 183.997C146.316 184.237 146.652 184.465 146.928 184.681L145.83 186.499C145.47 186.211 145.008 185.881 144.444 185.509C143.88 185.137 143.292 184.759 142.68 184.375C142.068 183.979 141.504 183.625 140.988 183.313ZM140.142 185.023H143.85V186.301H140.142V185.023ZM164.568 187.165H171.228V189.163H164.568V187.165ZM154.758 183.007H162.876V184.753H154.758V183.007ZM154.596 190.171H162.858V191.989H154.596V190.171ZM154.488 187.021H163.164V188.785H154.488V187.021ZM167.448 188.047H169.536V198.037H167.448V188.047ZM155.712 185.113L157.44 184.699C157.572 185.011 157.692 185.347 157.8 185.707C157.908 186.067 157.986 186.379 158.034 186.643L156.252 187.129C156.216 186.853 156.144 186.529 156.036 186.157C155.94 185.773 155.832 185.425 155.712 185.113ZM160.14 184.681L162.084 185.041C161.892 185.521 161.706 185.989 161.526 186.445C161.346 186.889 161.172 187.267 161.004 187.579L159.258 187.219C159.354 186.979 159.456 186.715 159.564 186.427C159.684 186.127 159.792 185.821 159.888 185.509C159.996 185.197 160.08 184.921 160.14 184.681ZM169.248 181.369L170.904 182.971C170.28 183.211 169.596 183.433 168.852 183.637C168.12 183.841 167.37 184.021 166.602 184.177C165.846 184.321 165.114 184.447 164.406 184.555C164.358 184.327 164.268 184.057 164.136 183.745C164.004 183.421 163.878 183.151 163.758 182.935C164.43 182.803 165.102 182.659 165.774 182.503C166.446 182.347 167.082 182.173 167.682 181.981C168.282 181.777 168.804 181.573 169.248 181.369ZM157.314 181.567L159.474 181.045C159.654 181.429 159.834 181.855 160.014 182.323C160.206 182.779 160.35 183.175 160.446 183.511L158.16 184.105C158.1 183.769 157.986 183.361 157.818 182.881C157.65 182.401 157.482 181.963 157.314 181.567ZM163.758 182.935H165.774V189.379C165.774 190.039 165.75 190.753 165.702 191.521C165.666 192.289 165.582 193.069 165.45 193.861C165.33 194.641 165.15 195.397 164.91 196.129C164.682 196.849 164.376 197.497 163.992 198.073C163.884 197.941 163.722 197.791 163.506 197.623C163.302 197.455 163.092 197.293 162.876 197.137C162.66 196.981 162.474 196.867 162.318 196.795C162.762 196.111 163.086 195.343 163.29 194.491C163.494 193.639 163.62 192.769 163.668 191.881C163.728 190.993 163.758 190.159 163.758 189.379V182.935ZM160.428 193.123L161.832 192.349C162.12 192.745 162.396 193.189 162.66 193.681C162.936 194.161 163.152 194.575 163.308 194.923L161.832 195.823C161.688 195.463 161.478 195.031 161.202 194.527C160.938 194.011 160.68 193.543 160.428 193.123ZM155.856 192.547L157.512 193.051C157.296 193.675 157.014 194.329 156.666 195.013C156.33 195.697 156.006 196.273 155.694 196.741C155.526 196.609 155.292 196.441 154.992 196.237C154.704 196.033 154.464 195.877 154.272 195.769C154.584 195.337 154.878 194.833 155.154 194.257C155.442 193.681 155.676 193.111 155.856 192.547ZM157.962 188.011H160.05V197.983H157.962V188.011ZM180.012 182.107H188.904V184.123H180.012V182.107ZM179.544 188.569H189.264V190.603H179.544V188.569ZM185.322 182.989H187.374V198.127H185.322V182.989ZM181.272 183.043H183.288V189.145C183.288 189.889 183.258 190.675 183.198 191.503C183.138 192.319 183.018 193.135 182.838 193.951C182.67 194.755 182.418 195.529 182.082 196.273C181.758 197.017 181.314 197.677 180.75 198.253C180.63 198.121 180.474 197.977 180.282 197.821C180.09 197.665 179.886 197.509 179.67 197.353C179.466 197.209 179.286 197.095 179.13 197.011C179.61 196.483 179.988 195.895 180.264 195.247C180.552 194.599 180.768 193.921 180.912 193.213C181.056 192.493 181.152 191.785 181.2 191.089C181.248 190.393 181.272 189.739 181.272 189.127V183.043ZM172.578 182.071H179.148V184.015H172.578V182.071ZM174.612 187.615H178.932V195.931H174.612V194.041H177.096V189.523H174.612V187.615ZM174.684 183.025L176.628 183.457C176.412 184.597 176.136 185.731 175.8 186.859C175.464 187.987 175.062 189.043 174.594 190.027C174.126 191.011 173.58 191.875 172.956 192.619C172.932 192.427 172.878 192.169 172.794 191.845C172.71 191.521 172.614 191.197 172.506 190.873C172.398 190.537 172.296 190.267 172.2 190.063C172.836 189.211 173.352 188.167 173.748 186.931C174.144 185.695 174.456 184.393 174.684 183.025ZM173.676 187.615H175.458V197.263H173.676V187.615ZM199.632 186.589H203.268V188.227H199.632V186.589ZM198.228 191.845H204.15V193.303H198.228V191.845ZM192.144 181.837H197.094V183.529H192.144V181.837ZM196.536 181.837H196.896L197.238 181.765L198.57 182.413C198.138 183.469 197.55 184.405 196.806 185.221C196.062 186.025 195.222 186.721 194.286 187.309C193.35 187.885 192.372 188.365 191.352 188.749C191.22 188.509 191.04 188.233 190.812 187.921C190.584 187.597 190.38 187.345 190.2 187.165C190.872 186.961 191.532 186.697 192.18 186.373C192.84 186.037 193.452 185.653 194.016 185.221C194.58 184.789 195.078 184.315 195.51 183.799C195.942 183.283 196.284 182.737 196.536 182.161V181.837ZM200.352 181.297C200.76 182.185 201.3 183.001 201.972 183.745C202.656 184.477 203.448 185.113 204.348 185.653C205.26 186.181 206.274 186.595 207.39 186.895C207.162 187.087 206.922 187.351 206.67 187.687C206.43 188.023 206.238 188.323 206.094 188.587C204.918 188.215 203.856 187.705 202.908 187.057C201.972 186.409 201.144 185.647 200.424 184.771C199.716 183.883 199.116 182.893 198.624 181.801L200.352 181.297ZM203.052 181.333L204.618 182.413C204.186 182.785 203.742 183.151 203.286 183.511C202.842 183.859 202.434 184.159 202.062 184.411L200.82 183.439C201.06 183.259 201.318 183.049 201.594 182.809C201.87 182.557 202.134 182.305 202.386 182.053C202.65 181.789 202.872 181.549 203.052 181.333ZM205.374 183.133L206.94 184.213C206.52 184.585 206.076 184.951 205.608 185.311C205.14 185.659 204.714 185.959 204.33 186.211L203.052 185.239C203.304 185.059 203.568 184.849 203.844 184.609C204.132 184.357 204.414 184.105 204.69 183.853C204.966 183.589 205.194 183.349 205.374 183.133ZM192.972 186.697H197.526V191.197H195.618V188.317H192.972V186.697ZM192.414 189.595H194.16C194.064 190.339 193.956 191.119 193.836 191.935C193.728 192.739 193.614 193.423 193.494 193.987H191.712C191.808 193.591 191.898 193.147 191.982 192.655C192.066 192.151 192.144 191.635 192.216 191.107C192.3 190.579 192.366 190.075 192.414 189.595ZM195.6 192.421H197.544C197.544 192.421 197.538 192.517 197.526 192.709C197.526 192.889 197.514 193.045 197.49 193.177C197.43 193.993 197.364 194.677 197.292 195.229C197.22 195.781 197.13 196.219 197.022 196.543C196.914 196.879 196.782 197.125 196.626 197.281C196.422 197.485 196.206 197.629 195.978 197.713C195.75 197.797 195.48 197.851 195.168 197.875C194.916 197.911 194.574 197.929 194.142 197.929C193.71 197.929 193.248 197.923 192.756 197.911C192.744 197.611 192.678 197.293 192.558 196.957C192.45 196.633 192.312 196.345 192.144 196.093C192.588 196.129 193.014 196.153 193.422 196.165C193.842 196.177 194.142 196.183 194.322 196.183C194.478 196.183 194.61 196.177 194.718 196.165C194.826 196.141 194.916 196.087 194.988 196.003C195.132 195.883 195.252 195.571 195.348 195.067C195.444 194.551 195.528 193.753 195.6 192.673V192.421ZM198.822 186.589H200.622V187.921C200.622 188.353 200.568 188.809 200.46 189.289C200.352 189.757 200.154 190.207 199.866 190.639C199.59 191.071 199.176 191.455 198.624 191.791C198.54 191.671 198.414 191.521 198.246 191.341C198.078 191.161 197.904 190.987 197.724 190.819C197.544 190.651 197.394 190.531 197.274 190.459C197.73 190.195 198.066 189.919 198.282 189.631C198.498 189.343 198.642 189.049 198.714 188.749C198.786 188.449 198.822 188.155 198.822 187.867V186.589ZM203.718 191.845H204.096L204.438 191.791L205.608 192.205C205.224 193.357 204.672 194.323 203.952 195.103C203.232 195.883 202.38 196.513 201.396 196.993C200.424 197.485 199.338 197.863 198.138 198.127C198.054 197.899 197.922 197.629 197.742 197.317C197.574 197.005 197.4 196.753 197.22 196.561C198.264 196.381 199.218 196.105 200.082 195.733C200.958 195.349 201.708 194.857 202.332 194.257C202.968 193.645 203.43 192.919 203.718 192.079V191.845ZM193.17 189.595H196.266V191.197H192.882L193.17 189.595ZM192.684 192.421H196.14V193.987H192.36L192.684 192.421ZM191.55 184.681L192.774 183.547C193.134 183.727 193.524 183.949 193.944 184.213C194.376 184.465 194.712 184.699 194.952 184.915L193.656 186.175C193.44 185.947 193.128 185.695 192.72 185.419C192.312 185.143 191.922 184.897 191.55 184.681ZM202.278 186.589H204.042V189.289C204.042 189.505 204.054 189.655 204.078 189.739C204.114 189.823 204.192 189.865 204.312 189.865C204.372 189.865 204.462 189.865 204.582 189.865C204.702 189.865 204.816 189.865 204.924 189.865C205.044 189.865 205.134 189.865 205.194 189.865C205.314 189.865 205.464 189.859 205.644 189.847C205.836 189.823 205.992 189.799 206.112 189.775C206.136 189.991 206.154 190.237 206.166 190.513C206.19 190.789 206.22 191.035 206.256 191.251C206.124 191.287 205.962 191.311 205.77 191.323C205.59 191.335 205.41 191.341 205.23 191.341C205.158 191.341 205.074 191.341 204.978 191.341C204.882 191.341 204.774 191.341 204.654 191.341C204.546 191.341 204.444 191.341 204.348 191.341C204.252 191.341 204.168 191.341 204.096 191.341C203.592 191.341 203.208 191.269 202.944 191.125C202.68 190.981 202.5 190.759 202.404 190.459C202.32 190.147 202.278 189.751 202.278 189.271V186.589ZM197.94 194.167L198.948 192.943C199.488 193.207 200.064 193.507 200.676 193.843C201.3 194.167 201.924 194.503 202.548 194.851C203.172 195.187 203.76 195.517 204.312 195.841C204.864 196.165 205.332 196.453 205.716 196.705L204.636 198.127C204.264 197.863 203.808 197.563 203.268 197.227C202.74 196.903 202.164 196.561 201.54 196.201C200.928 195.841 200.31 195.487 199.686 195.139C199.062 194.779 198.48 194.455 197.94 194.167Z" fill="#0B0B0B"/>
<path d="M69.9985 130.194V145.744C69.9985 153.09 75.9251 159.032 83.2516 159.032C90.5781 159.032 96.5046 153.09 96.5046 145.744V130.194M83.2516 26.1655V32.8097M23.6129 92.6068H16.9863M40.1792 49.42L36.197 45.4273M126.324 49.42L130.306 45.4273M149.517 92.6068H142.89M123.011 92.6068C123.011 114.629 105.216 132.472 83.2516 132.472C61.2876 132.472 43.4924 114.629 43.4924 92.6068C43.4924 70.5845 61.2876 52.742 83.2516 52.742C105.216 52.742 123.011 70.5845 123.011 92.6068Z" stroke="white" stroke-width="5" stroke-linecap="round" stroke-linejoin="round"/>
<path d="M445.667 267.848H293.926C273.308 267.848 256.594 284.606 256.594 305.279V468.076C256.594 488.749 273.308 505.508 293.926 505.508H445.667C466.286 505.508 483 488.749 483 468.076V305.279C483 284.606 466.286 267.848 445.667 267.848Z" fill="#AECAF2"/>
<path d="M394.975 454.817H397.513V456.581H394.975V454.817ZM396.847 454.817H398.629C398.629 454.817 398.629 454.913 398.629 455.105C398.629 455.285 398.629 455.435 398.629 455.555C398.617 456.887 398.593 457.985 398.557 458.849C398.521 459.701 398.473 460.361 398.413 460.829C398.353 461.285 398.257 461.597 398.125 461.765C397.981 461.969 397.831 462.119 397.675 462.215C397.531 462.311 397.357 462.383 397.153 462.431C396.973 462.467 396.751 462.491 396.487 462.503C396.235 462.515 395.953 462.521 395.641 462.521C395.629 462.197 395.581 461.855 395.497 461.495C395.413 461.135 395.305 460.823 395.173 460.559C395.377 460.571 395.563 460.583 395.731 460.595C395.899 460.607 396.031 460.613 396.127 460.613C396.235 460.613 396.319 460.601 396.379 460.577C396.451 460.541 396.517 460.481 396.577 460.397C396.637 460.289 396.679 460.061 396.703 459.713C396.739 459.365 396.763 458.825 396.775 458.093C396.799 457.361 396.823 456.371 396.847 455.123V454.817ZM401.095 448.643L402.499 447.887C402.811 448.211 403.123 448.583 403.435 449.003C403.759 449.411 403.993 449.771 404.137 450.083L402.661 450.911C402.517 450.611 402.295 450.245 401.995 449.813C401.695 449.369 401.395 448.979 401.095 448.643ZM402.175 453.935L403.939 454.673C403.567 456.125 403.093 457.487 402.517 458.759C401.941 460.019 401.293 461.147 400.573 462.143C399.853 463.139 399.079 463.973 398.251 464.645C398.119 464.489 397.921 464.297 397.657 464.069C397.405 463.853 397.159 463.679 396.919 463.547C398.107 462.587 399.163 461.285 400.087 459.641C401.023 457.985 401.719 456.083 402.175 453.935ZM398.989 447.815H400.861C400.861 449.375 400.879 450.875 400.915 452.315C400.951 453.743 401.005 455.057 401.077 456.257C401.161 457.457 401.269 458.507 401.401 459.407C401.533 460.295 401.683 460.991 401.851 461.495C402.031 461.987 402.229 462.245 402.445 462.269C402.577 462.269 402.685 462.053 402.769 461.621C402.853 461.189 402.919 460.583 402.967 459.803C403.075 459.923 403.219 460.061 403.399 460.217C403.591 460.373 403.777 460.517 403.957 460.649C404.149 460.769 404.293 460.853 404.389 460.901C404.257 461.945 404.071 462.743 403.831 463.295C403.603 463.847 403.363 464.219 403.111 464.411C402.871 464.615 402.631 464.717 402.391 464.717C401.827 464.693 401.347 464.417 400.951 463.889C400.567 463.361 400.249 462.611 399.997 461.639C399.745 460.655 399.547 459.479 399.403 458.111C399.271 456.731 399.175 455.177 399.115 453.449C399.055 451.721 399.013 449.843 398.989 447.815ZM394.561 450.965H404.047V452.891H394.561V450.965ZM393.643 450.965H395.605V455.663C395.605 456.323 395.581 457.049 395.533 457.841C395.497 458.621 395.419 459.431 395.299 460.271C395.191 461.099 395.029 461.903 394.813 462.683C394.597 463.451 394.315 464.147 393.967 464.771C393.871 464.639 393.721 464.483 393.517 464.303C393.325 464.135 393.121 463.973 392.905 463.817C392.701 463.661 392.527 463.547 392.383 463.475C392.767 462.719 393.049 461.885 393.229 460.973C393.409 460.049 393.523 459.125 393.571 458.201C393.619 457.277 393.643 456.431 393.643 455.663V450.965ZM387.829 453.323H392.617V454.961H387.829V453.323ZM387.829 455.789H392.617V457.409H387.829V455.789ZM387.073 450.785H393.067V452.495H387.073V450.785ZM388.819 458.273H392.581V463.727H388.819V462.035H390.853V459.965H388.819V458.273ZM387.775 458.273H389.467V464.465H387.775V458.273ZM388.351 448.607L390.061 447.779C390.397 448.127 390.715 448.523 391.015 448.967C391.315 449.399 391.543 449.783 391.699 450.119L389.899 451.109C389.767 450.749 389.551 450.335 389.251 449.867C388.963 449.399 388.663 448.979 388.351 448.607ZM411.661 453.323H420.733V455.015H411.661V453.323ZM411.661 455.951H420.733V457.625H411.661V455.951ZM412.741 462.395H419.671V464.123H412.741V462.395ZM410.401 450.623H422.065V452.369H410.401V450.623ZM411.391 458.651H420.967V464.627H419.059V460.361H413.227V464.681H411.391V458.651ZM414.469 448.463L416.305 447.761C416.545 448.133 416.791 448.541 417.043 448.985C417.295 449.429 417.487 449.819 417.619 450.155L415.729 450.983C415.609 450.647 415.429 450.239 415.189 449.759C414.949 449.279 414.709 448.847 414.469 448.463ZM408.997 447.869L410.923 448.463C410.575 449.471 410.155 450.485 409.663 451.505C409.171 452.513 408.637 453.467 408.061 454.367C407.497 455.267 406.909 456.065 406.297 456.761C406.237 456.593 406.141 456.377 406.009 456.113C405.877 455.837 405.739 455.567 405.595 455.303C405.451 455.027 405.319 454.805 405.199 454.637C405.703 454.085 406.189 453.449 406.657 452.729C407.137 451.997 407.575 451.217 407.971 450.389C408.379 449.561 408.721 448.721 408.997 447.869ZM407.611 452.873L409.573 450.911L409.591 450.929V464.771H407.611V452.873ZM424.693 448.769H439.147V450.209H424.693V448.769ZM425.521 450.857H438.319V452.153H425.521V450.857ZM423.649 452.801H439.885V454.295H423.649V452.801ZM427.933 458.075V458.813H435.745V458.075H427.933ZM427.933 460.001V460.757H435.745V460.001H427.933ZM427.933 456.167V456.905H435.745V456.167H427.933ZM425.827 454.925H437.941V461.999H425.827V454.925ZM430.669 447.797H432.901V453.593H430.669V447.797ZM432.775 462.809L434.629 461.801C435.253 461.993 435.895 462.209 436.555 462.449C437.215 462.677 437.845 462.899 438.445 463.115C439.045 463.343 439.561 463.553 439.993 463.745L437.383 464.717C437.059 464.537 436.651 464.333 436.159 464.105C435.667 463.889 435.127 463.667 434.539 463.439C433.963 463.223 433.375 463.013 432.775 462.809ZM428.815 461.747L430.741 462.611C430.249 462.899 429.679 463.181 429.031 463.457C428.383 463.733 427.717 463.985 427.033 464.213C426.361 464.441 425.713 464.627 425.089 464.771C424.981 464.627 424.831 464.453 424.639 464.249C424.447 464.057 424.255 463.865 424.063 463.673C423.871 463.493 423.691 463.343 423.523 463.223C424.171 463.115 424.819 462.989 425.467 462.845C426.127 462.689 426.745 462.521 427.321 462.341C427.897 462.149 428.395 461.951 428.815 461.747ZM446.761 455.447H458.317V457.535H446.761V455.447ZM447.283 462.017H457.903V464.087H447.283V462.017ZM451.441 450.731H453.637V462.719H451.441V450.731ZM443.773 453.089L445.879 450.983L445.897 451.019V464.681H443.773V453.089ZM445.555 447.905L447.697 448.589C447.277 449.645 446.773 450.701 446.185 451.757C445.609 452.801 444.985 453.791 444.313 454.727C443.641 455.651 442.945 456.461 442.225 457.157C442.165 456.965 442.057 456.725 441.901 456.437C441.745 456.149 441.583 455.861 441.415 455.573C441.247 455.285 441.097 455.051 440.965 454.871C441.577 454.307 442.165 453.659 442.729 452.927C443.305 452.183 443.833 451.385 444.313 450.533C444.805 449.669 445.219 448.793 445.555 447.905ZM447.751 449.453H457.615V451.505H447.751V449.453Z" fill="#0B0B0B"/>
<path d="M310.306 396.067H324.866C326.763 396.067 328.645 396.301 330.497 396.753L345.896 400.496C349.241 401.307 352.709 401.385 356.085 400.73L373.102 397.408C377.598 396.535 381.735 394.367 384.971 391.216L397.011 379.472C400.448 376.119 400.448 370.691 397.011 367.338C393.915 364.312 389.015 363.985 385.515 366.543L371.485 376.805C369.478 378.271 367.036 379.067 364.516 379.067H350.967H359.6C364.469 379.067 368.405 375.23 368.405 370.489V368.773C368.405 364.843 365.651 361.396 361.747 360.445L348.432 357.2C346.27 356.67 344.045 356.405 341.821 356.405C336.439 356.405 326.686 360.881 326.686 360.881L310.321 367.744M287.984 365.373V397.829C287.984 400.964 287.984 402.524 288.591 403.725C289.12 404.785 289.975 405.628 291.033 406.174C292.231 406.782 293.786 406.782 296.913 406.782H301.377C304.504 406.782 306.059 406.782 307.257 406.174C308.315 405.643 309.155 404.785 309.699 403.725C310.306 402.524 310.306 400.964 310.306 397.829V365.373C310.306 362.238 310.306 360.678 309.699 359.478C309.17 358.433 308.315 357.575 307.257 357.029C306.059 356.421 304.504 356.421 301.377 356.421H296.913C293.786 356.421 292.231 356.421 291.033 357.029C289.975 357.559 289.135 358.417 288.591 359.478C287.984 360.678 287.984 362.238 287.984 365.373ZM372.76 303.782C369.431 296.795 361.747 293.099 354.28 296.67C346.814 300.242 343.625 308.711 346.752 316.15C348.681 320.751 354.218 329.673 358.169 335.818C359.631 338.095 360.363 339.233 361.42 339.888C362.338 340.465 363.474 340.762 364.547 340.73C365.807 340.684 367.005 340.075 369.4 338.828C375.887 335.474 385.126 330.53 389.093 327.505C395.517 322.623 397.104 313.67 392.297 306.855C387.491 300.039 379.122 299.368 372.745 303.751L372.76 303.782Z" stroke="white" stroke-width="5" stroke-linecap="round" stroke-linejoin="round"/>
<path d="M189.074 267.914H37.3325C16.7143 267.914 0 284.673 0 305.346V468.142C0 488.815 16.7143 505.574 37.3325 505.574H189.074C209.692 505.574 226.406 488.815 226.406 468.142V305.346C226.406 284.673 209.692 267.914 189.074 267.914Z" fill="#F7CCDB"/>
<path d="M136.042 448.601H147.256V450.131H136.042V448.601ZM138.238 452.363H145.024V453.227H138.238V452.363ZM138.238 453.803H145.024V454.685H138.238V453.803ZM137.14 450.779H146.086V455.765H144.088V451.823H139.084V455.765H137.14V450.779ZM135.502 455.261H147.634V457.817H145.69V456.467H137.338V457.817H135.502V455.261ZM138.076 456.773L139.318 457.439C139.102 457.787 138.844 458.147 138.544 458.519C138.244 458.879 137.908 459.191 137.536 459.455L136.33 458.519C136.666 458.315 136.99 458.051 137.302 457.727C137.626 457.403 137.884 457.085 138.076 456.773ZM138.922 456.845H140.614V457.655C140.614 457.835 140.65 457.949 140.722 457.997C140.806 458.045 140.968 458.069 141.208 458.069C141.256 458.069 141.352 458.069 141.496 458.069C141.64 458.069 141.796 458.069 141.964 458.069C142.132 458.069 142.294 458.069 142.45 458.069C142.606 458.069 142.72 458.069 142.792 458.069C142.972 458.069 143.092 458.033 143.152 457.961C143.224 457.889 143.272 457.721 143.296 457.457C143.452 457.541 143.662 457.625 143.926 457.709C144.202 457.793 144.442 457.853 144.646 457.889C144.586 458.405 144.436 458.759 144.196 458.951C143.956 459.131 143.566 459.221 143.026 459.221C142.942 459.221 142.804 459.221 142.612 459.221C142.42 459.221 142.21 459.221 141.982 459.221C141.766 459.221 141.562 459.221 141.37 459.221C141.178 459.221 141.04 459.221 140.956 459.221C140.416 459.221 139.996 459.179 139.696 459.095C139.396 458.999 139.192 458.837 139.084 458.609C138.976 458.381 138.922 458.063 138.922 457.655V456.845ZM140.632 456.755L141.802 456.125C142.042 456.305 142.294 456.515 142.558 456.755C142.834 456.983 143.056 457.187 143.224 457.367L142 458.051C141.856 457.871 141.652 457.655 141.388 457.403C141.124 457.151 140.872 456.935 140.632 456.755ZM143.764 457.385L144.88 456.719C145.204 457.019 145.546 457.367 145.906 457.763C146.278 458.147 146.56 458.483 146.752 458.771L145.582 459.509C145.402 459.221 145.132 458.873 144.772 458.465C144.424 458.057 144.088 457.697 143.764 457.385ZM139.75 458.717L141.586 459.077C140.998 459.809 140.296 460.487 139.48 461.111C138.664 461.723 137.704 462.287 136.6 462.803C136.48 462.599 136.3 462.377 136.06 462.137C135.832 461.885 135.622 461.693 135.43 461.561C136.45 461.177 137.32 460.733 138.04 460.229C138.76 459.725 139.33 459.221 139.75 458.717ZM144.25 459.761H144.646L144.988 459.689L146.284 460.409C145.516 461.597 144.262 462.551 142.522 463.271C140.794 463.991 138.67 464.513 136.15 464.837C136.042 464.609 135.892 464.345 135.7 464.045C135.508 463.757 135.316 463.505 135.124 463.289C137.512 463.061 139.492 462.671 141.064 462.119C142.648 461.555 143.71 460.877 144.25 460.085V459.761ZM137.842 459.599C138.406 460.319 139.162 460.925 140.11 461.417C141.07 461.909 142.186 462.299 143.458 462.587C144.73 462.875 146.11 463.073 147.598 463.181C147.418 463.385 147.226 463.643 147.022 463.955C146.83 464.267 146.674 464.537 146.554 464.765C145.006 464.609 143.578 464.339 142.27 463.955C140.974 463.583 139.816 463.085 138.796 462.461C137.788 461.837 136.942 461.063 136.258 460.139L137.842 459.599ZM139.408 459.761H144.754V461.057H138.13L139.408 459.761ZM140.398 449.303L142.738 449.573C142.582 449.957 142.426 450.317 142.27 450.653C142.126 450.989 142 451.283 141.892 451.535L140.02 451.211C140.104 450.911 140.182 450.587 140.254 450.239C140.326 449.891 140.374 449.579 140.398 449.303ZM133.936 447.899L135.934 448.493C135.598 449.537 135.196 450.593 134.728 451.661C134.272 452.729 133.768 453.743 133.216 454.703C132.676 455.651 132.1 456.485 131.488 457.205C131.44 457.037 131.356 456.803 131.236 456.503C131.116 456.203 130.984 455.903 130.84 455.603C130.696 455.303 130.564 455.057 130.444 454.865C130.924 454.301 131.38 453.647 131.812 452.903C132.256 452.159 132.658 451.361 133.018 450.509C133.378 449.645 133.684 448.775 133.936 447.899ZM132.64 452.849L134.62 450.851L134.692 450.887V464.765H132.64V452.849ZM152.494 452.759H162.07V454.469H152.494V452.759ZM157.21 456.755C157.666 457.739 158.278 458.621 159.046 459.401C159.814 460.181 160.738 460.841 161.818 461.381C162.91 461.909 164.146 462.299 165.526 462.551C165.358 462.707 165.184 462.899 165.004 463.127C164.836 463.355 164.674 463.589 164.518 463.829C164.362 464.081 164.236 464.309 164.14 464.513C162.664 464.165 161.356 463.667 160.216 463.019C159.088 462.371 158.116 461.573 157.3 460.625C156.484 459.677 155.788 458.579 155.212 457.331L157.21 456.755ZM162.718 457.835L164.518 459.221C164.074 459.557 163.594 459.893 163.078 460.229C162.574 460.565 162.07 460.883 161.566 461.183C161.074 461.471 160.612 461.723 160.18 461.939L158.65 460.661C159.082 460.433 159.544 460.163 160.036 459.851C160.528 459.527 161.008 459.191 161.476 458.843C161.956 458.483 162.37 458.147 162.718 457.835ZM152.404 449.537H163.186V457.799H152.404V455.909H160.972V451.427H152.404V449.537ZM155.698 448.169L157.93 447.701C158.11 448.073 158.272 448.487 158.416 448.943C158.56 449.399 158.668 449.789 158.74 450.113L156.382 450.671C156.346 450.335 156.262 449.933 156.13 449.465C155.998 448.985 155.854 448.553 155.698 448.169ZM151.09 464.927L150.91 463.127L151.864 462.443L157.318 461.273C157.318 461.573 157.342 461.921 157.39 462.317C157.438 462.713 157.486 463.031 157.534 463.271C156.262 463.559 155.23 463.793 154.438 463.973C153.658 464.165 153.046 464.315 152.602 464.423C152.158 464.543 151.828 464.639 151.612 464.711C151.396 464.783 151.222 464.855 151.09 464.927ZM151.09 464.927C151.03 464.771 150.928 464.585 150.784 464.369C150.652 464.165 150.502 463.961 150.334 463.757C150.178 463.553 150.04 463.397 149.92 463.289C150.076 463.169 150.238 463.013 150.406 462.821C150.586 462.629 150.736 462.407 150.856 462.155C150.988 461.891 151.054 461.597 151.054 461.273V449.537H153.304V462.479C153.304 462.479 153.226 462.539 153.07 462.659C152.926 462.779 152.746 462.935 152.53 463.127C152.314 463.307 152.092 463.505 151.864 463.721C151.636 463.937 151.45 464.147 151.306 464.351C151.162 464.567 151.09 464.759 151.09 464.927ZM172.006 450.653V453.065H178.342V450.653H172.006ZM169.918 448.583H180.538V455.117H169.918V448.583ZM167.434 456.629H174.328V464.675H172.168V458.699H169.486V464.783H167.434V456.629ZM175.84 456.629H182.968V464.693H180.808V458.699H177.91V464.783H175.84V456.629ZM168.334 461.795H173.068V463.865H168.334V461.795ZM176.83 461.795H181.87V463.865H176.83V461.795ZM191.608 447.917L192.814 449.177C192.262 449.357 191.644 449.513 190.96 449.645C190.276 449.777 189.568 449.879 188.836 449.951C188.116 450.023 187.42 450.065 186.748 450.077C186.712 449.885 186.652 449.663 186.568 449.411C186.484 449.147 186.388 448.919 186.28 448.727C186.916 448.691 187.564 448.637 188.224 448.565C188.884 448.493 189.508 448.409 190.096 448.313C190.696 448.205 191.2 448.073 191.608 447.917ZM199.276 447.899L200.608 449.087C200.044 449.279 199.396 449.447 198.664 449.591C197.932 449.723 197.176 449.825 196.396 449.897C195.628 449.957 194.884 449.999 194.164 450.023C194.128 449.843 194.062 449.621 193.966 449.357C193.882 449.093 193.786 448.871 193.678 448.691C194.35 448.655 195.034 448.601 195.73 448.529C196.438 448.457 197.098 448.373 197.71 448.277C198.334 448.169 198.856 448.043 199.276 447.899ZM187.126 450.581H193.048V452.165H187.126V450.581ZM194.542 450.581H201.274V452.165H194.542V450.581ZM189.412 451.085H191.32V454.001H189.412V451.085ZM196.792 451.139H198.718V454.073H196.792V451.139ZM189.412 457.655V458.465H196.846V457.655H189.412ZM189.412 459.689V460.499H196.846V459.689H189.412ZM189.412 455.639V456.449H196.846V455.639H189.412ZM187.324 454.343H199.042V461.795H187.324V454.343ZM194.776 462.875L195.586 461.507C196.258 461.687 196.936 461.885 197.62 462.101C198.316 462.317 198.97 462.539 199.582 462.767C200.206 462.983 200.746 463.181 201.202 463.361L200.212 464.873C199.78 464.669 199.264 464.447 198.664 464.207C198.076 463.979 197.446 463.751 196.774 463.523C196.114 463.295 195.448 463.079 194.776 462.875ZM190.312 461.561L191.914 462.497C191.398 462.785 190.798 463.079 190.114 463.379C189.442 463.679 188.752 463.955 188.044 464.207C187.348 464.471 186.694 464.699 186.082 464.891C186.022 464.759 185.932 464.573 185.812 464.333C185.692 464.105 185.566 463.871 185.434 463.631C185.302 463.403 185.176 463.217 185.056 463.073C185.644 462.965 186.256 462.833 186.892 462.677C187.528 462.509 188.146 462.329 188.746 462.137C189.346 461.945 189.868 461.753 190.312 461.561ZM186.28 448.727H188.134V450.005C188.134 450.497 188.08 451.025 187.972 451.589C187.864 452.153 187.666 452.705 187.378 453.245C187.09 453.773 186.67 454.253 186.118 454.685C186.034 454.553 185.902 454.397 185.722 454.217C185.554 454.037 185.374 453.863 185.182 453.695C185.002 453.527 184.846 453.407 184.714 453.335C185.17 452.975 185.506 452.603 185.722 452.219C185.95 451.835 186.1 451.451 186.172 451.067C186.244 450.671 186.28 450.299 186.28 449.951V448.727ZM193.678 448.691H195.478V450.059C195.478 450.515 195.436 451.013 195.352 451.553C195.28 452.081 195.13 452.597 194.902 453.101C194.686 453.605 194.362 454.061 193.93 454.469C193.822 454.361 193.672 454.235 193.48 454.091C193.288 453.947 193.09 453.815 192.886 453.695C192.682 453.563 192.508 453.467 192.364 453.407C192.76 453.047 193.048 452.675 193.228 452.291C193.408 451.895 193.528 451.505 193.588 451.121C193.648 450.725 193.678 450.353 193.678 450.005V448.691Z" fill="#0B0B0B"/>
<path d="M54.8633 406.302V347.051M27.9994 357.813V395.525C27.9994 401.483 32.806 406.302 38.7481 406.302H110.878C118.826 406.302 125.593 400.485 126.806 392.593L132.593 354.88C134.102 345.086 126.542 336.258 116.664 336.258H97.8424C94.8714 336.258 92.4758 333.841 92.4758 330.877V311.834C92.4758 304.504 86.5493 298.546 79.2228 298.546C77.4806 298.546 75.894 299.575 75.194 301.181L56.2788 343.838C55.4233 345.788 53.4945 347.035 51.3634 347.035H38.7325C32.7905 347.035 27.9839 351.855 27.9839 357.813H27.9994Z" stroke="white" stroke-width="5" stroke-linecap="round" stroke-linejoin="round"/>
<path d="M445.667 0H293.926C273.308 0 256.594 16.7587 256.594 37.4317V200.228C256.594 220.901 273.308 237.66 293.926 237.66H445.667C466.286 237.66 483 220.901 483 200.228V37.4317C483 16.7587 466.286 0 445.667 0Z" fill="#F9EB72"/>
<path d="M387.541 191.344H404.011V193.036H387.541V191.344ZM388.045 181.12H403.381V182.74H388.045V181.12ZM397.873 190.282H399.961V194.782C399.961 195.274 399.901 195.658 399.781 195.934C399.661 196.222 399.415 196.438 399.043 196.582C398.683 196.714 398.245 196.792 397.729 196.816C397.213 196.852 396.613 196.87 395.929 196.87C395.881 196.582 395.797 196.258 395.677 195.898C395.569 195.55 395.449 195.244 395.317 194.98C395.605 194.992 395.899 195.004 396.199 195.016C396.499 195.016 396.769 195.016 397.009 195.016C397.249 195.016 397.411 195.016 397.495 195.016C397.639 195.004 397.735 194.98 397.783 194.944C397.843 194.908 397.873 194.83 397.873 194.71V190.282ZM394.669 179.968H396.793V189.67H394.669V179.968ZM390.403 193.666L391.897 192.424C392.221 192.628 392.563 192.862 392.923 193.126C393.283 193.39 393.625 193.66 393.949 193.936C394.273 194.2 394.531 194.452 394.723 194.692L393.139 196.06C392.959 195.82 392.713 195.556 392.401 195.268C392.101 194.992 391.777 194.71 391.429 194.422C391.081 194.134 390.739 193.882 390.403 193.666ZM391.483 186.592V187.294H400.141V186.592H391.483ZM391.483 184.702V185.368H400.141V184.702H391.483ZM389.467 183.388H402.265V188.59H389.467V183.388ZM398.323 188.878L399.583 187.906C400.027 188.086 400.483 188.302 400.951 188.554C401.431 188.806 401.881 189.064 402.301 189.328C402.721 189.58 403.075 189.82 403.363 190.048L402.067 191.164C401.791 190.912 401.443 190.648 401.023 190.372C400.603 190.096 400.153 189.826 399.673 189.562C399.205 189.298 398.755 189.07 398.323 188.878ZM388.297 189.256C389.125 189.268 390.061 189.274 391.105 189.274C392.161 189.262 393.283 189.256 394.471 189.256C395.671 189.256 396.895 189.256 398.143 189.256C399.391 189.244 400.639 189.226 401.887 189.202L401.815 190.534C400.207 190.582 398.587 190.624 396.955 190.66C395.335 190.696 393.787 190.732 392.311 190.768C390.835 190.792 389.521 190.81 388.369 190.822L388.297 189.256ZM405.775 190.966H421.831V192.748H405.775V190.966ZM405.829 182.902H421.777V184.594H405.829V182.902ZM406.567 186.178H421.075V187.816H406.567V186.178ZM407.449 188.626H420.247V190.174H407.449V188.626ZM412.669 186.97H414.811V196.87H412.669V186.97ZM411.139 179.932H413.155V183.748H411.139V179.932ZM414.469 179.932H416.521V183.622H414.469V179.932ZM418.627 180.094L420.877 180.634C420.589 181.126 420.301 181.606 420.013 182.074C419.725 182.53 419.461 182.92 419.221 183.244L417.475 182.704C417.619 182.464 417.763 182.194 417.907 181.894C418.051 181.582 418.183 181.27 418.303 180.958C418.435 180.634 418.543 180.346 418.627 180.094ZM416.413 184.45L418.699 185.026C418.435 185.338 418.177 185.62 417.925 185.872C417.685 186.112 417.457 186.328 417.241 186.52L415.405 185.98C415.585 185.752 415.765 185.494 415.945 185.206C416.137 184.918 416.293 184.666 416.413 184.45ZM407.143 180.67L408.997 180.04C409.261 180.412 409.525 180.844 409.789 181.336C410.053 181.816 410.245 182.23 410.365 182.578L408.403 183.298C408.307 182.938 408.133 182.512 407.881 182.02C407.641 181.528 407.395 181.078 407.143 180.67ZM409.231 184.864L411.265 184.414C411.421 184.642 411.577 184.9 411.733 185.188C411.901 185.476 412.027 185.734 412.111 185.962L409.987 186.466C409.927 186.25 409.819 185.992 409.663 185.692C409.519 185.38 409.375 185.104 409.231 184.864ZM410.707 193.342L412.237 194.044C411.841 194.38 411.343 194.704 410.743 195.016C410.155 195.328 409.537 195.604 408.889 195.844C408.241 196.096 407.605 196.294 406.981 196.438C406.849 196.21 406.657 195.94 406.405 195.628C406.153 195.316 405.919 195.07 405.703 194.89C406.303 194.794 406.921 194.668 407.557 194.512C408.193 194.356 408.787 194.176 409.339 193.972C409.891 193.768 410.347 193.558 410.707 193.342ZM415.585 194.242L417.025 193.216C417.517 193.408 418.057 193.624 418.645 193.864C419.245 194.104 419.821 194.35 420.373 194.602C420.937 194.842 421.411 195.064 421.795 195.268L420.265 196.438C419.917 196.246 419.473 196.018 418.933 195.754C418.393 195.49 417.823 195.226 417.223 194.962C416.635 194.698 416.089 194.458 415.585 194.242ZM425.251 180.58H429.301V182.578H425.251V180.58ZM425.251 184.666H429.373V186.664H425.251V184.666ZM432.289 186.88H438.589V188.842H432.289V186.88ZM425.233 188.86H429.301V190.894H425.233V188.86ZM424.405 180.58H426.349V187.15C426.349 187.87 426.331 188.656 426.295 189.508C426.271 190.36 426.211 191.224 426.115 192.1C426.019 192.976 425.875 193.828 425.683 194.656C425.491 195.484 425.245 196.228 424.945 196.888C424.825 196.78 424.657 196.66 424.441 196.528C424.225 196.396 424.003 196.27 423.775 196.15C423.559 196.042 423.367 195.958 423.199 195.898C423.487 195.286 423.709 194.614 423.865 193.882C424.021 193.138 424.141 192.376 424.225 191.596C424.309 190.816 424.357 190.048 424.369 189.292C424.393 188.524 424.405 187.81 424.405 187.15V180.58ZM428.095 180.58H430.093V194.512C430.093 195.004 430.045 195.406 429.949 195.718C429.853 196.03 429.661 196.276 429.373 196.456C429.085 196.636 428.737 196.75 428.329 196.798C427.921 196.846 427.423 196.87 426.835 196.87C426.823 196.678 426.787 196.45 426.727 196.186C426.667 195.934 426.595 195.682 426.511 195.43C426.439 195.178 426.355 194.962 426.259 194.782C426.595 194.794 426.907 194.8 427.195 194.8C427.495 194.8 427.699 194.8 427.807 194.8C427.915 194.8 427.987 194.776 428.023 194.728C428.071 194.68 428.095 194.596 428.095 194.476V180.58ZM437.347 180.598H439.417V184.09C439.417 184.57 439.351 184.948 439.219 185.224C439.099 185.488 438.853 185.692 438.481 185.836C438.121 185.968 437.677 186.052 437.149 186.088C436.633 186.112 436.033 186.124 435.349 186.124C435.313 185.836 435.229 185.524 435.097 185.188C434.977 184.852 434.851 184.558 434.719 184.306C435.019 184.318 435.325 184.33 435.637 184.342C435.949 184.354 436.225 184.36 436.465 184.36C436.717 184.348 436.885 184.342 436.969 184.342C437.113 184.33 437.209 184.306 437.257 184.27C437.317 184.234 437.347 184.162 437.347 184.054V180.598ZM437.995 186.88H438.355L438.697 186.808L439.975 187.222C439.711 188.782 439.315 190.18 438.787 191.416C438.271 192.64 437.629 193.702 436.861 194.602C436.093 195.502 435.217 196.246 434.233 196.834C434.101 196.594 433.909 196.312 433.657 195.988C433.417 195.676 433.195 195.43 432.991 195.25C433.831 194.806 434.593 194.188 435.277 193.396C435.961 192.604 436.531 191.68 436.987 190.624C437.455 189.568 437.791 188.44 437.995 187.24V186.88ZM434.881 188.194C435.193 189.214 435.613 190.18 436.141 191.092C436.681 191.992 437.311 192.802 438.031 193.522C438.763 194.23 439.585 194.794 440.497 195.214C440.269 195.394 440.023 195.652 439.759 195.988C439.495 196.324 439.291 196.618 439.147 196.87C438.175 196.354 437.311 195.688 436.555 194.872C435.811 194.044 435.157 193.108 434.593 192.064C434.041 191.008 433.573 189.868 433.189 188.644L434.881 188.194ZM431.101 180.598H437.869V182.596H433.135V196.87H431.101V180.598ZM441.739 180.778H447.625V182.596H441.739V180.778ZM448.939 190.048H456.247V191.83H448.939V190.048ZM441.487 186.286H448.183V188.158H441.487V186.286ZM444.421 187.06H446.455V194.53C446.455 195.022 446.401 195.418 446.293 195.718C446.197 196.018 445.993 196.252 445.681 196.42C445.369 196.576 445.003 196.678 444.583 196.726C444.163 196.774 443.677 196.798 443.125 196.798C443.089 196.498 443.011 196.15 442.891 195.754C442.771 195.37 442.639 195.034 442.495 194.746C442.843 194.758 443.173 194.764 443.485 194.764C443.797 194.764 444.013 194.764 444.133 194.764C444.241 194.752 444.313 194.734 444.349 194.71C444.397 194.674 444.421 194.602 444.421 194.494V187.06ZM455.563 190.048H457.741C457.741 190.048 457.735 190.15 457.723 190.354C457.711 190.546 457.693 190.714 457.669 190.858C457.585 191.902 457.483 192.766 457.363 193.45C457.255 194.122 457.135 194.662 457.003 195.07C456.871 195.466 456.715 195.76 456.535 195.952C456.343 196.156 456.139 196.3 455.923 196.384C455.719 196.48 455.485 196.552 455.221 196.6C455.005 196.624 454.717 196.636 454.357 196.636C453.997 196.648 453.607 196.648 453.187 196.636C453.175 196.324 453.115 195.982 453.007 195.61C452.911 195.238 452.779 194.914 452.611 194.638C452.935 194.674 453.235 194.698 453.511 194.71C453.799 194.722 454.015 194.728 454.159 194.728C454.303 194.728 454.417 194.716 454.501 194.692C454.585 194.656 454.669 194.602 454.753 194.53C454.861 194.422 454.963 194.218 455.059 193.918C455.155 193.606 455.245 193.156 455.329 192.568C455.413 191.98 455.491 191.23 455.563 190.318V190.048ZM451.747 188.428H453.889C453.805 189.352 453.679 190.234 453.511 191.074C453.355 191.902 453.091 192.676 452.719 193.396C452.347 194.116 451.825 194.77 451.153 195.358C450.493 195.946 449.629 196.45 448.561 196.87C448.441 196.618 448.261 196.324 448.021 195.988C447.781 195.664 447.547 195.4 447.319 195.196C448.255 194.86 448.999 194.458 449.551 193.99C450.115 193.51 450.541 192.982 450.829 192.406C451.129 191.83 451.339 191.206 451.459 190.534C451.591 189.862 451.687 189.16 451.747 188.428ZM442.153 184.522L443.503 183.136C443.995 183.316 444.517 183.532 445.069 183.784C445.633 184.036 446.167 184.294 446.671 184.558C447.187 184.822 447.619 185.08 447.967 185.332L446.509 186.88C446.197 186.628 445.795 186.364 445.303 186.088C444.811 185.8 444.283 185.518 443.719 185.242C443.167 184.966 442.645 184.726 442.153 184.522ZM447.661 186.286H447.931L448.219 186.196L449.533 186.61C449.389 187.426 449.203 188.266 448.975 189.13C448.759 189.994 448.531 190.732 448.291 191.344L446.833 190.66C447.001 190.132 447.157 189.49 447.301 188.734C447.457 187.978 447.577 187.264 447.661 186.592V186.286ZM454.861 182.668L457.111 183.01C456.715 184.114 456.157 185.062 455.437 185.854C454.729 186.634 453.889 187.282 452.917 187.798C451.945 188.314 450.865 188.74 449.677 189.076C449.605 188.92 449.485 188.728 449.317 188.5C449.161 188.272 448.993 188.05 448.813 187.834C448.645 187.606 448.489 187.426 448.345 187.294C449.449 187.066 450.439 186.754 451.315 186.358C452.203 185.962 452.947 185.464 453.547 184.864C454.159 184.252 454.597 183.52 454.861 182.668ZM451.279 179.932L453.277 180.508C452.989 181.144 452.641 181.768 452.233 182.38C451.825 182.992 451.393 183.568 450.937 184.108C450.493 184.636 450.037 185.092 449.569 185.476C449.437 185.356 449.263 185.224 449.047 185.08C448.831 184.924 448.615 184.774 448.399 184.63C448.183 184.486 447.991 184.366 447.823 184.27C448.531 183.766 449.191 183.13 449.803 182.362C450.415 181.582 450.907 180.772 451.279 179.932ZM451.513 183.136C451.933 183.808 452.479 184.42 453.151 184.972C453.835 185.524 454.621 185.998 455.509 186.394C456.409 186.778 457.381 187.072 458.425 187.276C458.281 187.408 458.119 187.588 457.939 187.816C457.771 188.032 457.609 188.254 457.453 188.482C457.297 188.71 457.165 188.914 457.057 189.094C455.953 188.818 454.939 188.428 454.015 187.924C453.103 187.42 452.281 186.814 451.549 186.106C450.829 185.398 450.223 184.594 449.731 183.694L451.513 183.136ZM444.223 186.934L445.609 187.456C445.381 188.248 445.093 189.058 444.745 189.886C444.409 190.714 444.025 191.482 443.593 192.19C443.161 192.898 442.687 193.492 442.171 193.972C442.075 193.66 441.925 193.306 441.721 192.91C441.529 192.514 441.349 192.172 441.181 191.884C441.613 191.5 442.021 191.038 442.405 190.498C442.801 189.958 443.155 189.382 443.467 188.77C443.779 188.146 444.031 187.534 444.223 186.934ZM451.225 181.786H457.957V183.568H450.361L451.225 181.786ZM447.121 180.778H447.571L447.913 180.706L449.281 181.552C449.017 181.984 448.693 182.428 448.309 182.884C447.925 183.34 447.511 183.772 447.067 184.18C446.635 184.576 446.203 184.924 445.771 185.224C445.579 185.044 445.345 184.858 445.069 184.666C444.805 184.474 444.565 184.312 444.349 184.18C444.733 183.916 445.099 183.61 445.447 183.262C445.807 182.902 446.131 182.536 446.419 182.164C446.719 181.792 446.953 181.456 447.121 181.156V180.778Z" fill="#0B0B0B"/>
<path d="M320.728 92.581L333.825 105.713L363.303 76.1579M392.78 95.8719C392.78 128.11 357.718 151.552 344.963 159.007C343.516 159.849 342.785 160.286 341.759 160.504C340.965 160.676 339.799 160.676 339.005 160.504C337.979 160.286 337.263 159.865 335.801 159.007C323.046 151.552 287.984 128.094 287.984 95.8719V64.4605C287.984 59.2044 287.984 56.5842 288.84 54.3227C289.602 52.3264 290.831 50.5484 292.417 49.1447C294.222 47.5538 296.68 46.6336 301.579 44.7776L336.703 31.5674C338.072 31.0527 338.741 30.8031 339.441 30.694C340.063 30.6004 340.701 30.6004 341.307 30.694C342.007 30.8031 342.692 31.0527 344.045 31.5674L379.169 44.7776C384.069 46.618 386.526 47.5382 388.331 49.1447C389.933 50.5484 391.162 52.3264 391.909 54.3227C392.764 56.5842 392.764 59.2044 392.764 64.4605V95.8719H392.78Z" stroke="white" stroke-width="5" stroke-linecap="round" stroke-linejoin="round"/>
</svg>
