<svg width="992" height="576" viewBox="0 0 992 576" fill="none" xmlns="http://www.w3.org/2000/svg">
<g clip-path="url(#clip0_344_603)">
<path d="M703.354 575.473C747.493 575.473 783.274 539.691 783.274 495.552C783.274 451.413 747.493 415.632 703.354 415.632C659.215 415.632 623.433 451.413 623.433 495.552C623.433 539.691 659.215 575.473 703.354 575.473Z" fill="#F7CCDB"/>
<path d="M703.354 367.657C747.493 367.657 783.274 331.875 783.274 287.736C783.274 243.597 747.493 207.816 703.354 207.816C659.215 207.816 623.433 243.597 623.433 287.736C623.433 331.875 659.215 367.657 703.354 367.657Z" fill="#F9EB72"/>
<path d="M79.9204 367.657C124.059 367.657 159.841 331.875 159.841 287.736C159.841 243.597 124.059 207.816 79.9204 207.816C35.7816 207.816 0 243.597 0 287.736C0 331.875 35.7816 367.657 79.9204 367.657Z" fill="#AECAF2"/>
<path d="M495.552 159.841C539.691 159.841 575.473 124.059 575.473 79.9204C575.473 35.7816 539.691 0 495.552 0C451.413 0 415.632 35.7816 415.632 79.9204C415.632 124.059 451.413 159.841 495.552 159.841Z" fill="#F7CCDB"/>
<path d="M287.736 159.841C331.875 159.841 367.657 124.059 367.657 79.9204C367.657 35.7816 331.875 0 287.736 0C243.597 0 207.816 35.7816 207.816 79.9204C207.816 124.059 243.597 159.841 287.736 159.841Z" fill="#F9EB72"/>
<path d="M316.421 153.906C346.107 142.452 367.171 113.653 367.171 79.9203C367.171 63.7332 362.309 48.6757 353.986 36.135C344.892 37.4077 337.799 39.0378 334.11 40.525C324.343 44.4431 315.849 49.0618 309.772 52.7225C303.137 49.7768 290.224 44.8006 279.543 45.3582L282.446 52.3936C277.841 51.1496 272.908 50.3059 268.446 50.549C268.446 50.549 280.515 69.8677 278.47 74.9012C276.954 78.6334 263.427 91.3743 257.707 92.0893C251.973 92.8043 245.538 92.0893 245.538 92.0893C245.538 92.0893 242.464 108.448 245.538 115.727C247.826 121.132 272.035 130.055 316.436 139.364V153.921L316.421 153.906Z" fill="#DF4425"/>
<path d="M497.611 30.8872C497.611 30.8872 493.464 39.4956 493.15 45.2297C493.15 45.2297 488.688 44.9151 481.038 36.3067C481.038 36.3067 482.439 46.0019 486.358 48.9619C486.358 48.9619 478.45 62.7181 478.493 66.6505C478.607 76.9319 465.723 107.919 461.305 118.229C456.886 128.539 464.737 135.417 470.142 136.89C475.547 138.363 485.428 135.489 486.358 133.944C487.573 131.899 489.217 124.535 491.563 122.376C497.297 117.085 505.805 115.641 511.325 106.117C517.145 96.079 524.08 107.075 526.311 115.369C528.284 122.691 536.463 138.463 541.654 145.57C562.045 131.185 575.372 107.433 575.372 80.5783C575.372 77.5611 575.201 74.5867 574.872 71.6696C557.141 59.7152 529.185 44.0285 504.003 43.6424C504.003 43.6424 501.129 32.8034 497.626 30.8872H497.611Z" fill="#DF4425"/>
<path d="M123.22 251.429C123.22 251.429 112.767 246.782 101.141 247.24C89.5154 247.712 74.8869 252.116 67.6799 265.129C60.4729 278.141 51.407 290.453 37.4649 295.801C23.5228 301.149 17.0165 305.797 15.1575 308.113C13.2986 310.444 14.4569 314.391 20.7344 315.091C27.0119 315.792 41.8835 313.461 48.3898 310.444C54.8961 307.427 70.2395 303.466 74.1862 301.607C74.1862 301.607 84.868 306.025 93.7052 305.325C99.8397 304.838 102.07 308.227 98.3525 317.465C98.3525 317.465 81.8222 348.066 78.1043 367.614C78.7049 367.614 79.3198 367.642 79.9204 367.642C101.885 367.642 121.761 358.734 136.146 344.32C139.564 333.295 143.139 322.041 144.826 317.479C144.826 317.479 159.927 269.089 123.22 251.429Z" fill="#DF4425"/>
<path d="M781.644 287.736C781.644 272.622 777.354 258.508 769.918 246.539L749.956 249.056C738.817 249.399 730.366 248.012 724.446 247.154C720.728 246.625 712.491 246.11 696.504 251.344C695.789 251.816 676.428 264.528 670.422 268.832C666.804 270.176 665.617 271.592 654.192 268.832C654.192 268.832 647.085 282.345 683.006 287.264C683.006 287.264 685.15 291.869 687.61 294.014C687.61 294.014 687.31 307.212 690.07 311.831C692.829 316.435 691.914 326.574 689.769 327.489C687.624 328.404 683.935 333.023 683.62 335.783C683.32 338.543 681.161 347.451 689.769 353.9C698.363 360.349 710.032 361.88 714.951 359.735C719.87 357.59 726.105 346.836 731.882 347.137C735.599 347.337 738.717 351.97 741.92 355.816C765.629 342.361 781.63 316.907 781.63 287.708L781.644 287.736Z" fill="#DF4425"/>
<path d="M780.028 518.732C776.582 514.242 773.393 509.323 770.562 504.032C760.309 484.842 750.056 470.371 730.065 471.429C726.033 471.643 721.185 473.102 716.023 475.275C724.045 466.595 722.815 451.495 722.758 450.852C722.715 450.38 722.401 449.979 721.958 449.836C721.514 449.693 721.014 449.822 720.699 450.18C720.156 450.794 718.254 452.525 716.638 452.525C716.166 452.525 715.737 452.367 715.351 452.038C713.835 450.78 715.952 445.346 717.854 442.072C718.068 441.7 718.068 441.242 717.854 440.87C717.639 440.499 717.253 440.284 716.795 440.299C708.015 440.67 701.523 447.091 698.335 451.038V446.462C698.335 446.033 698.106 445.632 697.734 445.432C697.362 445.218 696.905 445.232 696.533 445.461C689.169 450.037 683.706 458.745 681.561 462.549L679.702 459.56C679.459 459.174 679.002 458.945 678.558 459.002C678.101 459.06 677.715 459.36 677.572 459.789C670.965 479.122 683.263 490.604 685.393 492.42C685.393 492.42 685.751 492.621 686.023 492.463C676.442 498.326 670.879 507.664 670.879 507.664C679.187 505.018 684.421 505.705 684.421 505.705L688.782 506.22C688.782 506.22 684.879 518.06 688.954 523.379C690.598 525.524 693.015 526.611 696.147 526.611C696.161 526.611 696.175 526.611 696.19 526.611C696.29 526.611 698.478 526.496 700.294 524.537C700.551 524.552 700.808 524.566 701.08 524.566C701.094 524.566 701.109 524.566 701.123 524.566C701.237 524.566 703.811 524.437 705.685 521.935C706.643 520.662 707.2 519.003 707.415 517.03C705.556 514.599 707.572 516.644 710.232 521.263C720.027 538.279 712.062 559.657 707.386 575.158C714.093 574.858 720.585 573.714 726.762 571.855C726.791 571.783 726.791 571.755 726.791 571.755C726.791 571.755 726.791 571.783 726.805 571.84C752.23 564.162 772.292 544.128 780.028 518.732Z" fill="#DF4425"/>
<path d="M911.17 159.841C955.308 159.841 991.09 124.059 991.09 79.9204C991.09 35.7816 955.308 0 911.17 0C867.031 0 831.249 35.7816 831.249 79.9204C831.249 124.059 867.031 159.841 911.17 159.841Z" fill="#F9EB72"/>
<path d="M495.552 367.657C539.691 367.657 575.473 331.875 575.473 287.736C575.473 243.597 539.691 207.816 495.552 207.816C451.413 207.816 415.632 243.597 415.632 287.736C415.632 331.875 451.413 367.657 495.552 367.657Z" fill="#EEEEEF"/>
<path d="M911.17 367.657C955.308 367.657 991.09 331.875 991.09 287.736C991.09 243.597 955.308 207.816 911.17 207.816C867.031 207.816 831.249 243.597 831.249 287.736C831.249 331.875 867.031 367.657 911.17 367.657Z" fill="#AECAF2"/>
<path d="M79.9204 575.473C124.059 575.473 159.841 539.691 159.841 495.552C159.841 451.413 124.059 415.632 79.9204 415.632C35.7816 415.632 0 451.413 0 495.552C0 539.691 35.7816 575.473 79.9204 575.473Z" fill="#EEEEEF"/>
<path d="M287.736 575.473C331.875 575.473 367.657 539.691 367.657 495.552C367.657 451.413 331.875 415.632 287.736 415.632C243.597 415.632 207.816 451.413 207.816 495.552C207.816 539.691 243.597 575.473 287.736 575.473Z" fill="#F9EB72"/>
<path d="M495.552 575.473C539.691 575.473 575.473 539.691 575.473 495.552C575.473 451.413 539.691 415.632 495.552 415.632C451.413 415.632 415.632 451.413 415.632 495.552C415.632 539.691 451.413 575.473 495.552 575.473Z" fill="#EEEEEF"/>
<path d="M911.17 575.473C955.308 575.473 991.09 539.691 991.09 495.552C991.09 451.413 955.308 415.632 911.17 415.632C867.031 415.632 831.249 451.413 831.249 495.552C831.249 539.691 867.031 575.473 911.17 575.473Z" fill="#EEEEEF"/>
<path d="M79.9205 159.612C123.996 159.612 159.726 123.882 159.726 79.806C159.726 35.7304 123.996 0 79.9205 0C35.8449 0 0.114502 35.7304 0.114502 79.806C0.114502 123.882 35.8449 159.612 79.9205 159.612Z" fill="#EEEEEF"/>
<path d="M156.609 103.429C153.163 98.9389 149.974 94.0199 147.143 88.729C136.89 69.539 126.637 55.0678 106.646 56.126C102.614 56.3405 97.7664 57.799 92.6042 59.9726C100.626 51.2927 99.3965 36.1924 99.3394 35.5489C99.2965 35.077 98.9819 34.6766 98.5386 34.5336C98.0953 34.3906 97.5948 34.5193 97.2802 34.8768C96.7368 35.4917 94.835 37.2219 93.2191 37.2219C92.7472 37.2219 92.3183 37.0646 91.9322 36.7358C90.4164 35.4774 92.5327 30.0435 94.4346 26.7689C94.6491 26.3971 94.6491 25.9396 94.4346 25.5678C94.2201 25.196 93.834 24.9815 93.3764 24.9958C84.5965 25.3676 78.1045 31.7881 74.9157 35.7348V31.1589C74.9157 30.7299 74.6869 30.3295 74.3151 30.1293C73.9433 29.9148 73.4857 29.9291 73.1139 30.1579C65.7496 34.7338 60.2872 43.4423 58.1422 47.2459L56.2833 44.2573C56.0402 43.8712 55.5826 43.6424 55.1393 43.6996C54.6817 43.7568 54.2957 44.0571 54.1527 44.4861C47.5462 63.8192 59.8439 75.3017 61.9745 77.1178C61.9745 77.1178 62.332 77.318 62.6037 77.1607C53.023 83.0235 47.4604 92.3611 47.4604 92.3611C55.7685 89.7157 61.0022 90.4021 61.0022 90.4021L65.3635 90.9169C65.3635 90.9169 61.4597 102.757 65.5351 108.076C67.1796 110.221 69.5962 111.308 72.7278 111.308C72.7421 111.308 72.7564 111.308 72.7707 111.308C72.8708 111.308 75.0586 111.194 76.8747 109.235C77.1321 109.249 77.3895 109.263 77.6612 109.263C77.6755 109.263 77.6898 109.263 77.7041 109.263C77.8185 109.263 80.3924 109.135 82.2656 106.632C83.2237 105.359 83.7814 103.701 83.9959 101.727C82.1369 99.2964 84.1532 101.341 86.8129 105.96C96.6081 122.977 88.6433 144.354 83.9673 159.855C90.6738 159.555 97.1658 158.411 103.343 156.552C103.372 156.48 103.372 156.452 103.372 156.452C103.372 156.452 103.372 156.48 103.386 156.538C128.811 148.859 148.873 128.825 156.609 103.429Z" fill="#DF4425"/>
<path d="M287.736 366.012C330.967 366.012 366.012 330.967 366.012 287.736C366.012 244.506 330.967 209.46 287.736 209.46C244.506 209.46 209.46 244.506 209.46 287.736C209.46 330.967 244.506 366.012 287.736 366.012Z" fill="#EEEEEF"/>
<path d="M366.012 287.736C366.012 272.622 361.722 258.508 354.287 246.539L334.324 249.056C323.185 249.399 314.734 248.012 308.814 247.154C305.096 246.625 296.859 246.11 280.872 251.344C280.158 251.816 260.796 264.528 254.79 268.832C251.172 270.176 249.985 271.592 238.56 268.832C238.56 268.832 231.453 282.345 267.374 287.264C267.374 287.264 269.519 291.869 271.978 294.014C271.978 294.014 271.678 307.212 274.438 311.831C277.197 316.435 276.282 326.574 274.137 327.489C271.992 328.404 268.303 333.023 267.989 335.783C267.688 338.543 265.529 347.451 274.137 353.9C282.731 360.349 294.4 361.88 299.319 359.735C304.238 357.59 310.473 346.836 316.25 347.137C319.968 347.337 323.085 351.97 326.288 355.816C349.997 342.361 365.998 316.907 365.998 287.708L366.012 287.736Z" fill="#DF4425"/>
<path d="M81.9939 446.505C81.9939 446.505 77.847 455.113 77.5324 460.847C77.5324 460.847 73.071 460.533 65.4207 451.924C65.4207 451.924 66.8221 461.619 70.7401 464.579C70.7401 464.579 62.8325 478.336 62.8754 482.268C62.9898 492.549 50.1058 523.536 45.6873 533.846C41.2687 544.156 49.1192 551.035 54.5244 552.507C59.9297 553.98 69.8107 551.106 70.7401 549.562C71.9556 547.517 73.6001 540.153 75.9452 537.993C81.6793 532.703 90.1876 531.258 95.7072 521.735C101.527 511.696 108.462 522.693 110.693 530.987C112.667 538.308 120.846 554.08 126.037 561.187C146.428 546.802 159.755 523.05 159.755 496.196C159.755 493.178 159.583 490.204 159.255 487.287C141.523 475.333 113.567 459.646 88.3858 459.26C88.3858 459.26 85.5116 448.421 82.0082 446.505H81.9939Z" fill="#DF4425"/>
<path d="M555.868 340.816C539.223 334.696 528.57 326.517 526.268 324.658C526.253 324.615 526.225 324.572 526.196 324.544C516.444 313.719 512.469 304.853 510.853 299.248C511.954 298.204 514.585 297.703 517.13 297.217C520.219 296.631 523.408 296.03 524.823 294.357C527.197 291.554 531.101 277.298 530.043 273.737C529.871 273.179 529.585 272.836 529.185 272.722C529.085 272.693 528.956 272.679 528.842 272.679C526.025 272.679 512.812 282.975 509.366 285.706C508.622 283.232 506.992 281.931 504.575 281.931C501.944 281.931 499.542 283.632 497.683 285.534C514.742 252.645 530.901 238.846 537.278 234.313L537.879 233.927C538.408 233.584 538.937 233.226 539.48 232.883C539.738 232.726 539.809 232.397 539.652 232.14C539.495 231.882 539.18 231.796 538.908 231.939C538.88 231.954 538.079 232.397 536.663 233.398C530.686 237.33 524.895 241.62 519.404 246.225C525.71 239.118 536.649 228.793 536.792 228.665C537.007 228.465 537.021 228.136 536.835 227.907C536.649 227.678 536.32 227.65 536.077 227.835C513.798 245.066 499.47 265.443 499.07 266.001C484.541 282.374 476.62 296.845 473.631 302.293C469.184 310.416 458.459 319.396 452.053 324.758C450.895 325.73 449.879 326.574 449.064 327.289C443.931 331.75 446.919 336.913 447.506 337.814C447.863 341.918 451.181 344.177 456.872 344.177C458.731 344.177 460.561 343.919 461.548 343.705C463.478 343.276 464.508 340.631 464.837 339.587C465.051 339.587 465.337 339.587 465.709 339.587C468.283 339.587 475.218 339.329 484.17 336.998C485.714 336.598 487.144 336.398 488.417 336.398C495.123 336.398 497.711 341.989 501 349.067C501.401 349.925 501.801 350.812 502.23 351.698C504.318 356.088 508.264 361.579 511.954 366.284C529.313 362.795 544.628 353.643 555.882 340.831L555.868 340.816Z" fill="#DF4425"/>
<path d="M524.237 569.524C553.923 558.07 574.986 529.27 574.986 495.538C574.986 479.351 570.124 464.293 561.802 451.752C552.707 453.025 545.615 454.655 541.926 456.142C532.159 460.06 523.665 464.679 517.588 468.34C510.953 465.394 498.04 460.418 487.358 460.976L490.261 468.011C485.657 466.767 480.723 465.923 476.262 466.166C476.262 466.166 488.331 485.485 486.286 490.519C484.77 494.251 471.243 506.992 465.523 507.707C459.789 508.422 453.354 507.707 453.354 507.707C453.354 507.707 450.28 524.065 453.354 531.344C455.642 536.749 479.851 545.672 524.251 554.981V569.538L524.237 569.524Z" fill="#DF4425"/>
<path d="M703.354 159.354C747.224 159.354 782.788 123.791 782.788 79.9203C782.788 36.05 747.224 0.486084 703.354 0.486084C659.483 0.486084 623.919 36.05 623.919 79.9203C623.919 123.791 659.483 159.354 703.354 159.354Z" fill="#EEEEEF"/>
<path d="M781.815 98.1666C757.449 55.5539 754.975 60.2441 750.471 56.8694C745.952 53.4804 741.662 54.1668 741.662 54.1668C741.662 54.1668 741.433 53.0228 740.533 50.9923C739.632 48.9618 734.427 46.0161 731.724 42.2124C729.007 38.4087 730.594 29.2998 725.175 30.2007C719.755 31.1016 717.725 54.1525 717.725 54.1525C713.664 54.3813 710.947 52.122 705.97 47.8321C700.994 43.5422 696.547 41.526 696.547 41.526C691.914 35.8061 688.983 30.1435 688.125 30.2007C687.267 30.2579 686.909 34.1188 687.095 37.0216C687.796 47.8178 694.674 65.2204 694.674 65.2204C689.926 70.6399 686.766 77.8755 684.278 84.1959C681.79 90.5164 686.309 98.9674 686.309 98.9674C686.309 98.9674 683.82 104.087 680.431 109.735C677.042 115.383 659.64 123.52 660.998 128.267C662.357 133.015 670.708 136.175 670.708 136.175C677.028 142.953 696.232 140.022 696.232 140.022L708.773 142.924L721.814 158.111C751.6 151.404 775.066 127.981 781.787 98.1952L781.815 98.1666Z" fill="#DF4425"/>
<path d="M912.628 575.301C948.835 574.801 979.179 550.077 988.202 516.601L981.052 509.294C981.052 509.294 969.126 491.849 956.271 479.294C941.928 465.266 934.65 470.228 929.616 464.365C924.597 458.502 904.678 444.26 907.423 452.139C907.595 452.653 907.766 453.154 907.909 453.64C907.037 452.954 906.079 452.353 905.278 452.239C903.334 451.938 909.582 462.906 907.051 472.001C904.02 472.716 883.5 478.121 882.728 492.85C881.884 508.765 874.077 515.486 871.846 517.545C868.342 520.791 884.401 538.065 889.434 539.738C894.453 541.411 903.248 535.548 903.248 535.548C916.646 533.46 913.3 542.24 913.3 542.24C909.482 556.855 910.598 567.922 912.642 575.301H912.628Z" fill="#DF4425"/>
</g>
<defs>
<clipPath id="clip0_344_603">
<rect width="991.09" height="575.473" fill="white"/>
</clipPath>
</defs>
</svg>
