<svg width="483" height="506" viewBox="0 0 483 506" fill="none" xmlns="http://www.w3.org/2000/svg">
<path d="M189.074 1.44434H37.3325C16.7143 1.44434 0 18.2031 0 38.876V201.673C0 222.346 16.7143 239.104 37.3325 239.104H189.074C209.692 239.104 226.406 222.346 226.406 201.673V38.876C226.406 18.2031 209.692 1.44434 189.074 1.44434Z" fill="#ED6F60"/>
<path d="M140.862 189.552H143.742C143.166 189.192 142.572 188.814 142.032 188.472C141.654 188.832 141.258 189.21 140.862 189.552ZM143.886 192.882H139.8V193.476V193.584H143.886V192.882ZM139.728 195.582H143.886V194.844H139.764C139.764 195.078 139.746 195.33 139.728 195.582ZM144.39 199.074H141.06V200.352H144.39V199.074ZM143.868 190.812H140.178L140.16 190.11C139.53 190.596 138.9 191.028 138.234 191.406H145.83V197.058H139.584C139.548 197.238 139.53 197.436 139.494 197.616H146.262V202.422H144.39V201.936H141.06V202.494H139.278V198.768C139.026 199.902 138.648 201 138.126 201.918C137.712 201.648 136.776 201.252 136.254 201.108C137.676 198.804 137.82 195.6 137.82 193.476V191.658L137.406 191.874C137.208 191.37 136.65 190.29 136.29 189.822C138.378 188.94 140.484 187.464 141.636 185.736L143.598 186.51C143.49 186.672 143.382 186.816 143.274 186.96C144.606 187.734 146.1 188.616 146.928 189.21L145.83 191.01C145.344 190.614 144.642 190.146 143.868 189.642V190.812ZM149.286 187.608V197.652H147.27V187.608H149.286ZM150.528 185.808H152.58V199.992C152.58 201.144 152.364 201.72 151.698 202.062C151.068 202.422 150.042 202.494 148.602 202.494C148.512 201.9 148.26 200.946 147.972 200.352C148.89 200.37 149.826 200.37 150.114 200.37C150.402 200.37 150.528 200.28 150.528 199.974V185.808ZM156.51 197.04L158.148 197.508C157.698 198.804 156.96 200.28 156.33 201.198C156.006 200.928 155.322 200.46 154.926 200.226C155.538 199.38 156.132 198.156 156.51 197.04ZM160.74 189.282H158.076C158.346 189.876 158.58 190.65 158.67 191.154L157.374 191.514H159.966C160.236 190.866 160.56 189.948 160.74 189.282ZM163.458 196.464H160.668V202.44H158.598V196.464H155.25V194.664H158.598V193.278H155.142V191.514H156.888C156.798 190.974 156.582 190.2 156.366 189.642L157.842 189.282H155.412V187.536H158.49C158.328 187.05 158.13 186.546 157.95 186.114L160.092 185.592C160.362 186.186 160.686 186.924 160.902 187.536H163.476V189.282H161.226L162.684 189.57C162.414 190.254 162.144 190.956 161.874 191.514H163.746V193.278H160.668V194.664H163.458V196.464ZM171.774 191.676V193.656H170.1V202.494H168.012V193.656H166.338V193.872C166.338 196.518 166.104 200.226 164.574 202.53C164.214 202.152 163.368 201.468 162.918 201.252C163.26 200.73 163.53 200.136 163.728 199.506L162.45 200.298C162.162 199.578 161.55 198.426 161.046 197.598L162.45 196.842C162.936 197.562 163.494 198.516 163.8 199.2C164.304 197.472 164.358 195.528 164.358 193.872V187.464C166.32 187.104 168.498 186.546 169.812 185.934L171.45 187.5C169.974 188.094 168.102 188.526 166.338 188.85V191.676H171.774ZM178.314 198.516V194.016H176.694V198.516H178.314ZM180.366 188.544H177.738C177.486 189.75 177.162 190.974 176.766 192.126H180.132V200.406H176.694V201.72H174.912V196.14C174.678 196.482 174.444 196.806 174.192 197.112C174.12 196.536 173.742 195.168 173.454 194.556C174.552 193.08 175.29 190.902 175.74 188.544H173.832V186.6H180.366V188.544ZM184.47 193.08H186.486V188.634H184.47V193.08ZM190.41 193.08V195.096H188.52V202.584H186.486V195.096H184.434C184.326 197.742 183.804 200.748 181.95 202.71C181.59 202.332 180.816 201.738 180.33 201.468C181.878 199.794 182.328 197.292 182.436 195.096H180.762V193.08H182.472V188.634H181.23V186.654H190.05V188.634H188.52V193.08H190.41ZM204.924 197.76H201.396C202.152 198.156 202.98 198.57 203.79 199.02C204.222 198.642 204.6 198.228 204.924 197.76ZM206.202 196.284L207.372 196.698C206.922 198.012 206.256 199.056 205.392 199.902C206.202 200.352 206.94 200.802 207.48 201.162L206.4 202.584C205.788 202.152 204.924 201.594 203.952 201.018C202.818 201.72 201.432 202.224 199.938 202.566C199.758 202.098 199.38 201.414 199.038 201.018C200.208 200.82 201.306 200.478 202.242 200.01C201.36 199.524 200.514 199.038 199.74 198.624L200.46 197.76H200.028V196.338H205.878L206.202 196.284ZM207.138 187.644L208.686 188.742C208.002 189.354 207.228 189.93 206.562 190.398C207.354 190.812 208.218 191.154 209.136 191.406C208.686 191.82 208.146 192.576 207.858 193.098C207.12 192.864 206.454 192.576 205.806 192.234V193.782C205.806 194.214 205.842 194.358 206.076 194.358H206.958C207.21 194.358 207.642 194.34 207.876 194.268C207.912 194.7 207.948 195.312 208.02 195.726C207.768 195.816 207.354 195.834 206.976 195.834H205.86C204.348 195.834 204.06 195.222 204.06 193.764V192.72H202.404C202.35 193.98 201.918 195.33 200.424 196.284C200.226 195.978 199.704 195.456 199.344 195.132V195.672H195.78C195.708 196.086 195.654 196.518 195.6 196.914H199.344C199.344 196.914 199.326 197.418 199.308 197.67C199.11 200.1 198.894 201.252 198.426 201.72C198.048 202.134 197.616 202.278 196.986 202.314C196.5 202.368 195.564 202.368 194.61 202.332C194.574 201.774 194.322 201.036 193.998 200.55C194.898 200.622 195.78 200.64 196.176 200.64C196.464 200.64 196.662 200.622 196.824 200.46C197.04 200.262 197.202 199.686 197.328 198.462H193.548C193.8 197.292 194.088 195.51 194.25 194.088H197.436V192.828H194.826V192.54C194.286 192.81 193.746 193.044 193.188 193.242C192.936 192.774 192.414 192.054 192.036 191.676C193.098 191.37 194.124 190.884 195.06 190.29C194.574 189.93 193.926 189.516 193.386 189.21L194.61 188.076C195.222 188.382 195.978 188.814 196.5 189.21C196.878 188.85 197.238 188.472 197.544 188.058H193.998V186.384H198.696L199.056 186.294L200.37 186.942C199.65 188.706 198.444 190.11 196.986 191.208H199.344V194.79C200.46 194.052 200.622 193.188 200.622 192.378V191.1H204.06C202.494 189.858 201.288 188.256 200.424 186.33L202.134 185.826C202.404 186.438 202.746 187.014 203.16 187.518C203.754 187.014 204.42 186.366 204.852 185.862L206.382 186.96C205.644 187.572 204.87 188.22 204.186 188.706C204.492 188.994 204.816 189.264 205.14 189.516C205.824 188.976 206.652 188.22 207.138 187.644Z" fill="#323232"/>
<path d="M69.9985 130.381V145.931C69.9985 153.277 75.925 159.219 83.2515 159.219C90.578 159.219 96.5046 153.277 96.5046 145.931V130.381M83.2515 26.3521V32.9962M23.6128 92.7933H16.9863M40.1791 49.6065L36.197 45.6138M126.324 49.6065L130.306 45.6138M149.517 92.7933H142.89M123.011 92.7933C123.011 114.816 105.215 132.658 83.2515 132.658C61.2875 132.658 43.4924 114.816 43.4924 92.7933C43.4924 70.771 61.2875 52.9286 83.2515 52.9286C105.215 52.9286 123.011 70.771 123.011 92.7933Z" stroke="white" stroke-width="5" stroke-linecap="round" stroke-linejoin="round"/>
<path d="M445.667 268.034H293.926C273.308 268.034 256.594 284.793 256.594 305.466V468.263C256.594 488.936 273.308 505.694 293.926 505.694H445.667C466.286 505.694 483 488.936 483 468.263V305.466C483 284.793 466.286 268.034 445.667 268.034Z" fill="#AECAF2"/>
<path d="M404.083 455.022L402.625 455.85C402.337 455.22 401.653 454.266 401.077 453.582L402.445 452.826C403.075 453.492 403.777 454.392 404.083 455.022ZM393.085 455.724V457.416H387.109V455.724H389.809C389.485 455.04 388.909 454.194 388.405 453.546L390.097 452.718C390.745 453.42 391.411 454.392 391.735 455.058L390.493 455.724H393.085ZM392.635 458.244V459.864H387.883V458.244H392.635ZM387.883 462.294V460.692H392.635V462.294H387.883ZM396.811 461.484H395.569C395.551 462.69 395.461 464.094 395.245 465.462C395.641 465.498 395.947 465.516 396.127 465.516C396.307 465.516 396.451 465.462 396.559 465.282C396.721 465.03 396.757 464.112 396.811 461.484ZM390.889 466.92V464.85H389.485V466.92H390.889ZM402.139 458.838L403.867 459.576C403.327 461.736 402.535 463.716 401.581 465.39C401.797 466.47 402.067 467.1 402.409 467.136C402.661 467.136 402.841 466.236 402.931 464.688C403.237 465.066 404.029 465.606 404.335 465.786C403.903 468.9 403.039 469.584 402.355 469.566C401.419 469.53 400.735 468.756 400.249 467.388C399.619 468.216 398.935 468.918 398.215 469.494C397.963 469.188 397.369 468.666 396.919 468.396C397.945 467.586 398.881 466.488 399.691 465.156C399.349 463.248 399.169 460.746 399.061 457.812H395.587V459.738H398.611V460.476C398.539 464.472 398.467 466.164 398.107 466.65C397.801 467.064 397.567 467.208 397.135 467.298C396.775 467.37 396.235 467.406 395.641 467.388C395.605 466.812 395.461 466.11 395.227 465.588C394.975 467.064 394.615 468.486 393.985 469.62C393.715 469.314 393.067 468.756 392.617 468.468V468.594H389.485V469.332H387.811V463.176H392.617V467.928C393.571 465.714 393.661 462.726 393.661 460.566V455.904H399.007C398.989 454.896 398.971 453.852 398.953 452.754H400.825C400.825 453.834 400.825 454.878 400.843 455.904H403.993V457.812H400.897C400.933 459.432 401.023 460.926 401.149 462.24C401.545 461.178 401.869 460.044 402.139 458.838ZM409.615 452.826L411.523 453.402C411.145 454.464 410.713 455.544 410.191 456.588V469.638H408.247V459.954C407.815 460.566 407.365 461.16 406.933 461.664C406.753 461.178 406.177 460.062 405.835 459.558C407.347 457.92 408.787 455.364 409.615 452.826ZM419.641 465.246H413.827V467.28H419.641V465.246ZM412.009 469.548V463.536H421.531V469.494H419.641V468.99H413.827V469.548H412.009ZM412.279 462.528V460.854H421.297V462.528H412.279ZM421.297 458.244V459.918H412.279V458.244H421.297ZM417.157 455.544H422.611V457.29H411.019V455.544H416.167C415.897 454.878 415.447 454.05 415.051 453.402L416.869 452.718C417.373 453.456 417.931 454.446 418.183 455.094L417.157 455.544ZM441.031 457.74V459.216H424.903V457.74H431.887V457.074H426.757V455.778H431.887V455.13H425.929V453.726H431.887V452.754H434.083V453.726H440.293V455.13H434.083V455.778H439.483V457.074H434.083V457.74H441.031ZM429.133 464.886V465.642H436.945V464.886H429.133ZM429.133 462.978V463.698H436.945V462.978H429.133ZM429.133 461.07V461.79H436.945V461.07H429.133ZM439.123 466.884H436.477C438.169 467.442 440.005 468.126 441.139 468.612L438.565 469.566C437.557 469.026 435.757 468.27 433.957 467.676L435.397 466.884H430.627L431.941 467.478C430.447 468.36 428.161 469.17 426.325 469.62C425.983 469.206 425.227 468.45 424.777 468.09C426.397 467.82 428.161 467.388 429.421 466.884H427.063V459.846H439.123V466.884ZM447.373 452.862L449.497 453.528C449.011 454.77 448.417 456.012 447.715 457.2V469.548H445.591V460.332C445.087 460.962 444.583 461.538 444.061 462.042C443.845 461.502 443.197 460.314 442.819 459.774C444.637 458.136 446.365 455.526 447.373 452.862ZM460.063 462.42H455.419V466.902H459.667V468.954H449.083V466.902H453.241V462.42H448.597V460.35H453.241V456.426H449.569V454.41H459.379V456.426H455.419V460.35H460.063V462.42Z" fill="#323232"/>
<path d="M310.306 396.254H324.866C326.763 396.254 328.645 396.487 330.497 396.94L345.896 400.683C349.241 401.494 352.709 401.572 356.085 400.917L373.102 397.595C377.598 396.721 381.735 394.554 384.971 391.403L397.011 379.659C400.448 376.306 400.448 370.878 397.011 367.525C393.915 364.499 389.015 364.171 385.515 366.729L371.485 376.992C369.478 378.458 367.036 379.253 364.516 379.253H350.967H359.6C364.469 379.253 368.405 375.417 368.405 370.675V368.96C368.405 365.029 365.651 361.582 361.747 360.631L348.432 357.387C346.27 356.857 344.045 356.592 341.821 356.592C336.439 356.592 326.686 361.068 326.686 361.068L310.321 367.93M287.984 365.56V398.016C287.984 401.151 287.984 402.711 288.591 403.911C289.12 404.972 289.975 405.814 291.033 406.36C292.231 406.968 293.786 406.968 296.913 406.968H301.377C304.504 406.968 306.059 406.968 307.257 406.36C308.315 405.83 309.155 404.972 309.699 403.911C310.306 402.711 310.306 401.151 310.306 398.016V365.56C310.306 362.425 310.306 360.865 309.699 359.664C309.17 358.619 308.315 357.761 307.257 357.215C306.059 356.607 304.504 356.607 301.377 356.607H296.913C293.786 356.607 292.231 356.607 291.033 357.215C289.975 357.746 289.135 358.603 288.591 359.664C287.984 360.865 287.984 362.425 287.984 365.56ZM372.76 303.969C369.431 296.982 361.747 293.285 354.28 296.857C346.814 300.428 343.625 308.897 346.752 316.337C348.681 320.938 354.218 329.859 358.169 336.004C359.631 338.281 360.363 339.42 361.42 340.075C362.338 340.652 363.474 340.948 364.547 340.917C365.807 340.87 367.005 340.262 369.4 339.014C375.887 335.661 385.126 330.717 389.093 327.691C395.517 322.809 397.104 313.857 392.297 307.041C387.491 300.226 379.122 299.555 372.745 303.938L372.76 303.969Z" stroke="white" stroke-width="5" stroke-linecap="round" stroke-linejoin="round"/>
<path d="M189.074 268.101H37.3325C16.7143 268.101 0 284.859 0 305.532V468.329C0 489.002 16.7143 505.761 37.3325 505.761H189.074C209.692 505.761 226.406 489.002 226.406 468.329V305.532C226.406 284.859 209.692 268.101 189.074 268.101Z" fill="#F7CCDB"/>
<path d="M133.971 452.772L135.933 453.366C135.591 454.446 135.195 455.562 134.709 456.642V469.548H132.675V460.494C132.297 461.052 131.919 461.574 131.541 462.024C131.379 461.52 130.839 460.296 130.515 459.72C131.919 458.028 133.215 455.418 133.971 452.772ZM143.727 462.204L144.825 461.556C145.095 461.808 145.383 462.06 145.653 462.366V461.304H142.197C142.575 461.61 142.953 461.934 143.169 462.186L141.981 462.888C141.675 462.528 141.099 461.952 140.613 461.592L141.153 461.304H137.337V462.528C137.625 462.222 137.895 461.916 138.093 461.61L138.921 462.042V461.682H140.595V462.492C140.595 462.852 140.703 462.906 141.189 462.906H142.773C143.133 462.906 143.223 462.816 143.277 462.294C143.475 462.402 143.799 462.51 144.123 462.6C143.997 462.456 143.853 462.33 143.727 462.204ZM139.515 465.876C140.055 466.236 140.703 466.542 141.405 466.776C142.125 466.524 142.737 466.2 143.223 465.858L139.515 465.876ZM139.065 459.522V460.098H144.051V459.522H139.065ZM144.051 456.678H139.065V457.218H144.051V456.678ZM144.051 458.658V458.082H139.065V458.658H144.051ZM147.561 460.098V462.654H145.923C146.247 462.996 146.517 463.338 146.697 463.59L145.545 464.31C145.329 463.968 144.951 463.5 144.555 463.05C144.375 463.806 143.943 464.04 143.007 464.04H141.423C141.279 464.22 141.117 464.4 140.955 464.58H144.609L144.969 464.508L146.247 465.228C145.671 466.092 144.825 466.848 143.709 467.46C144.897 467.712 146.175 467.874 147.543 467.982C147.165 468.378 146.751 469.08 146.517 469.548C144.627 469.35 142.917 469.008 141.405 468.486C139.893 468.99 138.147 469.368 136.167 469.638C135.969 469.17 135.519 468.522 135.141 468.09C136.617 467.946 137.985 467.73 139.155 467.46C138.795 467.244 138.453 467.028 138.129 466.794C137.661 467.064 137.157 467.334 136.599 467.586C136.347 467.19 135.825 466.632 135.447 466.38C135.987 466.182 136.455 465.948 136.923 465.714C136.689 465.462 136.473 465.228 136.293 464.958L137.841 464.418C137.967 464.58 138.111 464.742 138.255 464.904C138.741 464.544 139.155 464.184 139.479 463.824C139.137 463.644 138.975 463.338 138.939 462.834C138.543 463.374 138.075 463.896 137.535 464.274L136.347 463.356C136.653 463.176 136.941 462.924 137.211 462.654H135.519V460.098H137.157V455.634H140.127C140.181 455.436 140.217 455.22 140.253 455.004H136.059V453.474H147.201V455.004H142.467L142.197 455.634H146.049V460.098H147.561ZM153.921 459.324V460.746H161.553V459.324H153.921ZM161.553 456.282H153.921V457.614H161.553V456.282ZM163.281 462.672L165.081 464.04C164.181 464.742 163.083 465.426 162.093 466.02C163.227 466.632 164.577 467.082 166.071 467.352C165.603 467.82 164.973 468.72 164.703 469.296C160.473 468.306 157.737 466.074 156.045 462.618H153.921V466.956L157.917 466.074C157.917 466.686 158.025 467.586 158.133 468.072C153.075 469.242 152.247 469.422 151.707 469.71C151.527 469.242 150.915 468.432 150.573 468.09C151.005 467.748 151.671 467.064 151.671 466.092V454.41H156.765C156.639 453.942 156.477 453.474 156.315 453.06L158.529 452.592C158.781 453.15 159.015 453.816 159.177 454.41H163.749V462.618H158.349C158.853 463.464 159.519 464.202 160.329 464.868C161.373 464.202 162.525 463.374 163.281 462.672ZM179.523 457.938V455.508H173.223V457.938H179.523ZM181.701 453.456V459.972H171.153V453.456H181.701ZM173.385 463.518H170.703V466.614H173.385V463.518ZM168.687 469.566V461.466H175.527V469.476H173.385V468.666H170.703V469.566H168.687ZM179.109 466.614H181.971V463.518H179.109V466.614ZM177.057 461.466H184.131V469.494H181.971V468.666H179.109V469.566H177.057V461.466ZM191.229 457.02H189.663C189.357 457.938 188.853 458.82 187.953 459.54C187.683 459.162 186.945 458.424 186.567 458.172C187.935 457.146 188.133 455.868 188.133 454.824V453.618C190.005 453.51 192.165 453.24 193.425 452.808L194.613 454.05C193.353 454.5 191.625 454.734 189.969 454.878C189.969 455.058 189.969 455.256 189.951 455.454H194.847V457.02H193.119V458.856H191.229V457.02ZM198.645 461.286V460.476H191.211V461.286H198.645ZM198.645 463.302V462.474H191.211V463.302H198.645ZM198.645 465.318V464.508H191.211V465.318H198.645ZM200.499 458.91H198.573V457.02H197.025C196.809 457.812 196.449 458.568 195.837 459.198H200.805V466.614H198.429C200.121 467.118 201.831 467.712 202.965 468.162L201.975 469.656C200.697 469.08 198.555 468.27 196.557 467.658L197.205 466.614H192.543L193.713 467.298C192.165 468.162 189.735 469.134 187.917 469.674C187.737 469.296 187.215 468.306 186.891 467.874C188.385 467.586 190.203 467.136 191.535 466.614H189.159V459.198H195.603C195.225 458.874 194.541 458.424 194.181 458.244C195.333 457.218 195.477 455.904 195.477 454.878V453.564C197.493 453.474 199.779 453.204 201.039 452.772L202.371 453.96C201.003 454.428 199.077 454.698 197.277 454.824V454.914C197.277 455.094 197.277 455.274 197.259 455.454H203.037V457.02H200.499V458.91Z" fill="#323232"/>
<path d="M54.8633 406.489V347.237M27.9994 357.999V395.711C27.9994 401.669 32.806 406.489 38.7481 406.489H110.878C118.826 406.489 125.593 400.671 126.806 392.779L132.593 355.067C134.102 345.272 126.542 336.445 116.664 336.445H97.8424C94.8713 336.445 92.4758 334.027 92.4758 331.064V312.02C92.4758 304.69 86.5493 298.732 79.2228 298.732C77.4806 298.732 75.8939 299.762 75.194 301.368L56.2788 344.025C55.4233 345.974 53.4944 347.222 51.3634 347.222H38.7325C32.7904 347.222 27.9839 352.041 27.9839 357.999H27.9994Z" stroke="white" stroke-width="5" stroke-linecap="round" stroke-linejoin="round"/>
<path d="M445.667 0.186523H293.926C273.308 0.186523 256.594 16.9453 256.594 37.6182V200.415C256.594 221.088 273.308 237.847 293.926 237.847H445.667C466.286 237.847 483 221.088 483 200.415V37.6182C483 16.9453 466.286 0.186523 445.667 0.186523Z" fill="#F9EB72"/>
<path d="M396.791 193.984V194.614L399.059 194.596C398.807 194.488 398.555 194.362 398.321 194.272L398.681 193.984H396.791ZM391.517 192.67H394.703V191.986H391.517V192.67ZM391.517 190.096V190.762H394.703V190.096H391.517ZM400.139 190.096H396.791V190.762H400.139V190.096ZM396.791 192.67H400.139V191.986H396.791V192.67ZM403.973 196.684V198.376H399.959V200.122C399.959 201.112 399.779 201.616 399.041 201.904C398.321 202.174 397.313 202.192 395.945 202.192C395.855 201.616 395.585 200.86 395.333 200.32C396.197 200.356 397.223 200.356 397.511 200.356C397.799 200.338 397.889 200.284 397.889 200.05V198.376H392.813C393.569 198.916 394.325 199.546 394.739 200.032L393.155 201.4C392.633 200.698 391.427 199.672 390.455 199.006L391.211 198.376H387.611V196.684H397.889V196.018C394.343 196.09 390.941 196.144 388.421 196.162L388.367 194.632C390.059 194.65 392.273 194.632 394.703 194.632V193.984H389.519V188.8H394.703V188.152H388.097V186.532H394.703V185.398H396.791V186.532H403.361V188.152H396.791V188.8H402.227V193.984H401.021C401.921 194.452 402.767 194.992 403.343 195.424L402.029 196.522C401.813 196.342 401.561 196.126 401.273 195.928L399.959 195.964V196.684H403.973ZM411.359 198.7L412.871 199.384C411.647 200.41 409.487 201.346 407.633 201.778C407.363 201.328 406.805 200.626 406.373 200.23C408.173 199.978 410.261 199.366 411.359 198.7ZM416.201 199.6L417.641 198.592C419.099 199.132 421.223 200.032 422.375 200.608L420.863 201.778C419.819 201.184 417.713 200.23 416.201 199.6ZM416.957 189.988H412.025C412.313 190.438 412.601 190.96 412.745 191.338L411.773 191.572H416.687L416.039 191.374C416.327 190.96 416.705 190.42 416.957 189.988ZM415.427 196.342H422.411V198.106H415.427V202.21H413.303V198.106H406.445V196.342H413.303V195.55H408.119V194.002H413.303V193.192H407.219V191.572H410.531C410.369 191.158 410.099 190.654 409.865 190.258L411.071 189.988H406.481V188.314H408.929C408.659 187.63 408.191 186.766 407.777 186.082L409.613 185.47C410.153 186.226 410.747 187.306 410.981 187.99L410.117 188.314H411.773V185.38H413.753V188.314H415.103V185.38H417.119V188.314H418.721L418.073 188.116C418.487 187.396 418.973 186.298 419.225 185.524L421.475 186.046C420.971 186.874 420.485 187.684 420.035 188.314H422.357V189.988H417.605L419.297 190.42C418.901 190.852 418.523 191.248 418.199 191.572H421.673V193.192H415.427V194.002H420.827V195.55H415.427V196.342ZM427.565 194.236H429.347V192.058H427.583V192.544C427.583 193.084 427.583 193.642 427.565 194.236ZM429.347 187.99H427.583V190.078H429.347V187.99ZM431.327 186.01V199.852C431.327 200.842 431.183 201.418 430.589 201.796C430.031 202.138 429.257 202.192 428.087 202.192C428.033 201.634 427.781 200.662 427.511 200.122C428.159 200.158 428.825 200.14 429.041 200.14C429.257 200.14 429.347 200.068 429.347 199.816V196.252H427.457C427.295 198.358 426.935 200.572 426.197 202.21C425.819 201.904 424.937 201.4 424.469 201.238C425.585 198.79 425.657 195.172 425.657 192.544V186.01H431.327ZM434.351 194.2V200.5C435.161 200.05 435.881 199.42 436.547 198.664C435.665 197.35 434.999 195.838 434.459 194.2H434.351ZM438.833 194.2H436.277C436.637 195.19 437.105 196.144 437.663 197.008C438.149 196.162 438.545 195.208 438.833 194.2ZM439.877 192.202L441.155 192.616C440.741 195.046 440.003 197.026 438.995 198.646C439.769 199.438 440.669 200.104 441.659 200.536C441.227 200.932 440.633 201.688 440.327 202.21C439.391 201.688 438.527 201.022 437.771 200.248C437.087 201.004 436.295 201.652 435.413 202.174C435.197 201.76 434.747 201.13 434.351 200.734V202.21H432.317V186.028H440.597V189.502C440.597 190.438 440.399 190.942 439.643 191.23C438.941 191.5 437.915 191.5 436.547 191.5C436.457 190.942 436.169 190.222 435.917 189.7C436.817 189.754 437.879 189.754 438.167 189.736C438.455 189.718 438.545 189.664 438.545 189.448V188.008H434.351V192.274H439.553L439.877 192.202ZM455.507 195.406H459.521C459.521 195.406 459.485 195.964 459.449 196.216C459.161 199.33 458.837 200.716 458.315 201.292C457.919 201.706 457.541 201.85 457.001 201.922C456.551 201.976 455.813 201.994 454.985 201.958C454.967 201.364 454.733 200.536 454.409 199.978C455.057 200.05 455.669 200.068 455.957 200.068C456.209 200.068 456.353 200.032 456.533 199.87C456.785 199.636 457.019 198.862 457.217 197.188H455.129C454.517 199.33 453.239 201.076 450.395 202.192C450.161 201.688 449.603 200.932 449.153 200.536C451.313 199.744 452.357 198.592 452.915 197.188H450.737V195.406H453.365C453.455 194.884 453.509 194.362 453.545 193.804H455.687C455.633 194.344 455.579 194.884 455.507 195.406ZM456.299 188.962H453.617C454.013 189.52 454.517 190.042 455.111 190.492C455.597 190.06 455.993 189.538 456.299 188.962ZM459.719 188.962H458.675C458.207 189.988 457.613 190.852 456.875 191.59C457.865 192.058 458.981 192.418 460.187 192.652C459.719 193.084 459.125 193.93 458.837 194.47C457.469 194.128 456.245 193.588 455.165 192.922C454.103 193.57 452.861 194.056 451.493 194.434C451.385 194.236 451.205 193.966 450.989 193.678C450.737 194.794 450.431 195.874 450.107 196.684L448.667 196.018C448.865 195.352 449.081 194.452 449.243 193.534H448.289V199.87C448.289 200.842 448.145 201.418 447.515 201.742C446.903 202.084 446.093 202.12 444.977 202.12C444.923 201.526 444.635 200.662 444.365 200.086C445.031 200.104 445.751 200.104 445.985 200.104C446.201 200.086 446.273 200.05 446.273 199.834V195.982C445.643 197.314 444.887 198.52 444.023 199.312C443.843 198.7 443.375 197.818 443.051 197.242C444.041 196.36 444.977 194.956 445.607 193.534H443.357V191.662H447.479C446.471 191.05 445.121 190.366 444.005 189.916L445.355 188.548C445.787 188.71 446.291 188.908 446.777 189.124C447.173 188.782 447.569 188.386 447.911 187.99H443.591V186.19H449.405L449.729 186.118L451.097 186.982C450.485 187.99 449.477 189.088 448.469 189.952C448.991 190.222 449.441 190.492 449.783 190.744L448.901 191.662H449.765L450.053 191.572L451.349 192.004L451.277 192.418C452.069 192.202 452.825 191.932 453.473 191.59C453.005 191.14 452.573 190.636 452.195 190.096C451.925 190.384 451.655 190.636 451.385 190.87C450.971 190.528 450.143 189.952 449.639 189.664C451.043 188.656 452.375 187.036 453.077 185.38L455.075 185.92C454.877 186.352 454.661 186.766 454.409 187.18H459.719V188.962Z" fill="#323232"/>
<path d="M320.744 96.9573L333.841 110.09L363.318 80.5341M392.796 100.248C392.796 132.486 357.734 155.928 344.979 163.383C343.532 164.225 342.801 164.662 341.774 164.88C340.981 165.052 339.814 165.052 339.021 164.88C337.994 164.662 337.279 164.241 335.817 163.383C323.061 155.928 288 132.471 288 100.248V68.8367C288 63.5807 288 60.9604 288.856 58.699C289.618 56.7026 290.847 54.9246 292.433 53.5209C294.238 51.93 296.695 51.0099 301.595 49.1539L336.719 35.9436C338.088 35.4289 338.757 35.1794 339.457 35.0702C340.079 34.9766 340.717 34.9766 341.323 35.0702C342.023 35.1794 342.708 35.4289 344.061 35.9436L379.185 49.1539C384.085 50.9943 386.542 51.9145 388.347 53.5209C389.949 54.9246 391.178 56.7026 391.924 58.699C392.78 60.9604 392.78 63.5807 392.78 68.8367V100.248H392.796Z" stroke="white" stroke-width="5" stroke-linecap="round" stroke-linejoin="round"/>
</svg>
